<?xml version="1.0" encoding="utf-8"?>
<!-- Generator: Adobe Illustrator 27.5.0, SVG Export Plug-In . SVG Version: 6.00 Build 0)  -->
<svg version="1.1" xmlns="http://www.w3.org/2000/svg" xmlns:xlink="http://www.w3.org/1999/xlink" x="0px" y="0px"
	 viewBox="0 0 500 500" style="enable-background:new 0 0 500 500;" xml:space="preserve">
<g id="BACKGROUND">
	<rect style="fill:#FFFFFF;" width="500" height="500"/>
</g>
<g id="OBJECTS">
	<g>
		<g>
			<g>
				<g>
					<path style="fill:#F4EEDF;" d="M48.044,411.878l34.804-43.952c2.555-3.945,10.886-7.038,18.618-7.038h296.12
						c7.551,0,40.248,45.387,44.153,51.184c0.154,0.229,0.382,0.383,0.649,0.447l9.417,2.235c0.29,0.069,0.55,0.249,0.699,0.509
						c4.199,7.295-2.175,19.881-13.228,19.881H59.775C48.516,435.143,43.364,419.101,48.044,411.878z"/>
					<g>
						<g>
							<path style="fill:#AFBAB7;" d="M371.824,350.988l-0.054-0.134c-0.087-0.215,0.209-0.391,0.658-0.391h6.737
								c0.448,0,0.895,0.176,0.993,0.391l0.061,0.134c0.098,0.216-0.19,0.393-0.641,0.393h-6.776
								C372.352,351.381,371.911,351.204,371.824,350.988z"/>
							<path style="fill:#AFBAB7;" d="M236.573,350.846L236.573,350.846c-0.079-0.292,0.356-0.531,0.966-0.531h11.098
								c0.61,0,114.509,0.239,114.612,0.531l0,0c0.103,0.294-113.631,0.535-114.245,0.535h-11.171
								C237.219,351.381,236.652,351.14,236.573,350.846z"/>
							<path style="fill:#AFBAB7;" d="M219.371,350.846L219.371,350.846c-0.048-0.292,0.412-0.531,1.022-0.531h11.098
								c0.61,0,1.167,0.239,1.239,0.531l0,0c0.072,0.294-0.371,0.535-0.985,0.535h-11.172
								C219.961,351.381,219.419,351.14,219.371,350.846z"/>
							<path style="fill:#FFFFFF;" d="M48.044,411.878l34.804-53.726c2.555-3.945,10.886-7.038,18.618-7.038h296.12
								c7.732,0,16.063,3.094,18.618,7.038l34.804,53.726c4.68,7.224-0.473,13.491-11.731,13.491H59.775
								C48.516,425.368,43.364,419.101,48.044,411.878z"/>
						</g>
						<g>
							<path style="fill:#FFE49F;" d="M75.323,406.92l25.731-45.34c2.003-3.529,9.53-6.303,16.805-6.303h276.195
								c7.275,0,15.044,2.774,17.355,6.303l29.691,45.34c3.993,6.098-0.934,11.362-11.168,11.362H87.483
								C77.249,418.281,71.862,413.018,75.323,406.92z"/>
						</g>
						<g>
							
								<path style="fill:none;stroke:#01043D;stroke-width:0.4739;stroke-linecap:round;stroke-linejoin:round;stroke-miterlimit:10;" d="
								M72.234,406.92l25.731-45.34c2.003-3.529,9.53-6.303,16.805-6.303h276.195c7.275,0,15.044,2.774,17.355,6.303l29.691,45.34
								c3.993,6.098-0.934,11.362-11.168,11.362H84.395C74.16,418.281,68.773,413.018,72.234,406.92z"/>
						</g>
						<path style="fill:none;stroke:#072938;stroke-width:0.4977;stroke-miterlimit:10;" d="M71.297,391.319L82.4,372.779
							c0.085-0.143,1.547-0.259,3.248-0.259l0,0c1.701,0,3.027,0.116,2.946,0.259l-10.48,18.539
							c-0.098,0.173-1.714,0.315-3.591,0.315l0,0C72.645,391.633,71.193,391.491,71.297,391.319z"/>
						<g>
							<path style="fill:#FFFFFF;" d="M437.764,400.94L437.764,400.94c-3.807,0-8.055-1.934-9.414-4.251l-16.757-28.581
								c-0.991-1.69,0.801-3.049,3.966-3.049l0,0"/>
						</g>
						<g>
							<path style="fill:none;stroke:#072938;stroke-width:0.4977;stroke-miterlimit:10;" d="M50.88,411.007l33.378-52.35
								c2.472-3.876,10.613-6.919,18.191-6.919h294.355c7.579,0,15.724,3.043,18.2,6.919l33.443,52.35
								c4.467,6.992-0.609,13.049-11.542,13.049H62.438C51.505,424.056,46.421,418,50.88,411.007z"/>
							<g>
								<path style="fill:none;stroke:#072938;stroke-width:0.4977;stroke-miterlimit:10;" d="M436.543,399.929L436.543,399.929
									c-2.857,0-6.239-1.767-7.493-3.887l-15.657-26.471"/>
							</g>
						</g>
						<g>
							<g>
								<path style="fill:#072938;" d="M432.204,395.572c-0.914,0-1.926-0.452-2.258-1.006c-0.331-0.551,0.136-0.996,1.041-0.996
									c0.905,0,1.913,0.445,2.252,0.996C433.58,395.12,433.118,395.572,432.204,395.572z"/>
								<path style="fill:#072938;" d="M431.999,395.235c-0.608,0-1.281-0.3-1.504-0.669c-0.221-0.368,0.089-0.665,0.693-0.665
									c0.604,0,1.275,0.297,1.501,0.665C432.915,394.935,432.607,395.235,431.999,395.235z"/>
							</g>
							<path style="fill:#072938;" d="M425.852,386.613l-6.528-10.818c-0.137-0.227,0.087-0.413,0.498-0.413l0,0
								c0.411,0,0.86,0.185,0.999,0.413l6.615,10.818c0.156,0.255-0.073,0.464-0.51,0.464l0,0
								C426.489,387.077,426.006,386.868,425.852,386.613z"/>
						</g>
						<g>
							<polygon style="fill:#FFFFFF;" points="429.486,402.007 429.175,401.468 431.39,401.468 431.707,402.007 							"/>
							<polygon style="fill:#FFFFFF;" points="430.145,403.148 429.83,402.603 432.892,402.603 433.214,403.148 							"/>
							<polygon style="fill:#FFFFFF;" points="430.835,404.344 430.517,403.793 434.268,403.793 434.595,404.344 							"/>
							<polygon style="fill:#FFFFFF;" points="431.515,405.523 431.194,404.966 435.978,404.966 436.312,405.523 							"/>
						</g>
						<g>
							<path style="fill:none;stroke:#FFFFFF;stroke-width:0.0455;stroke-miterlimit:10;" d="M436.469,412.99l-1.746-3.01
								c-0.427-0.736,0.1-1.66,0.945-1.66l0,0c0.385,0,0.743,0.204,0.94,0.538l1.78,3.01c0.435,0.735-0.091,1.668-0.94,1.668h-0.034
								C437.024,413.537,436.665,413.328,436.469,412.99z"/>
							<path style="fill:#FFFFFF;" d="M437.611,413.21c-0.388,0-0.748-0.207-0.944-0.545l-2.385-4.102h1.15
								c0.386,0,0.743,0.205,0.941,0.54l2.422,4.107H437.611z"/>
							<path style="fill:#FFFFFF;" d="M438.803,413.816c0.098,0.166-0.027,0.302-0.276,0.302h-0.214
								c-0.25,0-0.533-0.136-0.629-0.302"/>
						</g>
					</g>
					<path style="fill:none;stroke:#072938;stroke-width:0.4977;stroke-miterlimit:10;" d="M453.804,417.793
						c0,0,2.325,15.611-14.461,17.343c-0.043,0.004-0.088,0.007-0.132,0.007H116.673"/>
				</g>
				
					<line style="fill:none;stroke:#072938;stroke-width:0.4977;stroke-miterlimit:10;" x1="105.354" y1="435.376" x2="67.794" y2="435.376"/>
				<path style="fill:none;stroke:#072938;stroke-width:0.4977;stroke-miterlimit:10;" d="M54.417,433.911
					c0,0-8.747-5.861-8.232-19.536"/>
			</g>
			
				<line style="fill:none;stroke:#072938;stroke-width:0.4977;stroke-miterlimit:10;" x1="134.785" y1="359.743" x2="114.192" y2="409.653"/>
			
				<line style="fill:none;stroke:#072938;stroke-width:0.4977;stroke-miterlimit:10;" x1="163.084" y1="359.743" x2="149.698" y2="409.653"/>
			
				<line style="fill:none;stroke:#072938;stroke-width:0.4977;stroke-miterlimit:10;" x1="196.012" y1="359.743" x2="189.834" y2="409.653"/>
			
				<line style="fill:none;stroke:#072938;stroke-width:0.4977;stroke-miterlimit:10;" x1="226.885" y1="359.743" x2="226.885" y2="409.653"/>
			
				<line style="fill:none;stroke:#072938;stroke-width:0.4977;stroke-miterlimit:10;" x1="259.814" y1="359.743" x2="265.992" y2="409.653"/>
			
				<line style="fill:none;stroke:#072938;stroke-width:0.4977;stroke-miterlimit:10;" x1="296.344" y1="359.743" x2="311.789" y2="409.653"/>
			
				<line style="fill:none;stroke:#072938;stroke-width:0.4977;stroke-miterlimit:10;" x1="331.845" y1="359.743" x2="353.468" y2="409.653"/>
			
				<line style="fill:none;stroke:#072938;stroke-width:0.4977;stroke-miterlimit:10;" x1="367.857" y1="359.743" x2="391.539" y2="409.653"/>
			<path style="fill:#FFE49F;" d="M349.986,382.415c0,3.607-53.032,6.531-118.45,6.531s-118.45-2.924-118.45-6.531
				c0-3.607,53.032-6.532,118.45-6.532S349.986,378.808,349.986,382.415z"/>
		</g>
		<g>
			<path style="fill:none;stroke:#072938;stroke-width:0.4977;stroke-miterlimit:10;" d="M84.307,358.77h-14.35
				c0,0-2.058,1.029-1.544,4.116l10.804,1.545"/>
			<g>
				<path style="fill:none;stroke:#072938;stroke-width:0.4977;stroke-miterlimit:10;" d="M178.493,59.684
					c1.245-0.225,2.538-0.323,3.863-0.274c10.392,0.385,17.267,9.454,23.951,16.312c9.465,9.711,21.06,14.003,34.568,15.462"/>
				<path style="fill:none;stroke:#072938;stroke-width:0.4977;stroke-miterlimit:10;" d="M165.554,69.781
					c0.482-1.172,1.125-2.294,1.905-3.339c1.397-1.87,3.234-3.494,5.379-4.709"/>
				<path style="fill:none;stroke:#072938;stroke-width:0.4977;stroke-miterlimit:10;" d="M158.486,142.266
					c0.336-1.716,0.665-3.435,0.99-5.157c1.165-6.172,2.277-12.374,3.484-18.568c2.756-14.137,5.65-38.644,24.668-39.713
					c3.57-0.201,9.223,1.299,8.982,5.867c-0.133,2.527-2.12,4.691-4.473,5.621c-6.476,2.56-16.515-0.658-21.734-4.712
					c-2.993-2.326-4.732-5.002-5.459-7.736"/>
				<path style="fill:none;stroke:#072938;stroke-width:0.4977;stroke-miterlimit:10;" d="M67.9,360.828
					c-17.848-15.241-28.91-41.445-22.667-64.735c4.293-16.013,12.894-30.54,24.122-42.665c12.017-12.977,27.59-19.956,40.443-31.526
					c10.908-9.819,13.07-29.969,5.118-42.331c-9.319-14.487-30.324-5.443-26.803,11.132c2.185,10.284,13.197,17.207,22.509,20.545
					c11.254,4.033,21.429-1.072,27.542-10.792c7.441-11.829,12.152-24.441,15.636-37.447c0.658-2.455,3.046-13.738,3.626-16.219"/>
			</g>
		</g>
	</g>
	<g>
		<path style="opacity:0.43;fill:#C4E5F2;" d="M190.461,267.645c45.809-19.931,92.578,3.576,137.63,13.517
			c17.945,3.959,37.671,9.541,55.884,2.11c16.438-6.706,30.848-20.46,39.644-36.762c14.227-26.367,13.169-59.528,2.65-87.128
			c-6.414-16.829-16.914-31.777-30.022-43.21c-24.202-21.11-54.763-32.175-85.259-36.647c-28.441-4.171-72.476-11.001-97.13,8.977
			c-26.451,21.434-53.785,25.751-86.457,27.175c-26.206,1.142-59.861,5.16-64.811,39.834c-3.076,21.547,7.809,31.626,23.058,42.328
			c13.439,9.432,27.686,17.521,42.504,24.128c10.533,4.697,25.391,15.485,27.791,28.863c0.922,5.138,1.436,10.531,3.925,15.024
			c2.547,4.596,7.124,7.815,12.051,8.477C178.848,275.264,184.369,270.296,190.461,267.645z"/>
		<g>
			<g>
				<g>
					<g>
						<path style="fill:none;stroke:#3F95E6;stroke-width:0.7718;stroke-miterlimit:10;" d="M116.957,96.215
							c7.364,0,13.485,5.282,14.806,12.261c3.422-0.934,7.234-0.065,9.922,2.623c1.316,1.316,2.189,2.903,2.637,4.581
							c2.209-0.937,4.858-0.513,6.659,1.288c1.315,1.315,1.873,3.081,1.728,4.799h-9.03"/>
					</g>
					<path style="fill:none;stroke:#3F95E6;stroke-width:0.7718;stroke-miterlimit:10;" d="M113.839,96.196
						c0,0-3.185,0.335-4.526,1.676"/>
					<path style="fill:none;stroke:#3F95E6;stroke-width:0.7718;stroke-miterlimit:10;" d="M140.661,121.677h-9.388h-51.08
						c0,0,1.167-6.784,7.818-6.185"/>
					<path style="fill:none;stroke:#3F95E6;stroke-width:0.7718;stroke-miterlimit:10;" d="M135.632,110.613
						c0,0,3.688,0.335,5.029,2.682"/>
				</g>
				<path style="fill:none;stroke:#3F95E6;stroke-width:0.7718;stroke-miterlimit:10;" d="M104.048,106.882
					c0,0-6.641-1.082-10.757,2.348"/>
			</g>
			<g>
				<g>
					<g>
						<path style="fill:none;stroke:#3F95E6;stroke-width:0.7718;stroke-miterlimit:10;" d="M153.384,213.844
							c5.786,0,10.596,4.15,11.633,9.634c2.689-0.734,5.684-0.051,7.796,2.061c1.034,1.034,1.72,2.281,2.072,3.599
							c1.736-0.736,3.817-0.403,5.232,1.012c1.033,1.033,1.472,2.421,1.358,3.771h-7.095"/>
					</g>
					<path style="fill:none;stroke:#3F95E6;stroke-width:0.7718;stroke-miterlimit:10;" d="M150.934,213.829
						c0,0-2.503,0.264-3.556,1.317"/>
					<path style="fill:none;stroke:#3F95E6;stroke-width:0.7718;stroke-miterlimit:10;" d="M172.009,233.85h-7.376h-40.135
						c0,0,0.917-5.33,6.143-4.86"/>
					<path style="fill:none;stroke:#3F95E6;stroke-width:0.7718;stroke-miterlimit:10;" d="M168.058,225.157
						c0,0,2.898,0.263,3.951,2.107"/>
				</g>
				<path style="fill:none;stroke:#3F95E6;stroke-width:0.7718;stroke-miterlimit:10;" d="M143.241,222.226
					c0,0-5.218-0.851-8.452,1.845"/>
			</g>
			<g>
				<g>
					<g>
						<path style="fill:none;stroke:#3F95E6;stroke-width:0.7718;stroke-miterlimit:10;" d="M391.721,136.359
							c10.939,0,20.033,7.846,21.995,18.215c5.084-1.387,10.747-0.096,14.74,3.897c1.955,1.955,3.251,4.313,3.917,6.805
							c3.282-1.392,7.217-0.762,9.893,1.913c1.953,1.953,2.782,4.577,2.568,7.13h-13.415"/>
					</g>
					<path style="fill:none;stroke:#3F95E6;stroke-width:0.7718;stroke-miterlimit:10;" d="M387.088,136.331
						c0,0-4.731,0.498-6.724,2.49"/>
					<path style="fill:none;stroke:#3F95E6;stroke-width:0.7718;stroke-miterlimit:10;" d="M426.935,174.185h-13.946h-75.882
						c0,0,1.734-10.078,11.614-9.189"/>
					<path style="fill:none;stroke:#3F95E6;stroke-width:0.7718;stroke-miterlimit:10;" d="M419.464,157.749
						c0,0,5.479,0.498,7.471,3.985"/>
				</g>
				<path style="fill:none;stroke:#3F95E6;stroke-width:0.7718;stroke-miterlimit:10;" d="M372.543,152.207
					c0,0-9.866-1.608-15.981,3.488"/>
			</g>
			<g>
				<rect x="96.154" y="140.367" style="fill:#FFF1C9;" width="4.028" height="15.544"/>
				<rect x="104.066" y="140.367" style="fill:#FFF1C9;" width="4.029" height="15.544"/>
				<polygon style="fill:#FFF1C9;" points="136.979,140.367 136.979,147.563 124.891,141.069 124.891,155.21 136.979,148.715 
					136.979,155.911 141.007,155.911 141.007,140.367 				"/>
				<polygon style="fill:#FFF1C9;" points="67.815,140.367 63.786,140.367 63.786,155.911 67.815,155.911 67.815,148.715 
					79.903,155.21 79.903,141.069 67.815,147.563 				"/>
			</g>
			<g>
				
					<rect x="94.094" y="139.337" style="fill:none;stroke:#4B5077;stroke-width:0.7718;stroke-miterlimit:10;" width="4.028" height="15.544"/>
				
					<rect x="102.006" y="139.337" style="fill:none;stroke:#4B5077;stroke-width:0.7718;stroke-miterlimit:10;" width="4.029" height="15.544"/>
				<polygon style="fill:none;stroke:#4B5077;stroke-width:0.7718;stroke-miterlimit:10;" points="134.92,139.337 134.92,146.534 
					122.832,140.04 122.832,154.18 134.92,147.685 134.92,154.882 138.948,154.882 138.948,139.337 				"/>
				<polygon style="fill:none;stroke:#4B5077;stroke-width:0.7718;stroke-miterlimit:10;" points="65.755,139.337 61.727,139.337 
					61.727,154.882 65.755,154.882 65.755,147.685 77.844,154.18 77.844,140.04 65.755,146.534 				"/>
			</g>
		</g>
		<g>
			<g>
				<path style="fill:#FF5464;" d="M349.982,253.029h-3.668v-11.003h3.668V253.029z M357.318,242.026h-7.336v-3.668h7.336V242.026z
					 M357.318,256.697h-7.336v-3.668h7.336V256.697z M360.986,253.029h-3.668v-11.003h3.668V253.029z"/>
				<path style="fill:#FF5464;" d="M382.992,238.358v3.668h-11.004v3.668h7.336v3.667H368.32v-11.003H382.992z M379.324,253.029
					H368.32v3.668h11.004V253.029z M379.324,253.029h3.668v-3.668h-3.668V253.029z"/>
				<path style="fill:#FF5464;" d="M386.658,242.026h3.668v3.668h-3.668V242.026z M386.658,249.361h3.668v3.668h-3.668V249.361z"/>
				<path style="fill:#FF5464;" d="M408.663,242.026h-11.003v-3.668h11.003V242.026z M408.663,256.697h-11.003v-3.668h11.003
					V256.697z M401.328,245.694h7.335v3.667h-7.335V245.694z M408.663,242.026h3.668v3.668h-3.668V242.026z M408.663,249.361h3.668
					v3.668h-3.668V249.361z"/>
				<path style="fill:#FF5464;" d="M430.669,242.026h-11.003v-3.668h11.003V242.026z M419.666,256.697v-7.336h3.668v3.668h11.003
					v3.668H419.666z M423.334,245.694h7.335v3.667h-7.335V245.694z M430.669,242.026h3.668v3.668h-3.668V242.026z"/>
			</g>
			<g>
				<path style="fill:#FFC832;" d="M328.294,234.561v-4.363h3.8c0.787,0,1.425-0.638,1.425-1.425c0-0.787-0.638-1.425-1.425-1.425
					h-10.449c-0.787,0-1.425,0.638-1.425,1.425c0,0.787,0.638,1.425,1.425,1.425h3.8v4.363c-6.139,0.71-10.924,5.933-10.924,12.26
					c0,6.809,5.54,12.349,12.348,12.349s12.348-5.54,12.348-12.349C339.217,240.494,334.433,235.27,328.294,234.561z
					 M326.869,256.319c-5.238,0-9.499-4.261-9.499-9.499s4.261-9.499,9.499-9.499s9.499,4.261,9.499,9.499
					S332.107,256.319,326.869,256.319z"/>
				<path style="fill:#FFC832;" d="M331.143,245.395h-4.274c-0.787,0-1.425,0.638-1.425,1.425c0,0.787,0.638,1.425,1.425,1.425
					h4.274c0.787,0,1.425-0.638,1.425-1.425C332.568,246.033,331.93,245.395,331.143,245.395z"/>
			</g>
			<g>
				<g>
					
						<path style="fill:none;stroke:#01043D;stroke-width:0.4726;stroke-linecap:round;stroke-linejoin:round;stroke-miterlimit:10;" d="
						M329.323,234.561v-4.363h3.8c0.787,0,1.425-0.638,1.425-1.425c0-0.787-0.638-1.425-1.425-1.425h-10.449
						c-0.787,0-1.425,0.638-1.425,1.425c0,0.787,0.638,1.425,1.425,1.425h3.8v4.363c-6.139,0.71-10.924,5.933-10.924,12.26
						c0,6.809,5.54,12.349,12.349,12.349s12.348-5.54,12.348-12.349C340.247,240.494,335.463,235.27,329.323,234.561z
						 M327.899,256.319c-5.238,0-9.499-4.261-9.499-9.499s4.261-9.499,9.499-9.499c5.238,0,9.499,4.261,9.499,9.499
						S333.136,256.319,327.899,256.319z"/>
					
						<path style="fill:none;stroke:#01043D;stroke-width:0.4726;stroke-linecap:round;stroke-linejoin:round;stroke-miterlimit:10;" d="
						M332.173,245.395h-4.274c-0.787,0-1.425,0.638-1.425,1.425c0,0.787,0.638,1.425,1.425,1.425h4.274
						c0.787,0,1.425-0.638,1.425-1.425C333.598,246.033,332.96,245.395,332.173,245.395z"/>
				</g>
			</g>
			<g>
				
					<path style="fill:none;stroke:#01043D;stroke-width:0.4726;stroke-linecap:round;stroke-linejoin:round;stroke-miterlimit:10;" d="
					M352.043,251.999h-3.668v-11.002h3.668V251.999z M359.377,240.997h-7.335v-3.668h7.335V240.997z M359.377,255.667h-7.335v-3.668
					h7.335V255.667z M363.045,251.999h-3.668v-11.002h3.668V251.999z"/>
				
					<path style="fill:none;stroke:#01043D;stroke-width:0.4726;stroke-linecap:round;stroke-linejoin:round;stroke-miterlimit:10;" d="
					M385.051,237.329v3.668h-11.003v3.667h7.335v3.667H370.38v-11.002H385.051z M381.383,251.999H370.38v3.668h11.003V251.999z
					 M381.383,251.999h3.668v-3.668h-3.668V251.999z"/>
				
					<path style="fill:none;stroke:#01043D;stroke-width:0.4726;stroke-linecap:round;stroke-linejoin:round;stroke-miterlimit:10;" d="
					M388.718,240.997h3.667v3.667h-3.667V240.997z M388.718,248.331h3.667v3.668h-3.667V248.331z"/>
				
					<path style="fill:none;stroke:#01043D;stroke-width:0.4726;stroke-linecap:round;stroke-linejoin:round;stroke-miterlimit:10;" d="
					M410.722,240.997H399.72v-3.668h11.003V240.997z M410.722,255.667H399.72v-3.668h11.003V255.667z M403.388,244.664h7.335v3.667
					h-7.335V244.664z M410.722,240.997h3.668v3.667h-3.668V240.997z M410.722,248.331h3.668v3.668h-3.668V248.331z"/>
				
					<path style="fill:none;stroke:#01043D;stroke-width:0.4726;stroke-linecap:round;stroke-linejoin:round;stroke-miterlimit:10;" d="
					M432.728,240.997h-11.003v-3.668h11.003V240.997z M421.725,255.667v-7.336h3.668v3.668h11.003v3.668H421.725z M425.393,244.664
					h7.335v3.667h-7.335V244.664z M432.728,240.997h3.668v3.667h-3.668V240.997z"/>
			</g>
		</g>
		<g>
			<path style="fill:#4B5077;" d="M314.209,149.785c0.368-1.378,0.409-2.977-0.012-4.836c-1.748-7.708-9.747-12.489-17.829-10.656
				c-8.083,1.833-13.236,9.596-11.488,17.304c0.422,1.859,1.149,3.284,2.075,4.368c-3.355,4.51-4.82,10.266-3.514,16.024
				c2.44,10.759,12.107,10.986,23.387,8.427c11.281-2.558,19.904-6.933,17.465-17.691
				C322.986,156.967,319.182,152.407,314.209,149.785z M288.724,150.725c-1.29-5.687,2.512-11.413,8.475-12.766
				c5.963-1.352,11.863,2.174,13.153,7.861c0.196,0.863,0.272,1.679,0.181,2.453c-3.458-1.052-7.258-1.265-11.085-0.397
				c-3.827,0.868-7.163,2.699-9.829,5.14C289.203,152.357,288.92,151.588,288.724,150.725z"/>
			<g>
				<path style="fill:#DCD7F6;" d="M324.292,162.725c-1.306-5.758-5.11-10.318-10.083-12.94c0.368-1.378,0.409-2.977-0.012-4.836
					c-1.748-7.708-9.747-12.489-17.829-10.656c-2.713,0.615-5.084,1.909-6.987,3.634c1.552-1.046,3.324-1.839,5.271-2.281
					c8.083-1.833,16.081,2.947,17.829,10.656c0.422,1.859,0.381,3.458,0.013,4.836c4.972,2.622,8.777,7.183,10.082,12.94
					c1.176,5.184-0.234,8.876-3.256,11.607C323.505,172.858,325.673,168.816,324.292,162.725z"/>
				<path style="fill:#9CC5E8;" d="M289.619,153.017c0.144-0.132,0.298-0.255,0.446-0.383c-0.159,0.112-0.31,0.232-0.466,0.348
					C289.607,152.993,289.612,153.005,289.619,153.017z"/>
			</g>
			
				<path style="fill:none;stroke:#01043D;stroke-width:0.4342;stroke-linecap:round;stroke-linejoin:round;stroke-miterlimit:10;" d="
				M315.429,148.479c0.368-1.378,0.409-2.977-0.013-4.836c-1.748-7.709-9.747-12.489-17.829-10.656
				c-8.083,1.833-13.236,9.596-11.488,17.304c0.422,1.859,1.149,3.284,2.075,4.368c-3.355,4.511-4.82,10.266-3.514,16.024
				c2.44,10.759,12.107,10.986,23.387,8.427c11.281-2.558,19.904-6.933,17.465-17.692
				C324.206,155.662,320.401,151.102,315.429,148.479z M289.944,149.42c-1.29-5.687,2.512-11.413,8.475-12.766
				c5.962-1.352,11.863,2.174,13.152,7.861c0.196,0.863,0.272,1.679,0.181,2.453c-3.458-1.052-7.258-1.265-11.085-0.397
				s-7.163,2.699-9.829,5.14C290.423,151.052,290.139,150.283,289.944,149.42z"/>
			
				<text transform="matrix(1.0226 -0.2319 0.2212 0.9752 296.438 168.8608)" style="fill:#F4EFFF; font-family:'IntroHeadR-Base'; font-size:11.8399px; letter-spacing:0.954;">5Kg</text>
		</g>
		<g>
			
				<text transform="matrix(0.9886 -0.1508 0.1508 0.9886 173.3347 134.2939)" style="fill:#FFC832; font-family:'IntroHeadR-Base'; font-size:41.5321px; letter-spacing:4;">GO!</text>
			
				<text transform="matrix(0.9886 -0.1508 0.1508 0.9886 174.3528 134.1387)" style="fill:none;stroke:#01043D;stroke-width:0.4726;stroke-linecap:round;stroke-linejoin:round;stroke-miterlimit:10; font-family:'IntroHeadR-Base'; font-size:41.5321px; letter-spacing:4;">GO!</text>
		</g>
	</g>
	<g>
		<g>
			<path style="fill:#FBC2A8;" d="M324.775,194.73c0.344-0.551,2.514-5.228,2.597-5.446c0.083-0.218,4.833-3.676,5.193-4.054
				c0,0,1.279-0.56,1.793-0.513c0,0,2.542-1.341,2.643-0.82c0,0,0.69,1.678-0.307,2.545c0,0-1.919,1.712-2.807,1.772l-1.622,1.676
				c0,0,9.067-2.632,10.236-1.794c0,0,1.889,2.087,1.841,3.216c0,0-0.456,0.78-0.805,1.257l0.774,0.304c0,0,0.622,1.245,0.137,2.232
				c0,0-1.144,0.919-2.044,1.554l-0.459,0.482c0,0,1.173,1.313-0.122,2.815c0,0-0.225,0.104-0.595,0.261l0.127,0.326l0.285,0.242
				c0,0,0.157,1.679-0.447,1.981l-1.85,0.313c0,0-0.854,0.783-1.679,0.911c-0.826,0.128-3.547,0.863-4.252,1.259
				c-0.706,0.396-0.706,0.396-0.706,0.396s-2.948,1.295-5.485,0.364l-2.169,0.288c0,0-0.593,0.843-2.036-2.171
				c-1.444-3.014-0.821-7.169-0.62-7.258c0.201-0.09,1.362-0.777,1.362-0.777L324.775,194.73z"/>
		</g>
		<g>
			<g>
				<path style="fill:#FBC2A8;" d="M324.775,194.73c0.344-0.551,2.514-5.228,2.597-5.446c0.083-0.218,4.833-3.676,5.193-4.054
					c0,0,1.279-0.56,1.793-0.513c0,0,2.542-1.341,2.643-0.82c0,0,0.69,1.678-0.307,2.545c0,0-1.919,1.712-2.807,1.772l-1.622,1.676
					c0,0,9.067-2.632,10.236-1.794c0,0,1.889,2.087,1.841,3.216c0,0-0.456,0.78-0.805,1.257l0.774,0.304
					c0,0,0.622,1.245,0.137,2.232c0,0-1.144,0.919-2.044,1.554l-0.459,0.482c0,0,1.173,1.313-0.122,2.815
					c0,0-0.225,0.104-0.595,0.261l0.127,0.326l0.285,0.242c0,0,0.157,1.679-0.447,1.981l-1.85,0.313c0,0-0.854,0.783-1.679,0.911
					c-0.826,0.128-3.547,0.863-4.252,1.259c-0.706,0.396-0.706,0.396-0.706,0.396s-2.948,0.266-5.485-0.666l-2.169,1.318
					c0,0-0.593,0.843-2.036-2.171c-1.444-3.014-0.821-7.169-0.62-7.258c0.201-0.09,1.362-0.777,1.362-0.777L324.775,194.73z"/>
			</g>
			
				<path style="fill:none;stroke:#01043D;stroke-width:0.4103;stroke-linecap:round;stroke-linejoin:round;stroke-miterlimit:10;" d="
				M324.775,194.73c0.344-0.551,2.514-5.228,2.597-5.446c0.083-0.218,4.833-3.676,5.193-4.054c0,0,1.279-0.56,1.793-0.513
				c0,0,2.344-1.3,2.656-1.115c0,0,0.203,0.427-2.071,1.238"/>
			
				<path style="fill:none;stroke:#01043D;stroke-width:0.4103;stroke-linecap:round;stroke-linejoin:round;stroke-miterlimit:10;" d="
				M337.002,183.896c0,0,0.69,1.678-0.307,2.545c0,0-2.427,2.084-3.394,1.698"/>
			
				<path style="fill:none;stroke:#01043D;stroke-width:0.4103;stroke-linecap:round;stroke-linejoin:round;stroke-miterlimit:10;" d="
				M334.466,187.919c0,0-1.432,0.7-2.465,2.402"/>
			
				<path style="fill:none;stroke:#01043D;stroke-width:0.4103;stroke-linecap:round;stroke-linejoin:round;stroke-miterlimit:10;" d="
				M332.265,189.889c0,0,9.067-2.632,10.236-1.794c0,0,1.889,2.087,1.841,3.216c0,0-0.456,0.78-0.805,1.257
				c0,0-0.904,1.174-0.895,1.355c0.009,0.181-0.771,0.77-1.719,0.319c0,0-1.062-1.227-0.709-2.556c0,0,0.388-0.639,0.707-0.806"/>
			
				<path style="fill:none;stroke:#01043D;stroke-width:0.4103;stroke-linecap:round;stroke-linejoin:round;stroke-miterlimit:10;" d="
				M341.18,190.956c0,0-0.389-0.492-0.505-0.825"/>
			
				<path style="fill:none;stroke:#01043D;stroke-width:0.4103;stroke-linecap:round;stroke-linejoin:round;stroke-miterlimit:10;" d="
				M342.319,193.81c0,0-0.585-0.878-0.631-1.339c0,0,0.038-0.507,0.139-0.568"/>
			
				<path style="fill:none;stroke:#01043D;stroke-width:0.4103;stroke-linecap:round;stroke-linejoin:round;stroke-miterlimit:10;" d="
				M343.537,192.567c0,0,0.54,0.023,0.774,0.304c0,0,0.622,1.245,0.137,2.232c0,0-2.553,2.05-3.032,2.144
				c0,0-2.388,0.618-2.805,0.78c-0.417,0.162-1.777,0.907-2.244-0.425c0,0-0.245-1.535,1.24-2.111c0,0,1.335-0.532,1.762-0.924"/>
			
				<path style="fill:none;stroke:#01043D;stroke-width:0.4103;stroke-linecap:round;stroke-linejoin:round;stroke-miterlimit:10;" d="
				M337.986,196.18c0,0-0.71,0.494-0.764,0.606s-0.095,0.685,0.164,1.139"/>
			
				<path style="fill:none;stroke:#01043D;stroke-width:0.4103;stroke-linecap:round;stroke-linejoin:round;stroke-miterlimit:10;" d="
				M341.945,197.139c0,0,1.173,1.313-0.122,2.815c0,0-0.225,0.104-0.595,0.261c-1.024,0.433-3.162,1.27-4.758,1.442
				c0,0-1.17,0.13-1.321,0.205c-0.151,0.076-1.509,0.377-1.46-1.113c0,0,0.226-1.056,1.285-1.273c0,0,0.822-0.44,1.103-0.854"/>
			
				<path style="fill:none;stroke:#01043D;stroke-width:0.4103;stroke-linecap:round;stroke-linejoin:round;stroke-miterlimit:10;" d="
				M334.881,201.604c0,0-0.8-0.838-0.174-1.286"/>
			
				<path style="fill:none;stroke:#01043D;stroke-width:0.4103;stroke-linecap:round;stroke-linejoin:round;stroke-miterlimit:10;" d="
				M339.343,203.076c0,0-0.854,0.783-1.679,0.911c-0.826,0.128-3.547,0.863-4.252,1.259c-0.706,0.396-0.706,0.396-0.706,0.396
				s-5.242,0.821-7.929-1.493"/>
			
				<path style="fill:none;stroke:#01043D;stroke-width:0.4103;stroke-linecap:round;stroke-linejoin:round;stroke-miterlimit:10;" d="
				M324.347,195.703c0,0-1.358,1.056-1.688,1.107"/>
			
				<line style="fill:none;stroke:#01043D;stroke-width:0.4103;stroke-linecap:round;stroke-linejoin:round;stroke-miterlimit:10;" x1="327.081" y1="206.021" x2="325.507" y2="206.367"/>
			
				<path style="fill:none;stroke:#01043D;stroke-width:0.4103;stroke-linecap:round;stroke-linejoin:round;stroke-miterlimit:10;" d="
				M333.473,199.28c0,0-1.093,1.002-0.478,1.947"/>
			
				<path style="fill:none;stroke:#01043D;stroke-width:0.4103;stroke-linecap:round;stroke-linejoin:round;stroke-miterlimit:10;" d="
				M336.672,195.09c0,0-1.343,0.729-0.865,1.799"/>
			
				<path style="fill:none;stroke:#01043D;stroke-width:0.4103;stroke-linecap:round;stroke-linejoin:round;stroke-miterlimit:10;" d="
				M336.367,194.568c0,0-0.482,0.348-0.538,0.493"/>
			<g>
				
					<path style="fill:none;stroke:#01043D;stroke-width:0.4103;stroke-linecap:round;stroke-linejoin:round;stroke-miterlimit:10;" d="
					M341.568,200.669l0.285,0.242c0,0,0.157,1.679-0.447,1.981c0,0-3,0.362-3.78,0.197c0,0-2.365-0.66-2.264-1.099"/>
				
					<path style="fill:none;stroke:#01043D;stroke-width:0.4103;stroke-linecap:round;stroke-linejoin:round;stroke-miterlimit:10;" d="
					M336.33,201.196c0,0-0.054-0.265-0.179-0.401"/>
				
					<line style="fill:none;stroke:#01043D;stroke-width:0.4103;stroke-linecap:round;stroke-linejoin:round;stroke-miterlimit:10;" x1="341.806" y1="196.678" x2="341.729" y2="196.183"/>
			</g>
		</g>
		<path style="fill:#F4581B;" d="M240.775,93.277c0,0,0-3.773-2.401-4.802C238.374,88.475,240.775,91.563,240.775,93.277z"/>
		<path style="fill:#F4581B;" d="M243.286,94.666c0,0-5.315-3.581-9.044-1.175C234.242,93.491,240.87,93.038,243.286,94.666z"/>
		<g>
			<g>
				<path style="fill:#C7E3F9;" d="M127.791,290.294l-5.331-2.867c0,0-7.627,4.699-2.357,13.147l5.733-3.44L127.791,290.294z"/>
				<path style="fill:#FFFFFF;" d="M122.993,287.189c0,0-1.701-0.751-2.806,6.344c0,0-1.718,3.609,0.987,5.342
					c0,0-3.46,5.849-6.27,7.523c-2.81,1.675-9.21,10.033-9.21,10.033s-3.898,3.207-6.562-1.516c0,0-2.139-6.309,2.263-14.231
					c0,0,6.284-9.056,7.567-11.84c1.283-2.784,3.913-7.615,6.333-6.785C115.295,282.06,123.034,284.199,122.993,287.189z"/>
				<path style="fill:#E45A3F;" d="M120.243,300.348c0.574-0.87,0.931-1.472,0.931-1.472c-2.704-1.733-0.987-5.342-0.987-5.342
					c1.105-7.095,2.806-6.344,2.806-6.344c0.006-0.451-0.18-0.879-0.474-1.287C118.669,289.883,115.302,296.296,120.243,300.348z"/>
				<path style="fill:#E45A3F;" d="M105.694,316.432c0,0,0.709-0.925,1.75-2.212c0.498-3.701-1.329-4.101-3.894-7.292
					c-1.338-1.664-2.433-1.651-1.167-3.695c2.243-3.618,4.599-10.328,7.442-13.419c2.098-2.28,4.351-5.053,5.611-7.715
					c-0.086-0.025-0.141-0.041-0.141-0.041c-2.42-0.829-5.05,4.001-6.333,6.785c-1.283,2.784-7.567,11.84-7.567,11.84
					c-4.402,7.922-2.263,14.231-2.263,14.231C101.795,319.639,105.694,316.432,105.694,316.432z"/>
				
					<path style="fill:none;stroke:#01043D;stroke-width:0.4044;stroke-linecap:round;stroke-linejoin:round;stroke-miterlimit:10;" d="
					M99.132,314.916c3.402,5.091,8.437-0.69,8.437-0.69c1.875-2.205,7.335-7.828,7.335-7.828c3.019-2.187,6.067-5.895,6.067-5.895
					c-3.901-7.279,2.022-13.315,2.022-13.315"/>
				
					<path style="fill:none;stroke:#01043D;stroke-width:0.4044;stroke-linecap:round;stroke-linejoin:round;stroke-miterlimit:10;" d="
					M107.074,314.603c0,0,1.574-3.874-5.212-9.252"/>
				
					<path style="fill:none;stroke:#01043D;stroke-width:0.4044;stroke-linecap:round;stroke-linejoin:round;stroke-miterlimit:10;" d="
					M100.62,316.352c-2.336-5.71,1.763-13.118,1.763-13.118l8.56-14.827l4.352-6.348l-2.403-0.63l-3.931,7.415l-8.024,11.942
					c0,0-4.22,6.663-2.505,12.451"/>
				
					<path style="fill:none;stroke:#01043D;stroke-width:0.3702;stroke-linecap:round;stroke-linejoin:round;stroke-miterlimit:10;" d="
					M113.142,309.985c0,0,1.555-2.113-0.717-3.538"/>
				
					<path style="fill:none;stroke:#01043D;stroke-width:0.3702;stroke-linecap:round;stroke-linejoin:round;stroke-miterlimit:10;" d="
					M115.226,308.057c0,0,1.555-2.113-0.717-3.538"/>
				
					<path style="fill:none;stroke:#01043D;stroke-width:0.434;stroke-linecap:round;stroke-linejoin:round;stroke-miterlimit:10;" d="
					M117.278,282.885l4.233,2.901c0,0-4.439,2.898-3.915,11.054"/>
			</g>
			<path style="fill:#3F95E6;" d="M243.63,216.322c3.783,3.567,6.413,8.434,6.967,14.386c0.485,5.219-0.957,12.241-4.772,16.064
				c-4.148,4.156-2.357,1.102-5.694,6.26c-31.321,48.416-45.724,48.76-45.724,48.76c-13.068,0.492-65.873-2.058-65.873-2.058
				c-4.052,3.903-5.867,1.453-5.867,1.453l1.708-11.683c1.776-8.301,6.03-1.444,6.03-1.444l46.624-9.528l8.973,0.746
				c6.073,1.153,6.256-2.209,6.256-2.209s17.922-45.079,17.977-45.217c2.121-5.335,3.287-10.342,7.316-14.78
				C227.034,206.626,234.246,207.475,243.63,216.322z"/>
			
				<linearGradient id="SVGID_1_" gradientUnits="userSpaceOnUse" x1="115.4923" y1="288.5634" x2="252.8121" y2="288.5634" gradientTransform="matrix(0.957 -0.2902 0.2902 0.957 -70.9636 39.8495)">
				<stop  offset="0" style="stop-color:#0098F3;stop-opacity:0"/>
				<stop  offset="1" style="stop-color:#0098F3"/>
			</linearGradient>
			<path style="fill:url(#SVGID_1_);" d="M243.63,216.322c-9.384-8.848-16.595-9.696-26.079,0.752
				c-4.029,4.439-5.195,9.445-7.316,14.78c-0.005,0.011-0.134,0.337-0.364,0.915c3.449,10.708,2.095,22.293-3.076,32.475
				c-1.963,3.866-4.266,7.614-6.735,11.172c-2.387,3.441-5.094,7.196-8.664,9.501c-3.425,2.211-7.733,2.406-11.688,2.347
				c-5.471-0.083-10.955-1.06-16.429-0.708c-5.771,0.371-13.195,0.164-19.436-1.825l-14.331,3.108l-0.978,10.897
				c0,0,52.805,2.549,65.873,2.058c0,0,14.403-0.344,45.724-48.76c3.337-5.158,1.546-2.104,5.694-6.26
				c3.816-3.823,5.258-10.845,4.772-16.064C250.043,224.757,247.413,219.889,243.63,216.322z"/>
			<path style="fill:#106299;" d="M129.467,299.779c-0.181-4.162-0.166-8.335,0.429-12.431c-1.181-1.511-4.121-4.389-5.522,2.157
				l-1.708,11.683c0,0,1.815,2.449,5.867-1.453C128.533,299.734,128.86,299.75,129.467,299.779z"/>
			
				<path style="fill:none;stroke:#01043D;stroke-width:0.472;stroke-linecap:round;stroke-linejoin:round;stroke-miterlimit:10;" d="
				M240.68,251.773c0,0-21.907,33.409-35.499,43.701"/>
			
				<path style="fill:none;stroke:#01043D;stroke-width:0.472;stroke-linecap:round;stroke-linejoin:round;stroke-miterlimit:10;" d="
				M202.002,297.89c0,0-5.184,5.195-14.081,3.945l-57.167-2.37"/>
			
				<path style="fill:none;stroke:#01043D;stroke-width:0.472;stroke-linecap:round;stroke-linejoin:round;stroke-miterlimit:10;" d="
				M130.405,288.061l41.832-8.861c0,0,4.751-0.731,7.1-0.005l9.024,0.489"/>
			
				<line style="fill:none;stroke:#01043D;stroke-width:0.472;stroke-linecap:round;stroke-linejoin:round;stroke-miterlimit:10;" x1="210.234" y1="231.854" x2="196.532" y2="266.718"/>
			
				<line style="fill:none;stroke:#01043D;stroke-width:0.472;stroke-linecap:round;stroke-linejoin:round;stroke-miterlimit:10;" x1="194.5" y1="270.587" x2="192.667" y2="275.118"/>
			
				<path style="fill:none;stroke:#01043D;stroke-width:0.472;stroke-linecap:round;stroke-linejoin:round;stroke-miterlimit:10;" d="
				M128.533,299.734c0,0-4.374,3.766-5.867,1.453l1.708-11.683c0,0,0.27-6.219,4.227-3.098c0,0,1.888-0.216,0.787,7.339
				l-0.094,3.819"/>
			
				<path style="fill:none;stroke:#01043D;stroke-width:0.472;stroke-linecap:round;stroke-linejoin:round;stroke-miterlimit:10;" d="
				M125.337,287.947c0,0,2.452-1.291,3.536,0.543"/>
			
				<path style="fill:none;stroke:#01043D;stroke-width:0.472;stroke-linecap:round;stroke-linejoin:round;stroke-miterlimit:10;" d="
				M125.233,289.964c0,0,1.915-1.307,3.798,0.824"/>
			
				<path style="fill:none;stroke:#01043D;stroke-width:0.472;stroke-linecap:round;stroke-linejoin:round;stroke-miterlimit:10;" d="
				M124.642,292.13c0,0,2.385,1.436,4.173,0.89"/>
			
				<path style="fill:none;stroke:#01043D;stroke-width:0.472;stroke-linecap:round;stroke-linejoin:round;stroke-miterlimit:10;" d="
				M124.611,295.569c0,0,0.759,1.934,3.898,1.154"/>
			
				<path style="fill:none;stroke:#01043D;stroke-width:0.472;stroke-linecap:round;stroke-linejoin:round;stroke-miterlimit:10;" d="
				M123.618,298.76c0,0,0.533,2.364,3.473,0.923"/>
			
				<line style="fill:none;stroke:#01043D;stroke-width:0.3702;stroke-linecap:round;stroke-linejoin:round;stroke-miterlimit:10;" x1="124.192" y1="288.568" x2="122.461" y2="287.428"/>
			
				<line style="fill:none;stroke:#01043D;stroke-width:0.3702;stroke-linecap:round;stroke-linejoin:round;stroke-miterlimit:10;" x1="122.656" y1="298.513" x2="121.174" y2="298.876"/>
		</g>
		<g>
			<path style="fill:#C7E3F9;" d="M283.449,366.117l0.439,6.058c0,0,8.057,4.053,12.362-4.88l-5.978-3.095L283.449,366.117z"/>
			<path style="fill:#FFFFFF;" d="M283.401,371.845c0,0,0.278,1.848,6.86-0.929c0,0,3.968-0.425,3.98-3.645
				c0,0,6.792-0.111,9.713,1.412c2.921,1.523,13.408,2.608,13.408,2.608s4.798,1.649,2.239,6.402c0,0-4.856,4.882-13.903,5.275
				c0,0-11.014-0.62-14.052-0.256c-3.038,0.364-7.848,0.904-8.446-1.599C283.2,381.113,280.855,373.378,283.401,371.845z"/>
			<path style="fill:#E45A3F;" d="M295.984,367.295c-1.042-0.034-1.742-0.024-1.742-0.024c-0.012,3.22-3.98,3.645-3.98,3.645
				c-6.582,2.777-6.86,0.929-6.86,0.929c-0.384,0.231-0.646,0.615-0.832,1.08C287.994,374.128,295.213,373.641,295.984,367.295z"/>
			<path style="fill:#E45A3F;" d="M317.362,371.292c0,0-1.161-0.121-2.806-0.336c-3.391,1.516-2.749,3.286-4.066,7.151
				c-0.687,2.015-0.767,2.691-3.17,2.681c-4.256-0.019-11.184,1.487-15.318,0.678c-3.05-0.597-5.921-0.814-8.844-0.495
				c0.025,0.087,0.042,0.142,0.042,0.142c0.598,2.503,5.408,1.962,8.446,1.599c3.038-0.364,14.052,0.256,14.052,0.256
				c9.047-0.393,13.903-5.275,13.903-5.275C322.16,372.941,317.362,371.292,317.362,371.292z"/>
			
				<path style="fill:none;stroke:#01043D;stroke-width:0.4726;stroke-linecap:round;stroke-linejoin:round;stroke-miterlimit:10;" d="
				M319.602,377.694c2.473-5.577-5.107-6.848-5.107-6.848c-2.867-0.446-10.54-2.162-10.54-2.162
				c-3.465-1.433-8.229-2.093-8.229-2.093c-4.052,7.15-12.324,5.255-12.324,5.255l-0.093-2.616
				c-4.202-0.343-2.775-5.999-2.775-5.999l12.981-3.765"/>
			
				<path style="fill:none;stroke:#01043D;stroke-width:0.4049;stroke-linecap:round;stroke-linejoin:round;stroke-miterlimit:10;" d="
				M315.078,371.072c0,0-4.114,0.687-5.015,9.305"/>
			
				<path style="fill:none;stroke:#01043D;stroke-width:0.4049;stroke-linecap:round;stroke-linejoin:round;stroke-miterlimit:10;" d="
				M320.016,375.669c-3.566,4.991-12.695,5.119-12.695,5.119l-17.105,0.461l-7.015-0.136l0.757,2.383l7.689-0.784l14.383,0.594
				c0,0,8.565,0.366,12.53-4.135"/>
			
				<path style="fill:none;stroke:#01043D;stroke-width:0.3706;stroke-linecap:round;stroke-linejoin:round;stroke-miterlimit:10;" d="
				M307.926,368.309c0,0-2.52,1.232-2.504,3.921"/>
			
				<path style="fill:none;stroke:#01043D;stroke-width:0.3706;stroke-linecap:round;stroke-linejoin:round;stroke-miterlimit:10;" d="
				M305.181,367.538c0,0-2.52,1.232-2.504,3.921"/>
			
				<path style="fill:none;stroke:#01043D;stroke-width:0.4345;stroke-linecap:round;stroke-linejoin:round;stroke-miterlimit:10;" d="
				M282.833,378.986l0.179-5.139c0,0,4.827,2.273,11.43-2.452"/>
		</g>
		<path style="fill:#3F95E6;" d="M214.018,211.443c3.433,0.173,38.077,5.832,39.792,8.919c1.715,3.087-1.372,14.406-1.372,14.406
			c45.277,39.789,43.562,54.882,43.562,54.882c-1.372,13.72-2.743,69.289-2.743,69.289c3.43,4.802,1.714,6.173,1.714,6.173
			l-11.662,4.116c-4.116,0.686-2.744-6.176-2.744-6.176L269.59,304.4l2.057-9.262c2.058-6.174-1.372-6.856-1.372-6.856
			l-43.905-26.415c0,0-29.5-11.321-14.408-41.506C211.961,220.36,210.585,211.27,214.018,211.443z"/>
		<path style="fill:none;stroke:#FFFFFF;stroke-width:1.029;stroke-linecap:round;stroke-miterlimit:10;" d="M225.683,213.503
			c0,0-2.401,4.116-2.744,6.174c-0.343,2.058-9.261,19.895,15.092,33.615c24.354,13.72,42.876,27.098,45.62,32.586
			c2.744,5.488-0.343,15.436-1.372,19.209c-1.029,3.773-0.343,42.876,4.459,55.911"/>
		<g>
			<path style="fill:#3F95E6;" d="M264.13,139.033c0,0-11.619-3.424-14.347,8.001c-2.094,8.769,8.774,42.713,13.09,53.378
				c0,0,3.269,5.079,9.145,0.728c0,0,3.997-4.066,1.252-10.762c0,0-4.581-32.753-2.748-38.414
				C270.522,151.964,271.134,140.855,264.13,139.033z"/>
			
				<linearGradient id="SVGID_00000089537235231612405090000011805541800013306796_" gradientUnits="userSpaceOnUse" x1="261.8755" y1="202.9018" x2="261.8755" y2="138.5524">
				<stop  offset="0" style="stop-color:#0098F3;stop-opacity:0"/>
				<stop  offset="1" style="stop-color:#0098F3"/>
			</linearGradient>
			<path style="fill:url(#SVGID_00000089537235231612405090000011805541800013306796_);" d="M264.13,139.033
				c0,0-11.619-3.424-14.347,8.001c-2.094,8.769,8.774,42.713,13.09,53.378c0,0,3.269,5.079,9.145,0.728
				c0,0,3.997-4.066,1.252-10.762c0,0-4.581-32.753-2.748-38.414C270.522,151.964,271.134,140.855,264.13,139.033z"/>
			<path style="fill:#3F95E6;" d="M266.014,203.949c5.474,6.257,21.933,5.125,29.335,6.247c4.694,0.711,9.667,0.21,14.086,1.266
				c2.197,0.525,12.949,6.636,13.262-0.205c0,0,0.726-15.896-6.006-18.749c0,0-4.535-1.707-8.72,2.851
				c-4.185,4.558-7.995,2.407-12.086,1.425c-4.091-0.982-28.682-11.831-30.624-1.166C264.683,198.793,264.4,202.104,266.014,203.949
				z"/>
			<path style="fill:#106299;" d="M327.152,207.148c0,0-1.362,1.387-4.196,2.055c0,0-4.136-1.336-5.43-12.228
				c0,0-0.3-2.655,2.166-3.503c0,0,4.088-0.554,4.662,2.007c0,0-1.759,4.655,1.033,9.211
				C325.388,204.691,327.597,205.77,327.152,207.148z"/>
		</g>
		<path style="fill:#3F95E6;" d="M259.727,137.526c16.976,3.602,9.091,38.269,4.545,48.879c-2.803,6.543-8.952,11.19-8.384,18.179
			c0.402,4.952,1.073,9.318-2.078,15.779c0,0-25.726,1.372-36.703-6.86c0,0-9.212-3.527-2.4-17.15
			c3.43-6.86-4.46-52.824,13.377-60.37c0,0,10.29-5.831,16.464-4.458C250.687,132.888,259.572,137.493,259.727,137.526z"/>
		
			<linearGradient id="SVGID_00000044862855052532859370000006307489441025506732_" gradientUnits="userSpaceOnUse" x1="212.1966" y1="177.7473" x2="256.0838" y2="177.7473">
			<stop  offset="0" style="stop-color:#0098F3"/>
			<stop  offset="1" style="stop-color:#0098F3;stop-opacity:0"/>
		</linearGradient>
		<path style="fill:url(#SVGID_00000044862855052532859370000006307489441025506732_);" d="M247.677,213.693
			c-4.992,1.14-4.66,2.442-9.701,0.864c-17.668-5.532-10.056-26.183-3.702-37.742c4.417-8.037,9.728-17.366,10.878-26.801
			c0.518-4.253-1.339-8.621-4.209-11.919c-2.127-2.444-8.037-1.962-11.059-3.049c-1.116,0.549-1.799,0.936-1.799,0.936
			c-17.837,7.546-9.947,53.51-13.377,60.37c-6.812,13.624,2.4,17.15,2.4,17.15c10.976,8.232,36.703,6.86,36.703,6.86
			c1.365-2.799,2.011-5.204,2.274-7.434C253.5,212.583,250.634,213.018,247.677,213.693z"/>
		<path style="fill:#FBC2A8;" d="M248.462,118.027c0,0-2.21,11.105-3.591,13.267l14.481,3.217l1.813-6.077L248.462,118.027z"/>
		
			<linearGradient id="SVGID_00000117642751863932405570000007722710143542062758_" gradientUnits="userSpaceOnUse" x1="237.3768" y1="83.731" x2="252.6311" y2="83.731" gradientTransform="matrix(0.9667 0.256 -0.256 0.9667 38.4978 -16.682)">
			<stop  offset="0" style="stop-color:#DA626F;stop-opacity:0"/>
			<stop  offset="1" style="stop-color:#DA626F"/>
		</linearGradient>
		<path style="opacity:0.61;fill:url(#SVGID_00000117642751863932405570000007722710143542062758_);" d="M251.531,130.327
			c1.421,1.374,3.171,2.921,5.108,4.29l3.156-0.072l1.623-6.13l-13.173-9.845C247.923,122.421,248.696,127.586,251.531,130.327z"/>
		<path style="fill:#106299;" d="M261.443,133.665c0,0,0.408,2.328-0.936,5.603c0,0-4.247,3.145-15.932-3.283
			c0,0-2.837-1.582-1.93-4.62c0,0-0.343-3.779,2.594-2.535c0,0,6.047,4.378,12.526,4.84
			C257.764,133.67,260.394,132.249,261.443,133.665z"/>
		<g>
			<g>
				<path style="fill:#F4581B;" d="M240.874,91.185c0,0-1.012-13.385,16.381-15.536c0,0,48.005-11.012,28.171,23.9l-34.312-2.063
					l1.306,10.56l-2.638-0.935c0,0-3.574,1.703-0.551,5.744l1.621,7.998C250.851,120.854,226.728,104.287,240.874,91.185z"/>
				<path style="fill:#F4581B;" d="M267.229,102.576c2.251,4.958,8.095,7.153,13.053,4.902c4.958-2.251,9.473-14.165,7.222-19.123
					c-2.251-4.958-10.415-1.083-15.374,1.168C267.173,91.774,264.978,97.618,267.229,102.576z"/>
				<path style="fill:#FBC2A8;" d="M247.174,110.257c1.442,15.438,11.821,26.366,23.544,25.803
					c5.631-0.271,15.871-17.349,14.429-32.787c-1.442-15.438-11.506-25.702-23.188-24.611
					C250.276,79.753,245.731,94.818,247.174,110.257z"/>
				<path style="opacity:0.2;fill:#DA626F;" d="M261.958,78.661c-11.682,1.091-16.227,16.157-14.785,31.595
					c0.095,1.019,0.24,2.012,0.412,2.99c0.277-0.038,0.556-0.069,0.839-0.088c2.228-0.147,4.477,0.251,6.693,0.557
					c1.485-3.343,3.607-5.679,2.903-9.701c-0.085-0.486,0.292-0.929,0.804-0.803c9.32,2.289,17.888,1.523,25.903-3.008
					C282.322,86.496,272.847,77.644,261.958,78.661z"/>
				
					<path style="fill:none;stroke:#231113;stroke-width:0.8527;stroke-linecap:round;stroke-linejoin:round;stroke-miterlimit:10;" d="
					M268.032,124.837c2.443-0.189,4.935,0.29,7.133,1.374"/>
				<path style="fill:#F4581B;" d="M269.013,74.186c-19.601-0.202-27.698,19.867-27.698,19.867l7.193,23.179l7.595-4.699
					l5.991-11.37c0,0,13.068,5.234,23.333,0.444C285.426,101.608,297.405,74.479,269.013,74.186z"/>
				<g>
					<path style="fill:#FBC2A8;" d="M256.125,110.257c0.293-1.803-0.038-1.539-1.123-2.786c-1.217-1.398-2.92-2.252-4.603-1.052
						c-4.14,2.951-0.837,9.338,2.059,9.459c1.168,0.049,2.234-0.545,3.104-1.272c0.773-0.646,0.064-1.764,0.306-2.805
						C255.882,111.741,256.115,110.315,256.125,110.257z"/>
					
						<path style="fill:none;stroke:#01043D;stroke-width:0.5685;stroke-linecap:round;stroke-linejoin:round;stroke-miterlimit:10;" d="
						M250.323,109.148c0,0,2.072-1.603,3.618,1.606"/>
					
						<path style="fill:none;stroke:#01043D;stroke-width:0.5685;stroke-linecap:round;stroke-linejoin:round;stroke-miterlimit:10;" d="
						M252.315,110.529c0,0-0.901,0.75-0.258,2.277"/>
					
						<path style="fill:none;stroke:#01043D;stroke-width:0.3796;stroke-linecap:round;stroke-linejoin:round;stroke-miterlimit:10;" d="
						M252.74,105.762c0,0-3.48-0.174-3.948,2.345"/>
				</g>
				<path style="fill:#F4581B;" d="M257.905,103.841c0,0,3.515,6.163-0.751,8.731c0,0-1.086,5.609-3.337,6.483L257.905,103.841z"/>
				<path style="fill:#F9835F;" d="M288.064,83.034c0.044,0.525,0.002,1.099-0.147,1.729c-2.858,12.039-22.576-5.937-7.002-6.491
					C283.319,78.186,287.757,79.424,288.064,83.034z"/>
				<path style="fill:#FBC2A8;" d="M282.622,115.573c0,0,1.029,6.517,1.715,7.546c0.686,1.029-1.715,0-3.43-1.372
					C279.192,120.375,282.622,115.573,282.622,115.573z"/>
			</g>
			<path style="fill:#EA8A63;" d="M273.715,118.973l-5.075-2.834c-0.943-0.527-2.146-0.186-2.673,0.758l-0.093,0.166
				c-0.527,0.944-0.185,2.147,0.758,2.674l5.073,2.833c0.944,0.527,2.147,0.186,2.674-0.757l0.093-0.166
				C275,120.703,274.659,119.5,273.715,118.973z"/>
			<path style="fill:#FBC2A8;" d="M267.515,111.779c-1.856,2.941-0.244,6.132,2.457,7.907c2.661,1.749,4.959,1.33,7.533-0.18
				c1.979-1.161,4.04-2.276,5.804-1.444c0.795-2.795,1.345-5.733,1.544-8.691c-1.118-0.63-2.289-1.175-3.534-1.585
				C276.276,106.121,270.571,106.937,267.515,111.779z"/>
		</g>
		<path style="fill:#106299;" d="M293.514,359.465c-1.85,0.608-3.728,1.134-5.598,1.677c-2.434,0.707-4.931,1.342-7.383,2.088
			c-0.176,1.028-0.966,6.623,2.775,5.999l11.662-4.116c0,0,1.579-1.283-1.375-5.673C293.57,359.448,293.539,359.457,293.514,359.465
			z"/>
		
			<path style="fill:none;stroke:#01043D;stroke-width:0.4726;stroke-linecap:round;stroke-linejoin:round;stroke-miterlimit:10;" d="
			M207.761,233.74c0,0-3.687,18.693,18.608,28.126l22.553,13.292"/>
		
			<line style="fill:none;stroke:#01043D;stroke-width:0.4726;stroke-linecap:round;stroke-linejoin:round;stroke-miterlimit:10;" x1="251.237" y1="276.959" x2="254.324" y2="278.76"/>
		
			<path style="fill:none;stroke:#01043D;stroke-width:0.4726;stroke-linecap:round;stroke-linejoin:round;stroke-miterlimit:10;" d="
			M258.698,281.333l11.577,6.949c0,0,3.087,1.284,1.543,5.914l-1.029,3.344"/>
		
			<path style="fill:none;stroke:#01043D;stroke-width:0.4726;stroke-linecap:round;stroke-linejoin:round;stroke-miterlimit:10;" d="
			M269.76,301.913c0,0.772-0.515,4.888,0.514,7.718l9.004,47.85"/>
		
			<path style="fill:none;stroke:#01043D;stroke-width:0.4726;stroke-linecap:round;stroke-linejoin:round;stroke-miterlimit:10;" d="
			M248.922,231.939c0,0,26.755,24.697,30.356,29.585l5.402,6.174"/>
		
			<path style="fill:none;stroke:#01043D;stroke-width:0.4726;stroke-linecap:round;stroke-linejoin:round;stroke-miterlimit:10;" d="
			M288.282,273.1c0,0,5.145,7.975,5.917,11.062"/>
		
			<line style="fill:none;stroke:#01043D;stroke-width:0.4726;stroke-linecap:round;stroke-linejoin:round;stroke-miterlimit:10;" x1="295.485" y1="291.366" x2="293.17" y2="352.85"/>
		
			<path style="fill:none;stroke:#01043D;stroke-width:0.4726;stroke-linecap:round;stroke-linejoin:round;stroke-miterlimit:10;" d="
			M294.714,361.34c0,0,3.859,4.116-5.145,5.917l-4.888,1.286"/>
		
			<line style="fill:none;stroke:#01043D;stroke-width:0.4726;stroke-linecap:round;stroke-linejoin:round;stroke-miterlimit:10;" x1="294.242" y1="367.271" x2="293.427" y2="366.228"/>
		
			<path style="fill:none;stroke:#01043D;stroke-width:0.4726;stroke-linecap:round;stroke-linejoin:round;stroke-miterlimit:10;" d="
			M293.514,359.465"/>
		
			<path style="fill:none;stroke:#01043D;stroke-width:0.4726;stroke-linecap:round;stroke-linejoin:round;stroke-miterlimit:10;" d="
			M283.309,369.229c-4.202-0.343-2.775-5.999-2.775-5.999l12.981-3.765"/>
		
			<path style="fill:none;stroke:#01043D;stroke-width:0.4726;stroke-linecap:round;stroke-linejoin:round;stroke-miterlimit:10;" d="
			M290.598,359.539c0,0,3.087,1.544,3.087,4.631"/>
		
			<path style="fill:none;stroke:#01043D;stroke-width:0.4726;stroke-linecap:round;stroke-linejoin:round;stroke-miterlimit:10;" d="
			M289.311,361.34c0,0,1.029,2.058,0.772,4.631"/>
		
			<path style="fill:none;stroke:#01043D;stroke-width:0.4726;stroke-linecap:round;stroke-linejoin:round;stroke-miterlimit:10;" d="
			M285.452,362.369c0,0,0.257,3.344,1.543,5.402"/>
		
			<path style="fill:none;stroke:#01043D;stroke-width:0.4726;stroke-linecap:round;stroke-linejoin:round;stroke-miterlimit:10;" d="
			M282.108,363.141c0,0,0,3.602,1.286,4.888"/>
		<path style="fill:#106299;" d="M255.181,215.564c0,0,1.814,3.653-1.647,5.691c0,0-16.484,2.849-40.934-8.331
			c0,0-2.548-2.007-0.285-5.475C212.315,207.45,246.891,220.586,255.181,215.564z"/>
		<g>
			<path style="fill:#3F95E6;" d="M243.293,147.49c0,0,1.241-13.716-10.407-13.566c-8.939,0.115-42.735,23.052-51.941,29.79
				c0,0-4.09,4.376,1.519,8.97c0,0,7.906,0.318,13.679-3.946c0,0,30.381-12.353,36.268-11.964
				C232.41,156.775,243.241,154.667,243.293,147.49z"/>
			<path style="fill:#3F95E6;" d="M180.994,165.996c-3.531,7.45,3.997,21.975,5.899,29.152c1.206,4.551,3.626,8.876,4.409,13.314
				c0.39,2.206-0.924,14.4,5.422,11.983c0,0,14.747-5.615,14.684-12.866c0,0-0.238-4.799-6.036-6.807
				c-5.799-2.007-5.346-6.323-6.068-10.432c-0.722-4.109-0.561-30.763-11.031-28.319C185.159,162.75,182.035,163.8,180.994,165.996z
				"/>
			<path style="fill:#106299;" d="M202.221,222.875c0,0-1.799-0.691-3.526-3.005c0,0-0.418-4.29,8.979-9.768
				c0,0,2.297-1.321,4.042,0.588c0,0,2.118,3.501,0.015,5.033c0,0-4.929,0.238-7.971,4.576
				C203.76,220.3,203.651,222.735,202.221,222.875z"/>
			<path style="fill:#FBC2A8;" d="M202.832,221.08c0,0,3.153,3.161,3.448,4.586l3.204,6.692c0,0,0.958,2.067,3.648,2.491
				c0,0,0.464-0.079,1.727,0.981c0,0,1.829,2.409,4.231,0.728c0,0,1.319,1.967,3.288-0.226c0,0,0.244-0.699,0.795-0.462
				c0,0,0.955,0.999,3.01-1.412l2.174-0.745c0,0,1.437-1.658,0.002-2.283c0,0-2.15-1.107-4.289,0.647l-4.211-5.589
				c0,0-0.259-3.231-0.005-3.543l2.452,0.441c0,0,2.601,2.391,3.488,2.438c0,0,2.26-0.963,1.049-2.183l-2.476-3.348
				c0,0-5.267-2.725-5.642-3.204c0,0-7.25-1.11-7.698-1.327c0,0-1.31-0.173-2.208,0.268
				C207.924,216.473,204.241,218.264,202.832,221.08z"/>
			<g>
				
					<path style="fill:none;stroke:#01043D;stroke-width:0.4282;stroke-linecap:round;stroke-linejoin:round;stroke-miterlimit:10;" d="
					M213.085,234.587c-3.433-0.122-4.49-2.55-4.49-2.55l-2.939-6.085c-0.836-2.683-2.852-4.361-2.852-4.361"/>
				
					<path style="fill:none;stroke:#01043D;stroke-width:0.4282;stroke-linecap:round;stroke-linejoin:round;stroke-miterlimit:10;" d="
					M211.389,233.015c0,0,0.871,0.343,1.176,0.744c0.305,0.402,2.536,2.506,2.536,2.506"/>
				
					<path style="fill:none;stroke:#01043D;stroke-width:0.4282;stroke-linecap:round;stroke-linejoin:round;stroke-miterlimit:10;" d="
					M215.661,236.888c0,0,1.487,0.464,2.512-0.4"/>
				
					<path style="fill:none;stroke:#01043D;stroke-width:0.4282;stroke-linecap:round;stroke-linejoin:round;stroke-miterlimit:10;" d="
					M213.26,232.402l1.208,0.153c0,0,4.076,4.219,5.037,4.536c0,0,1.307,0.514,2.509-1.468"/>
				
					<path style="fill:none;stroke:#01043D;stroke-width:0.4282;stroke-linecap:round;stroke-linejoin:round;stroke-miterlimit:10;" d="
					M217.624,230.617l5.261,5.349c0,0,0.716,0.483,1.927-1.114c0,0,0.859-1.111,1.606-1.219c0,0,2.02-0.071,1.852-1.384
					c0,0,0.39-1.758-3.124-1.47c0,0-1.936,0.728-2.157,0.983"/>
				
					<path style="fill:none;stroke:#01043D;stroke-width:0.4282;stroke-linecap:round;stroke-linejoin:round;stroke-miterlimit:10;" d="
					M223.475,232.113c0,0-4.218-5.442-4.343-5.893c-0.124-0.451-0.487-4.236,0.456-4.69"/>
				
					<path style="fill:none;stroke:#01043D;stroke-width:0.4282;stroke-linecap:round;stroke-linejoin:round;stroke-miterlimit:10;" d="
					M219.936,222.794l1.939,0.34c0,0,2.265,2.581,3.373,2.373c0,0,1.796-0.883,1.022-1.932c0,0-2.479-3.007-2.629-3.549
					c0,0-4.917-2.336-5.642-3.204c0,0-4.173-0.695-5.561-0.798"/>
				
					<line style="fill:none;stroke:#01043D;stroke-width:0.4282;stroke-linecap:round;stroke-linejoin:round;stroke-miterlimit:10;" x1="215.294" y1="228.151" x2="215.748" y2="229.095"/>
				
					<line style="fill:none;stroke:#01043D;stroke-width:0.4282;stroke-linecap:round;stroke-linejoin:round;stroke-miterlimit:10;" x1="212.392" y1="230.31" x2="212.657" y2="230.917"/>
				
					<line style="fill:none;stroke:#01043D;stroke-width:0.4282;stroke-linecap:round;stroke-linejoin:round;stroke-miterlimit:10;" x1="210.369" y1="232.13" x2="209.834" y2="231.598"/>
			</g>
		</g>
		
			<path style="fill:none;stroke:#01043D;stroke-width:0.4726;stroke-linecap:round;stroke-linejoin:round;stroke-miterlimit:10;" d="
			M252.246,235.159c0,0,2.593-5.878,1.288-13.903"/>
		
			<line style="fill:none;stroke:#01043D;stroke-width:0.4726;stroke-linecap:round;stroke-linejoin:round;stroke-miterlimit:10;" x1="245.577" y1="229.281" x2="243.176" y2="227.566"/>
		<path style="fill:#106299;" d="M232.539,224.072c0,0-1.68,9.061-6.533,12.699l0.731,2.016c0,0,7.653-1.835,8.085-12.859
			L232.539,224.072z"/>
		
			<path style="fill:none;stroke:#01043D;stroke-width:0.4726;stroke-linecap:round;stroke-linejoin:round;stroke-miterlimit:10;" d="
			M226.006,236.77c4.096-2.372,6.533-12.699,6.533-12.699l2.283,1.856c0,0-0.049,3.953-1.593,6.783"/>
		
			<path style="fill:none;stroke:#01043D;stroke-width:0.4726;stroke-linecap:round;stroke-linejoin:round;stroke-miterlimit:10;" d="
			M214.192,213.674c22.124,9.776,38.074,7.718,38.074,7.718c4.631-0.514,2.915-5.828,2.915-5.828"/>
		
			<path style="fill:none;stroke:#01043D;stroke-width:0.4726;stroke-linecap:round;stroke-linejoin:round;stroke-miterlimit:10;" d="
			M253.81,216.247c0,0-8.061,1.544-26.583-3.773"/>
		
			<line style="fill:none;stroke:#01043D;stroke-width:0.4726;stroke-linecap:round;stroke-linejoin:round;stroke-miterlimit:10;" x1="224.482" y1="211.616" x2="221.052" y2="210.587"/>
		
			<path style="fill:none;stroke:#01043D;stroke-width:0.4726;stroke-linecap:round;stroke-linejoin:round;stroke-miterlimit:10;" d="
			M218.994,209.558l-6.679-2.108c0,0-0.867,1.422-0.867,2.623"/>
		
			<path style="fill:none;stroke:#01043D;stroke-width:0.4726;stroke-linecap:round;stroke-linejoin:round;stroke-miterlimit:10;" d="
			M206.817,210.758c0,0,3.945-3.259,5.66,1.372c0,0,2.23,4.288-2.744,3.259c0,0-4.116,1.544-6.86,5.145"/>
		
			<path style="fill:none;stroke:#01043D;stroke-width:0.4726;stroke-linecap:round;stroke-linejoin:round;stroke-miterlimit:10;" d="
			M204.931,211.788c0,0-6.469,4.673-6.236,8.082c0,0,2.634,4.438,4.521,2.38"/>
		
			<path style="fill:none;stroke:#01043D;stroke-width:0.4726;stroke-linecap:round;stroke-linejoin:round;stroke-miterlimit:10;" d="
			M199.614,218.133c0,0,1.372,2.23,2.573,2.401"/>
		
			<path style="fill:none;stroke:#01043D;stroke-width:0.4726;stroke-linecap:round;stroke-linejoin:round;stroke-miterlimit:10;" d="
			M201.158,215.904c0,0,1.201,2.23,3.259,2.744"/>
		
			<path style="fill:none;stroke:#01043D;stroke-width:0.4726;stroke-linecap:round;stroke-linejoin:round;stroke-miterlimit:10;" d="
			M203.73,213.674c0,0,1.372,2.401,2.744,2.916"/>
		
			<path style="fill:none;stroke:#01043D;stroke-width:0.4726;stroke-linecap:round;stroke-linejoin:round;stroke-miterlimit:10;" d="
			M207.16,211.959c0,0,1.544,2.058,1.887,3.259"/>
		
			<path style="fill:none;stroke:#01043D;stroke-width:0.4726;stroke-linecap:round;stroke-linejoin:round;stroke-miterlimit:10;" d="
			M209.733,210.415c0,0,2.625,2.727,1.999,5.308"/>
		
			<path style="fill:none;stroke:#01043D;stroke-width:0.4726;stroke-linecap:round;stroke-linejoin:round;stroke-miterlimit:10;" d="
			M198.695,219.87c-5.136,2.338-6.706-1.937-6.939-6.202c-0.28-5.125-1.736-10.171-3.633-14.914"/>
		
			<path style="fill:none;stroke:#01043D;stroke-width:0.4726;stroke-linecap:round;stroke-linejoin:round;stroke-miterlimit:10;" d="
			M185.722,192.236c0,0-6.517-17.837-6.003-22.467"/>
		
			<path style="fill:none;stroke:#01043D;stroke-width:0.4726;stroke-linecap:round;stroke-linejoin:round;stroke-miterlimit:10;" d="
			M179.205,167.711c0,0-0.294-2.847,1.74-3.996"/>
		
			<path style="fill:none;stroke:#01043D;stroke-width:0.4726;stroke-linecap:round;stroke-linejoin:round;stroke-miterlimit:10;" d="
			M183.15,161.88c0,0,26.755-18.351,33.958-21.781"/>
		
			<path style="fill:none;stroke:#01043D;stroke-width:0.4726;stroke-linecap:round;stroke-linejoin:round;stroke-miterlimit:10;" d="
			M222.253,137.526c0,0,9.776-5.831,15.778-2.401"/>
		
			<path style="fill:none;stroke:#01043D;stroke-width:0.4726;stroke-linecap:round;stroke-linejoin:round;stroke-miterlimit:10;" d="
			M230.656,156.906c0,0,7.546-0.171,10.633-4.459"/>
		
			<path style="fill:none;stroke:#01043D;stroke-width:0.4726;stroke-linecap:round;stroke-linejoin:round;stroke-miterlimit:10;" d="
			M223.282,158.964c0,0-23.408,7.715-27.14,9.774"/>
		
			<path style="fill:none;stroke:#01043D;stroke-width:0.4726;stroke-linecap:round;stroke-linejoin:round;stroke-miterlimit:10;" d="
			M193.954,167.539c0,0,2.23,0.514,2.915,3.945c0.764,5.276,1.092,10.601,1.719,15.893c0.38,3.201,0.324,11.545,4.626,12.406"/>
		
			<path style="fill:none;stroke:#01043D;stroke-width:0.4726;stroke-linecap:round;stroke-linejoin:round;stroke-miterlimit:10;" d="
			M205.373,200.773c0,0,5.311,1.741,6.036,6.807"/>
		
			<path style="fill:none;stroke:#01043D;stroke-width:0.4726;stroke-linecap:round;stroke-linejoin:round;stroke-miterlimit:10;" d="
			M241.719,131.352c0,0-4.116,0.772-7.718,2.316"/>
		
			<path style="fill:none;stroke:#01043D;stroke-width:0.4726;stroke-linecap:round;stroke-linejoin:round;stroke-miterlimit:10;" d="
			M216.507,161.451c0,0-1.029,18.008-1.029,20.838c0,0,0,6.431,0,7.203"/>
		
			<path style="fill:none;stroke:#01043D;stroke-width:0.4726;stroke-linecap:round;stroke-linejoin:round;stroke-miterlimit:10;" d="
			M215.736,192.836c0,0,0.514,1.886-1.029,3.516c-1.544,1.629-3.24,8.475-2.392,11.098"/>
		
			<path style="fill:none;stroke:#01043D;stroke-width:0.4726;stroke-linecap:round;stroke-linejoin:round;stroke-miterlimit:10;" d="
			M256.084,212.929c0,0,0.338-5.088-0.197-8.345c0,0-1.049-5.573,2.81-9.947c0,0,6.431-7.46,7.975-14.149"/>
		
			<path style="fill:none;stroke:#01043D;stroke-width:0.4726;stroke-linecap:round;stroke-linejoin:round;stroke-miterlimit:10;" d="
			M267.702,176.629c0,0,2.058-11.062,2.058-13.377"/>
		
			<path style="fill:none;stroke:#01043D;stroke-width:0.4478;stroke-linecap:round;stroke-linejoin:round;stroke-miterlimit:10;" d="
			M270.017,160.936c0,0,2.168-16.979-5.917-21.352l-3.428-1.544"/>
		
			<path style="fill:none;stroke:#01043D;stroke-width:0.4478;stroke-linecap:round;stroke-linejoin:round;stroke-miterlimit:10;" d="
			M270.531,166.081c0,0,2.39,22.61,2.739,24.296c0,0-1.967-0.114-3.253,0.4"/>
		
			<path style="fill:none;stroke:#01043D;stroke-width:0.4478;stroke-linecap:round;stroke-linejoin:round;stroke-miterlimit:10;" d="
			M274.133,190.778c0,0,11.834,2.058,16.979,4.373c0,0,9.004,3.859,13.12,2.83"/>
		
			<path style="fill:none;stroke:#01043D;stroke-width:0.4478;stroke-linecap:round;stroke-linejoin:round;stroke-miterlimit:10;" d="
			M306.29,196.695c0,0,3.602-3.344,4.373-3.602c0.772-0.257,4.373-2.315,7.718,0.772"/>
		
			<path style="fill:none;stroke:#01043D;stroke-width:0.4478;stroke-linecap:round;stroke-linejoin:round;stroke-miterlimit:10;" d="
			M322.956,209.204c0,0,0.57,7.043-5.346,4.728c0,0-6.174-2.058-9.261-2.83"/>
		
			<path style="fill:none;stroke:#01043D;stroke-width:0.4478;stroke-linecap:round;stroke-linejoin:round;stroke-miterlimit:10;" d="
			M302.946,210.587c0,0-25.469-1.544-28.041-2.058s-9.776-3.344-10.547-6.689"/>
		
			<line style="fill:none;stroke:#01043D;stroke-width:0.4478;stroke-linecap:round;stroke-linejoin:round;stroke-miterlimit:10;" x1="259.984" y1="192.836" x2="262.299" y2="199.268"/>
		
			<path style="fill:none;stroke:#EF9A78;stroke-width:1.0306;stroke-linecap:round;stroke-linejoin:round;stroke-miterlimit:10;" d="
			M280.913,112.14c0,0,1.882,9.363,4.08,10.621c0,0-1.373,1.819-4.469-0.578"/>
		<path style="fill:none;stroke:#FFFFFF;stroke-width:1.029;stroke-linecap:round;stroke-miterlimit:10;" d="M243.262,135.21
			l-2.658,2.144c0,0-7.546-3.945-16.121,4.288c0,0-36.359,21.267-37.217,21.438c-0.858,0.171-6.174,0.686-3.945,7.718
			c2.229,7.032,10.805,33.272,11.662,38.417c0.858,5.145,2.401,7.546,3.945,7.375"/>
		<g>
			
				<path style="fill:none;stroke:#01043D;stroke-width:0.4478;stroke-linecap:round;stroke-linejoin:round;stroke-miterlimit:10;" d="
				M258.955,132.895c0,0-1.544,1.544-6.946-0.772c0,0-8.747-5.402-9.519-2.315c0,0-2.263,3.863,2.084,6.176
				c0,0,10.795,6.568,15.932,3.283l0.936-3.543"/>
			
				<path style="fill:none;stroke:#01043D;stroke-width:0.4726;stroke-linecap:round;stroke-linejoin:round;stroke-miterlimit:10;" d="
				M259.641,133.924c0,0,1.543,1.887,0.172,5.145"/>
			
				<path style="fill:none;stroke:#01043D;stroke-width:0.4726;stroke-linecap:round;stroke-linejoin:round;stroke-miterlimit:10;" d="
				M257.411,134.267c0,0,0.343,2.058-0.514,4.631"/>
			
				<path style="fill:none;stroke:#01043D;stroke-width:0.4726;stroke-linecap:round;stroke-linejoin:round;stroke-miterlimit:10;" d="
				M254.496,134.096c0,0-0.343,2.401-1.372,4.288"/>
			
				<path style="fill:none;stroke:#01043D;stroke-width:0.4726;stroke-linecap:round;stroke-linejoin:round;stroke-miterlimit:10;" d="
				M252.438,132.724c0,0-1.715,0.515-2.058,2.23c-0.343,1.715-0.514,2.573-0.514,2.573"/>
			
				<path style="fill:none;stroke:#01043D;stroke-width:0.4726;stroke-linecap:round;stroke-linejoin:round;stroke-miterlimit:10;" d="
				M249.694,131.18c0,0-1.887,0.857-2.573,4.116"/>
			
				<path style="fill:none;stroke:#01043D;stroke-width:0.4726;stroke-linecap:round;stroke-linejoin:round;stroke-miterlimit:10;" d="
				M246.606,129.808c0,0-2.23,0.857-2.23,4.288"/>
			
				<path style="fill:none;stroke:#01043D;stroke-width:0.4726;stroke-linecap:round;stroke-linejoin:round;stroke-miterlimit:10;" d="
				M244.205,129.122c0,0-0.857,0.857-1.201,3.773"/>
		</g>
		
			<path style="fill:none;stroke:#01043D;stroke-width:0.4726;stroke-linecap:round;stroke-linejoin:round;stroke-miterlimit:10;" d="
			M239.575,136.325c0,0,4.52,2.436,3.718,11.165"/>
		
			<path style="fill:none;stroke:#01043D;stroke-width:0.5145;stroke-linecap:round;stroke-linejoin:round;stroke-miterlimit:10;" d="
			M240.846,111.2c0,0-7.223-7.692-2.749-15.911"/>
		
			<path style="fill:none;stroke:#01043D;stroke-width:0.3796;stroke-linecap:round;stroke-linejoin:round;stroke-miterlimit:10;" d="
			M238.415,92.212c0,0,0.812-0.489,2.455,0.015c0,0-1.239-12.323,13.673-15.802"/>
		
			<line style="fill:none;stroke:#01043D;stroke-width:0.5145;stroke-linecap:round;stroke-linejoin:round;stroke-miterlimit:10;" x1="257.798" y1="76.069" x2="261.852" y2="75.317"/>
		
			<path style="fill:none;stroke:#01043D;stroke-width:0.3796;stroke-linecap:round;stroke-linejoin:round;stroke-miterlimit:10;" d="
			M265.987,74.498c5.788-1.198,15.723-0.671,20.693,2.955c3.739,2.727,4.766,9.602,3.004,13.749"/>
		
			<path style="fill:none;stroke:#01043D;stroke-width:0.3796;stroke-linecap:round;stroke-linejoin:round;stroke-miterlimit:10;" d="
			M248.589,118.444c0,0,0.942,6.049,6.718,11.447"/>
		
			<path style="fill:none;stroke:#01043D;stroke-width:0.3796;stroke-linecap:round;stroke-linejoin:round;stroke-miterlimit:10;" d="
			M248.493,119.672c0,0-1.656,6.029-1.886,7.392"/>
		
			<path style="fill:none;stroke:#01043D;stroke-width:0.3796;stroke-linecap:round;stroke-linejoin:round;stroke-miterlimit:10;" d="
			M273.692,134.931c-1.935,1.135-4.843,1.828-8.906,0.365"/>
		
			<path style="fill:none;stroke:#01043D;stroke-width:0.3796;stroke-linecap:round;stroke-linejoin:round;stroke-miterlimit:10;" d="
			M274.047,103.053c0,0-6.414,1.023-11.954-1.889l-2.453,3.947"/>
		
			<path style="fill:none;stroke:#01043D;stroke-width:0.3796;stroke-linecap:round;stroke-linejoin:round;stroke-miterlimit:10;" d="
			M288.968,93.106c0,0-2.539,7.572-3.542,8.502"/>
		<path style="fill:#F4581B;" d="M255.612,102.368c0,0,2.094,6.058,6.52,6.377C262.131,108.745,256.563,105.121,255.612,102.368z"/>
		<path style="fill:#F4581B;" d="M257.84,103.547c0,0,0.035,6.409,4.123,8.134C261.963,111.682,257.855,106.46,257.84,103.547z"/>
		<path style="fill:#F4581B;" d="M288.165,92.749c0,0,4.482,0.257,5.938-3.745C294.103,89.005,290.202,92.866,288.165,92.749z"/>
		<g>
			<g>
				<path style="fill:#3F95E6;" d="M284.681,102.027c0,0,10.119-21.046-1.372-26.265l-4.974-1.178c0,0,10.633,3.872,2.401,27.612
					L284.681,102.027z"/>
				<g>
					<path style="fill:#5D6284;" d="M286.848,102.201c-4.378,0.009-7.46-0.211-11.428-0.434c-3.52-0.197-6.949-0.71-8.406,4.194
						c-1.982,6.671-3.303,12.957,3.861,12.785c2.292,0.215,6.007,0.337,7.974-1.498c0,0,3.65-4.468,4.946-1.498
						c1.221,2.793,3.696,3.026,4.395,0.13c0.805-2.794,2.586-5.676,2.878-8.614C291.327,104.646,288.965,102.196,286.848,102.201z"
						/>
					<path style="fill:#4B5077;" d="M288.763,103.256c-4.124-0.92-9.931,0.013-13.755-0.201c-3.392-0.19-5.234-1.286-6.638,3.439
						c-1.91,6.427-3.183,12.484,3.72,12.319c2.208,0.207,5.363,0.326,7.257-1.441c0,0,3.517-4.306,4.766-1.444
						c1.176,2.691,3.562,2.954,4.235,0.163c0.776-2.692,3.326-6.203,3.219-9.047C291.486,104.908,290.165,103.569,288.763,103.256z"
						/>
					<path style="fill:#2A3156;" d="M290.559,105.544c1.81,0.297,0.829,3.292,0.575,4.429c-0.23,1.03-0.684,2.063-0.806,3.14
						c-0.18,1.581-0.964,3.338-1.869,4.205c-1.002,0.96-2.803,0.313-3.496-1.214c-1.054-2.325-3.996,1.16-3.996,1.16
						c-1.314,1.184-3.107,1.335-4.77,1.294c-1.564-0.038-3.536,0.045-4.752-1.162c-2.353-2.337-0.083-6.359,0.285-8.983
						c0-0.001,0.432-3.084,1.798-3.096L290.559,105.544z"/>
				</g>
				<path style="fill:#2A3156;" d="M266.121,112.785L266.121,112.785c-0.443-0.1-0.726-0.56-0.63-1.021l1.16-5.529
					c0.097-0.461,0.538-0.756,0.981-0.655l0,0c0.443,0.101,0.726,0.56,0.63,1.021l-1.16,5.529
					C267.005,112.591,266.564,112.885,266.121,112.785z"/>
				<path style="fill:#2A3156;" d="M279.372,101.782L279.372,101.782c0.019-0.454,0.37-0.817,0.78-0.806l4.918,0.124
					c0.41,0.01,0.73,0.39,0.711,0.844l0,0c-0.019,0.454-0.37,0.817-0.78,0.806l-4.918-0.124
					C279.673,102.615,279.353,102.236,279.372,101.782z"/>
			</g>
			<path style="fill:#3F95E6;" d="M266.673,107.169c0,0-20.838-8.918-25.297-20.924c0,0-1.55,3.813-1.106,5.639
				c0,0,11.996,17.001,25.545,19.23L266.673,107.169z"/>
		</g>
		
			<line style="fill:none;stroke:#01043D;stroke-width:0.5145;stroke-linecap:round;stroke-linejoin:round;stroke-miterlimit:10;" x1="248.508" y1="117.232" x2="249.694" y2="116.259"/>
		
			<path style="fill:none;stroke:#01043D;stroke-width:0.5145;stroke-linecap:round;stroke-linejoin:round;stroke-miterlimit:10;" d="
			M288.625,105.626l-14.235-0.343c0,0-2.058-0.343-2.573,2.401l-1.543,5.831"/>
		
			<path style="fill:none;stroke:#01043D;stroke-width:0.5145;stroke-linecap:round;stroke-linejoin:round;stroke-miterlimit:10;" d="
			M270.446,115.745c0,0,0.343,3.773,7.546,2.573c0,0,2.23,0.172,3.773-1.886c0,0,1.715-2.23,2.744-1.201"/>
		
			<path style="fill:none;stroke:#01043D;stroke-width:0.5145;stroke-linecap:round;stroke-linejoin:round;stroke-miterlimit:10;" d="
			M290.559,105.544c0,0,1.84,0.768,0.982,2.998l-1.544,6.689c0,0-1.372,3.087-3.773,2.744"/>
		
			<path style="fill:none;stroke:#01043D;stroke-width:0.5145;stroke-linecap:round;stroke-linejoin:round;stroke-miterlimit:10;" d="
			M290.683,104.768c0,0-0.6-2.058-3.43-1.887l-16.122,0.172c0,0-1.887,0.343-2.23,2.23"/>
		
			<path style="fill:none;stroke:#01043D;stroke-width:0.5145;stroke-linecap:round;stroke-linejoin:round;stroke-miterlimit:10;" d="
			M268.388,105.969l-1.286,6.161c0,0-0.858,1.299-1.63,0.099"/>
		
			<path style="fill:none;stroke:#01043D;stroke-width:0.5145;stroke-linecap:round;stroke-linejoin:round;stroke-miterlimit:10;" d="
			M266.844,113.515c0,0-0.514,4.974,3.344,5.231l5.231-0.172"/>
		
			<path style="fill:none;stroke:#01043D;stroke-width:0.5145;stroke-linecap:round;stroke-linejoin:round;stroke-miterlimit:10;" d="
			M266.758,117.631c0,0-1.801-1.544-1.286-4.716"/>
		
			<path style="fill:none;stroke:#01043D;stroke-width:0.5145;stroke-linecap:round;stroke-linejoin:round;stroke-miterlimit:10;" d="
			M267.187,105.026c0,0,0.514-3.945,6.26-3.344"/>
		
			<path style="fill:none;stroke:#01043D;stroke-width:0.5145;stroke-linecap:round;stroke-linejoin:round;stroke-miterlimit:10;" d="
			M285.452,102.624c0,0,0.78-1.249-0.382-1.525l-4.918-0.124"/>
		
			<path style="fill:none;stroke:#01043D;stroke-width:0.5145;stroke-linecap:round;stroke-linejoin:round;stroke-miterlimit:10;" d="
			M280.083,102.626c0,0-0.702-0.143-0.711-0.844l-4.725-0.101"/>
		
			<path style="fill:none;stroke:#01043D;stroke-width:0.5145;stroke-linecap:round;stroke-linejoin:round;stroke-miterlimit:10;" d="
			M285.07,101.1c0,0,4.327-8.251,3.726-16.14"/>
		
			<path style="fill:none;stroke:#01043D;stroke-width:0.5145;stroke-linecap:round;stroke-linejoin:round;stroke-miterlimit:10;" d="
			M283.309,75.762c0,0,4.373,1.565,5.059,6.882"/>
		
			<path style="fill:none;stroke:#01043D;stroke-width:0.5145;stroke-linecap:round;stroke-linejoin:round;stroke-miterlimit:10;" d="
			M277.649,74.498c4.055,0.545,5.349,4.976,5.78,8.444c0.542,4.367,0.106,8.738-0.76,13.033c-0.096,0.474-0.197,0.947-0.303,1.418"
			/>
		
			<path style="fill:none;stroke:#01043D;stroke-width:0.5145;stroke-linecap:round;stroke-linejoin:round;stroke-miterlimit:10;" d="
			M266.673,107.169c0,0-9.947-3.945-18.094-11.491"/>
		
			<path style="fill:none;stroke:#01043D;stroke-width:0.5145;stroke-linecap:round;stroke-linejoin:round;stroke-miterlimit:10;" d="
			M246.178,93.535c0,0-4.459-5.488-4.802-7.289c0,0-1.029,2.401-1.029,4.545"/>
		
			<path style="fill:none;stroke:#01043D;stroke-width:0.5145;stroke-linecap:round;stroke-linejoin:round;stroke-miterlimit:10;" d="
			M240.69,92.591c0,0,5.059,7.461,16.379,15.264"/>
		
			<path style="fill:none;stroke:#01043D;stroke-width:0.5145;stroke-linecap:round;stroke-linejoin:round;stroke-miterlimit:10;" d="
			M265.815,111.115c0,0-5.145-0.858-7.632-2.573"/>
		
			<line style="fill:none;stroke:#01043D;stroke-width:0.5145;stroke-linecap:round;stroke-linejoin:round;stroke-miterlimit:10;" x1="266.587" y1="108.027" x2="265.987" y2="111.2"/>
		
			<path style="fill:none;stroke:#01043D;stroke-width:0.5145;stroke-linecap:round;stroke-linejoin:round;stroke-miterlimit:10;" d="
			M283.266,115.209c0,0,0.836,0.643,1.158,1.736"/>
		<path style="fill:#FFFFFF;" d="M267.635,158.157c-0.227,2.617-0.941,4.692-1.595,4.635c-0.654-0.057-1-2.224-0.774-4.841
			c0.227-2.617,0.941-4.692,1.595-4.635C267.516,153.372,267.862,155.54,267.635,158.157z"/>
		
			<path style="fill:none;stroke:#01043D;stroke-width:0.3342;stroke-linecap:round;stroke-linejoin:round;stroke-miterlimit:10;" d="
			M268.665,158.157c-0.227,2.617-0.941,4.692-1.595,4.635c-0.654-0.057-1-2.224-0.774-4.841c0.227-2.617,0.941-4.692,1.595-4.635
			C268.546,153.372,268.892,155.54,268.665,158.157z"/>
		<g>
			<path style="fill:#3F95E6;" d="M259.984,114.373c0,0,1.544,2.315,0.257,3.344C258.955,118.746,258.005,117.064,259.984,114.373z"
				/>
			
				<path style="fill:none;stroke:#01043D;stroke-width:0.3796;stroke-linecap:round;stroke-linejoin:round;stroke-miterlimit:10;" d="
				M258.954,114.373c0,0,1.544,2.315,0.257,3.344C257.925,118.746,256.975,117.064,258.954,114.373z"/>
		</g>
		<g>
			<path style="fill:#3F95E6;" d="M235.629,115.732c0,0-1.023,2.588-2.602,2.117C231.449,117.378,232.29,115.638,235.629,115.732z"
				/>
			
				<path style="fill:none;stroke:#01043D;stroke-width:0.3796;stroke-linecap:round;stroke-linejoin:round;stroke-miterlimit:10;" d="
				M235.042,114.885c0,0-1.023,2.588-2.602,2.117C230.862,116.531,231.703,114.792,235.042,114.885z"/>
		</g>
		<g>
			<path style="fill:#3F95E6;" d="M235.387,124.881c0,0-0.16,2.778-1.806,2.826C231.934,127.756,232.188,125.84,235.387,124.881z"/>
			
				<path style="fill:none;stroke:#01043D;stroke-width:0.3796;stroke-linecap:round;stroke-linejoin:round;stroke-miterlimit:10;" d="
				M234.565,124.262c0,0-0.16,2.778-1.806,2.826C231.112,127.136,231.365,125.221,234.565,124.262z"/>
		</g>
		<g>
			<path style="fill:#C7E3F9;" d="M253.706,111.795c-0.166-1.266-1.327-2.157-2.593-1.991c-1.266,0.166-2.158,1.327-1.992,2.593
				c0,0,0.031,0.138,0.085,0.362c0.009,0.032,0.013,0.066,0.024,0.097c0.283,1.163,1.081,4.235,1.901,5.45l1.178-0.429
				c0,0-0.73-1.986-1.066-3.475c0.154,0.011,0.312,0.007,0.471-0.014C252.981,114.222,253.873,113.061,253.706,111.795z"/>
			
				<path style="fill:none;stroke:#01043D;stroke-width:0.4333;stroke-linecap:round;stroke-linejoin:round;stroke-miterlimit:10;" d="
				M249.201,112.223c0,0,0.298-1.205,1.746-0.989c1.448,0.215,0.859,1.915,0.859,1.915"/>
			
				<path style="fill:none;stroke:#01043D;stroke-width:0.4333;stroke-linecap:round;stroke-linejoin:round;stroke-miterlimit:10;" d="
				M251.105,112.834c0,0-0.407,0.763,0.277,2.498"/>
			
				<path style="fill:none;stroke:#01043D;stroke-width:0.4333;stroke-linecap:round;stroke-linejoin:round;stroke-miterlimit:10;" d="
				M249.231,112.856c0,0,0.51,3.098,1.695,5.173"/>
			
				<line style="fill:none;stroke:#01043D;stroke-width:0.4333;stroke-linecap:round;stroke-linejoin:round;stroke-miterlimit:10;" x1="252.31" y1="117.876" x2="251.407" y2="118.218"/>
			
				<path style="fill:none;stroke:#01043D;stroke-width:0.4333;stroke-linecap:round;stroke-linejoin:round;stroke-miterlimit:10;" d="
				M249.552,110.656c0,0,1.132-1.416,2.957-0.642c1.825,0.774,0.997,2.961,0.997,2.961"/>
		</g>
		
			<path style="fill:none;stroke:#01043D;stroke-width:0.4478;stroke-linecap:round;stroke-linejoin:round;stroke-miterlimit:10;" d="
			M323.612,197.724c0,0,1.887-2.744-0.857-3.773c0,0-6.003-2.915-5.145,4.459c0,0,1.029,6.689,4.116,9.947
			c0,0,2.62,1.698,5.426-1.209c0,0,0.526-1.322-1.764-2.458c0,0-2.805-4.737-2.462-8.167"/>
		
			<path style="fill:none;stroke:#01043D;stroke-width:0.4478;stroke-linecap:round;stroke-linejoin:round;stroke-miterlimit:10;" d="
			M322.583,195.152c0,0-1.543-1.029-3.259-0.515"/>
		
			<path style="fill:none;stroke:#01043D;stroke-width:0.4478;stroke-linecap:round;stroke-linejoin:round;stroke-miterlimit:10;" d="
			M325.67,206.471c0,0-2.23,1.715-3.773,1.201"/>
		
			<path style="fill:none;stroke:#01043D;stroke-width:0.4478;stroke-linecap:round;stroke-linejoin:round;stroke-miterlimit:10;" d="
			M324.813,204.413c0,0-1.029,1.544-2.916,1.544"/>
		
			<path style="fill:none;stroke:#01043D;stroke-width:0.4478;stroke-linecap:round;stroke-linejoin:round;stroke-miterlimit:10;" d="
			M318.982,203.898c0,0,2.573,0.172,3.773-0.857"/>
		
			<path style="fill:none;stroke:#01043D;stroke-width:0.4478;stroke-linecap:round;stroke-linejoin:round;stroke-miterlimit:10;" d="
			M323.441,200.297c0,0-1.372,1.201-3.259,1.201"/>
		
			<path style="fill:none;stroke:#01043D;stroke-width:0.4478;stroke-linecap:round;stroke-linejoin:round;stroke-miterlimit:10;" d="
			M317.61,197.553c0,0,1.887,1.201,3.945,0.686"/>
		<polyline style="fill:#106299;" points="240.519,87.878 237.175,88.392 236.146,93.023 238.461,93.795 		"/>
		<polyline style="fill:none;stroke:#072938;stroke-width:0.4977;stroke-miterlimit:10;" points="240.519,87.878 237.175,88.392 
			236.146,93.023 238.461,93.795 		"/>
		<g>
			<g>
				<g>
					<g>
						<path style="fill:#FFFFFF;" d="M365.501,121.468c18.008-9.493,24.91-31.787,15.417-49.795
							c-9.493-18.008-31.787-24.91-49.795-15.417c-16.188,8.534-23.393,27.41-17.79,44.22l-11.053,12.987l16.861-2.078
							C329.881,125.329,349.4,129.956,365.501,121.468z"/>
						
							<path style="fill:none;stroke:#01043D;stroke-width:0.5634;stroke-linecap:round;stroke-linejoin:round;stroke-miterlimit:10;" d="
							M367.522,123.405c18.008-9.493,24.91-31.787,15.417-49.795c-9.493-18.008-31.787-24.91-49.795-15.417
							c-16.188,8.534-23.393,27.41-17.79,44.22L304.3,115.399l16.861-2.078C331.902,127.265,351.422,131.892,367.522,123.405z"/>
					</g>
				</g>
			</g>
			<g>
				<path style="fill:#FF5464;" d="M360.583,79.84c-4.319-2.656-9.605-0.805-12.036,4.107c-2.36-4.96-7.619-6.917-11.975-4.347
					c-4.492,2.65-6.315,9.099-4.072,14.404c2.07,4.894,13.917,12.478,15.745,13.627c0.011,0.092,0.018,0.151,0.018,0.151
					s0.045-0.026,0.114-0.068c0.069,0.043,0.113,0.07,0.113,0.07s0.008-0.059,0.021-0.151c1.844-1.112,13.798-8.459,15.937-13.311
					C366.767,89.063,365.036,82.579,360.583,79.84z"/>
				
					<path style="fill:none;stroke:#01043D;stroke-width:0.8387;stroke-linecap:round;stroke-linejoin:round;stroke-miterlimit:10;" d="
					M361.785,81.284c-4.319-2.656-9.605-0.805-12.036,4.107c-2.36-4.96-7.619-6.917-11.976-4.347
					c-4.492,2.65-6.315,9.099-4.072,14.404c2.07,4.894,13.917,12.478,15.745,13.627c0.011,0.092,0.018,0.151,0.018,0.151
					s0.045-0.027,0.114-0.068c0.069,0.043,0.113,0.07,0.113,0.07s0.008-0.059,0.02-0.15c1.844-1.112,13.798-8.459,15.937-13.311
					C367.969,90.507,366.239,84.023,361.785,81.284z"/>
			</g>
			
				<polyline style="fill:none;stroke:#F9AFB8;stroke-width:0.7718;stroke-linecap:round;stroke-linejoin:round;stroke-miterlimit:10;" points="
				324.129,95.044 332.686,95.044 334.488,85.47 336.289,93.981 340.794,93.981 343.496,105.151 344.397,93.981 348.901,93.981 
				349.886,87.165 351.406,93.449 353.857,104.087 356.108,84.938 357.008,93.449 363.764,93.449 365.566,84.406 366.917,92.917 
				375.924,92.917 			"/>
		</g>
	</g>
</g>
</svg>
