<svg xmlns="http://www.w3.org/2000/svg" viewBox="0 0 500 500" style="enable-background:new 0 0 500 500" xml:space="preserve"><path style="fill:#fff" d="M0 0h500v500H0z"/><path style="fill:#f4eedf" d="m48.044 411.878 34.804-43.952c2.555-3.945 10.886-7.038 18.618-7.038h296.12c7.551 0 40.248 45.387 44.153 51.184.154.229.382.383.649.447l9.417 2.235c.29.069.55.249.699.509 4.199 7.295-2.175 19.881-13.228 19.881H59.775c-11.259-.001-16.411-16.043-11.731-23.266z"/><path style="fill:#afbab7" d="m371.824 350.988-.054-.134c-.087-.215.209-.391.658-.391h6.737c.448 0 .895.176.993.391l.061.134c.098.216-.19.393-.641.393h-6.776c-.45 0-.891-.177-.978-.393zM236.573 350.846c-.079-.292.356-.531.966-.531h11.098c.61 0 114.509.239 114.612.531.103.294-113.631.535-114.245.535h-11.171c-.614 0-1.181-.241-1.26-.535zM219.371 350.846c-.048-.292.412-.531 1.022-.531h11.098c.61 0 1.167.239 1.239.531.072.294-.371.535-.985.535h-11.172c-.612 0-1.154-.241-1.202-.535z"/><path style="fill:#fff" d="m48.044 411.878 34.804-53.726c2.555-3.945 10.886-7.038 18.618-7.038h296.12c7.732 0 16.063 3.094 18.618 7.038l34.804 53.726c4.68 7.224-.473 13.491-11.731 13.491H59.775c-11.259-.001-16.411-6.268-11.731-13.491z"/><path style="fill:#ffe49f" d="m75.323 406.92 25.731-45.34c2.003-3.529 9.53-6.303 16.805-6.303h276.195c7.275 0 15.044 2.774 17.355 6.303l29.691 45.34c3.993 6.098-.934 11.362-11.168 11.362H87.483c-10.234-.001-15.621-5.264-12.16-11.362z"/><path style="fill:none;stroke:#01043d;stroke-width:.4739;stroke-linecap:round;stroke-linejoin:round;stroke-miterlimit:10" d="m72.234 406.92 25.731-45.34c2.003-3.529 9.53-6.303 16.805-6.303h276.195c7.275 0 15.044 2.774 17.355 6.303l29.691 45.34c3.993 6.098-.934 11.362-11.168 11.362H84.395c-10.235-.001-15.622-5.264-12.161-11.362z"/><path style="fill:none;stroke:#072938;stroke-width:.4977;stroke-miterlimit:10" d="m71.297 391.319 11.103-18.54c.085-.143 1.547-.259 3.248-.259 1.701 0 3.027.116 2.946.259l-10.48 18.539c-.098.173-1.714.315-3.591.315-1.878 0-3.33-.142-3.226-.314z"/><path style="fill:#fff" d="M437.764 400.94c-3.807 0-8.055-1.934-9.414-4.251l-16.757-28.581c-.991-1.69.801-3.049 3.966-3.049"/><path style="fill:none;stroke:#072938;stroke-width:.4977;stroke-miterlimit:10" d="m50.88 411.007 33.378-52.35c2.472-3.876 10.613-6.919 18.191-6.919h294.355c7.579 0 15.724 3.043 18.2 6.919l33.443 52.35c4.467 6.992-.609 13.049-11.542 13.049H62.438c-10.933 0-16.017-6.056-11.558-13.049z"/><path style="fill:none;stroke:#072938;stroke-width:.4977;stroke-miterlimit:10" d="M436.543 399.929c-2.857 0-6.239-1.767-7.493-3.887l-15.657-26.471"/><path style="fill:#072938" d="M432.204 395.572c-.914 0-1.926-.452-2.258-1.006-.331-.551.136-.996 1.041-.996.905 0 1.913.445 2.252.996.341.554-.121 1.006-1.035 1.006z"/><path style="fill:#072938" d="M431.999 395.235c-.608 0-1.281-.3-1.504-.669-.221-.368.089-.665.693-.665s1.275.297 1.501.665c.226.369-.082.669-.69.669zM425.852 386.613l-6.528-10.818c-.137-.227.087-.413.498-.413.411 0 .86.185.999.413l6.615 10.818c.156.255-.073.464-.51.464s-.92-.209-1.074-.464z"/><path style="fill:#fff" d="m429.486 402.007-.311-.539h2.215l.317.539zM430.145 403.148l-.315-.545h3.062l.322.545zM430.835 404.344l-.318-.551h3.751l.327.551zM431.515 405.523l-.321-.557h4.784l.334.557z"/><path style="fill:none;stroke:#fff;stroke-width:.0455;stroke-miterlimit:10" d="m436.469 412.99-1.746-3.01c-.427-.736.1-1.66.945-1.66.385 0 .743.204.94.538l1.78 3.01c.435.735-.091 1.668-.94 1.668h-.034a1.09 1.09 0 0 1-.945-.546z"/><path style="fill:#fff" d="M437.611 413.21c-.388 0-.748-.207-.944-.545l-2.385-4.102h1.15c.386 0 .743.205.941.54l2.422 4.107h-1.184zM438.803 413.816c.098.166-.027.302-.276.302h-.214c-.25 0-.533-.136-.629-.302"/><path style="fill:none;stroke:#072938;stroke-width:.4977;stroke-miterlimit:10" d="M453.804 417.793s2.325 15.611-14.461 17.343a1.44 1.44 0 0 1-.132.007H116.673M105.354 435.376h-37.56M54.417 433.911s-8.747-5.861-8.232-19.536M134.785 359.743l-20.593 49.91M163.084 359.743l-13.386 49.91M196.012 359.743l-6.178 49.91M226.885 359.743v49.91M259.814 359.743l6.178 49.91M296.344 359.743l15.445 49.91M331.845 359.743l21.623 49.91M367.857 359.743l23.682 49.91"/><path style="fill:#ffe49f" d="M349.986 382.415c0 3.607-53.032 6.531-118.45 6.531s-118.45-2.924-118.45-6.531c0-3.607 53.032-6.532 118.45-6.532s118.45 2.925 118.45 6.532z"/><path style="fill:none;stroke:#072938;stroke-width:.4977;stroke-miterlimit:10" d="M84.307 358.77h-14.35s-2.058 1.029-1.544 4.116l10.804 1.545M178.493 59.684a17.97 17.97 0 0 1 3.863-.274c10.392.385 17.267 9.454 23.951 16.312 9.465 9.711 21.06 14.003 34.568 15.462M165.554 69.781a15.368 15.368 0 0 1 1.905-3.339 17.468 17.468 0 0 1 5.379-4.709M158.486 142.266c.336-1.716.665-3.435.99-5.157 1.165-6.172 2.277-12.374 3.484-18.568 2.756-14.137 5.65-38.644 24.668-39.713 3.57-.201 9.223 1.299 8.982 5.867-.133 2.527-2.12 4.691-4.473 5.621-6.476 2.56-16.515-.658-21.734-4.712-2.993-2.326-4.732-5.002-5.459-7.736M67.9 360.828c-17.848-15.241-28.91-41.445-22.667-64.735 4.293-16.013 12.894-30.54 24.122-42.665 12.017-12.977 27.59-19.956 40.443-31.526 10.908-9.819 13.07-29.969 5.118-42.331-9.319-14.487-30.324-5.443-26.803 11.132 2.185 10.284 13.197 17.207 22.509 20.545 11.254 4.033 21.429-1.072 27.542-10.792 7.441-11.829 12.152-24.441 15.636-37.447.658-2.455 3.046-13.738 3.626-16.219"/><path style="opacity:.43;fill:#c4e5f2" d="M190.461 267.645c45.809-19.931 92.578 3.576 137.63 13.517 17.945 3.959 37.671 9.541 55.884 2.11 16.438-6.706 30.848-20.46 39.644-36.762 14.227-26.367 13.169-59.528 2.65-87.128-6.414-16.829-16.914-31.777-30.022-43.21-24.202-21.11-54.763-32.175-85.259-36.647-28.441-4.171-72.476-11.001-97.13 8.977-26.451 21.434-53.785 25.751-86.457 27.175-26.206 1.142-59.861 5.16-64.811 39.834-3.076 21.547 7.809 31.626 23.058 42.328 13.439 9.432 27.686 17.521 42.504 24.128 10.533 4.697 25.391 15.485 27.791 28.863.922 5.138 1.436 10.531 3.925 15.024 2.547 4.596 7.124 7.815 12.051 8.477 6.929.933 12.45-4.035 18.542-6.686z"/><path style="fill:none;stroke:#3f95e6;stroke-width:.7718;stroke-miterlimit:10" d="M116.957 96.215c7.364 0 13.485 5.282 14.806 12.261 3.422-.934 7.234-.065 9.922 2.623a10.156 10.156 0 0 1 2.637 4.581 6.062 6.062 0 0 1 6.659 1.288c1.315 1.315 1.873 3.081 1.728 4.799h-9.03M113.839 96.196s-3.185.335-4.526 1.676M140.661 121.677H80.193s1.167-6.784 7.818-6.185"/><path style="fill:none;stroke:#3f95e6;stroke-width:.7718;stroke-miterlimit:10" d="M135.632 110.613s3.688.335 5.029 2.682M104.048 106.882s-6.641-1.082-10.757 2.348M153.384 213.844c5.786 0 10.596 4.15 11.633 9.634a8.019 8.019 0 0 1 7.796 2.061 7.98 7.98 0 0 1 2.072 3.599 4.763 4.763 0 0 1 5.232 1.012c1.033 1.033 1.472 2.421 1.358 3.771h-7.095M150.934 213.829s-2.503.264-3.556 1.317M172.009 233.85H124.498s.917-5.33 6.143-4.86"/><path style="fill:none;stroke:#3f95e6;stroke-width:.7718;stroke-miterlimit:10" d="M168.058 225.157s2.898.263 3.951 2.107M143.241 222.226s-5.218-.851-8.452 1.845M391.721 136.359c10.939 0 20.033 7.846 21.995 18.215 5.084-1.387 10.747-.096 14.74 3.897a15.093 15.093 0 0 1 3.917 6.805c3.282-1.392 7.217-.762 9.893 1.913 1.953 1.953 2.782 4.577 2.568 7.13h-13.415M387.088 136.331s-4.731.498-6.724 2.49M426.935 174.185h-89.828s1.734-10.078 11.614-9.189"/><path style="fill:none;stroke:#3f95e6;stroke-width:.7718;stroke-miterlimit:10" d="M419.464 157.749s5.479.498 7.471 3.985M372.543 152.207s-9.866-1.608-15.981 3.488"/><path style="fill:#fff1c9" d="M96.154 140.367h4.028v15.544h-4.028zM104.066 140.367h4.029v15.544h-4.029zM136.979 140.367v7.196l-12.088-6.494v14.141l12.088-6.495v7.196h4.028v-15.544zM67.815 140.367h-4.029v15.544h4.029v-7.196l12.088 6.495v-14.141l-12.088 6.494z"/><path style="fill:none;stroke:#4b5077;stroke-width:.7718;stroke-miterlimit:10" d="M94.094 139.337h4.028v15.544h-4.028zM102.006 139.337h4.029v15.544h-4.029zM134.92 139.337v7.197l-12.088-6.494v14.14l12.088-6.495v7.197h4.028v-15.545zM65.755 139.337h-4.028v15.545h4.028v-7.197l12.089 6.495v-14.14l-12.089 6.494z"/><path style="fill:#ff5464" d="M349.982 253.029h-3.668v-11.003h3.668v11.003zm7.336-11.003h-7.336v-3.668h7.336v3.668zm0 14.671h-7.336v-3.668h7.336v3.668zm3.668-3.668h-3.668v-11.003h3.668v11.003zM382.992 238.358v3.668h-11.004v3.668h7.336v3.667H368.32v-11.003h14.672zm-3.668 14.671H368.32v3.668h11.004v-3.668zm0 0h3.668v-3.668h-3.668v3.668zM386.658 242.026h3.668v3.668h-3.668v-3.668zm0 7.335h3.668v3.668h-3.668v-3.668zM408.663 242.026H397.66v-3.668h11.003v3.668zm0 14.671H397.66v-3.668h11.003v3.668zm-7.335-11.003h7.335v3.667h-7.335v-3.667zm7.335-3.668h3.668v3.668h-3.668v-3.668zm0 7.335h3.668v3.668h-3.668v-3.668zM430.669 242.026h-11.003v-3.668h11.003v3.668zm-11.003 14.671v-7.336h3.668v3.668h11.003v3.668h-14.671zm3.668-11.003h7.335v3.667h-7.335v-3.667zm7.335-3.668h3.668v3.668h-3.668v-3.668z"/><path style="fill:#ffc832" d="M328.294 234.561v-4.363h3.8a1.425 1.425 0 0 0 0-2.85h-10.449a1.425 1.425 0 0 0 0 2.85h3.8v4.363c-6.139.71-10.924 5.933-10.924 12.26 0 6.809 5.54 12.349 12.348 12.349s12.348-5.54 12.348-12.349c0-6.327-4.784-11.551-10.923-12.26zm-1.425 21.758c-5.238 0-9.499-4.261-9.499-9.499s4.261-9.499 9.499-9.499 9.499 4.261 9.499 9.499-4.261 9.499-9.499 9.499z"/><path style="fill:#ffc832" d="M331.143 245.395h-4.274a1.425 1.425 0 0 0 0 2.85h4.274a1.425 1.425 0 0 0 0-2.85z"/><path style="fill:none;stroke:#01043d;stroke-width:.4726;stroke-linecap:round;stroke-linejoin:round;stroke-miterlimit:10" d="M329.323 234.561v-4.363h3.8a1.425 1.425 0 0 0 0-2.85h-10.449a1.425 1.425 0 0 0 0 2.85h3.8v4.363c-6.139.71-10.924 5.933-10.924 12.26 0 6.809 5.54 12.349 12.349 12.349s12.348-5.54 12.348-12.349c0-6.327-4.784-11.551-10.924-12.26zm-1.424 21.758c-5.238 0-9.499-4.261-9.499-9.499s4.261-9.499 9.499-9.499 9.499 4.261 9.499 9.499-4.262 9.499-9.499 9.499z"/><path style="fill:none;stroke:#01043d;stroke-width:.4726;stroke-linecap:round;stroke-linejoin:round;stroke-miterlimit:10" d="M332.173 245.395h-4.274a1.425 1.425 0 0 0 0 2.85h4.274a1.425 1.425 0 0 0 0-2.85zM352.043 251.999h-3.668v-11.002h3.668v11.002zm7.334-11.002h-7.335v-3.668h7.335v3.668zm0 14.67h-7.335v-3.668h7.335v3.668zm3.668-3.668h-3.668v-11.002h3.668v11.002zM385.051 237.329v3.668h-11.003v3.667h7.335v3.667H370.38v-11.002h14.671zm-3.668 14.67H370.38v3.668h11.003v-3.668zm0 0h3.668v-3.668h-3.668v3.668zM388.718 240.997h3.667v3.667h-3.667v-3.667zm0 7.334h3.667v3.668h-3.667v-3.668zM410.722 240.997H399.72v-3.668h11.003v3.668zm0 14.67H399.72v-3.668h11.003v3.668zm-7.334-11.003h7.335v3.667h-7.335v-3.667zm7.334-3.667h3.668v3.667h-3.668v-3.667zm0 7.334h3.668v3.668h-3.668v-3.668zM432.728 240.997h-11.003v-3.668h11.003v3.668zm-11.003 14.67v-7.336h3.668v3.668h11.003v3.668h-14.671zm3.668-11.003h7.335v3.667h-7.335v-3.667zm7.335-3.667h3.668v3.667h-3.668v-3.667z"/><path style="fill:#4b5077" d="M314.209 149.785c.368-1.378.409-2.977-.012-4.836-1.748-7.708-9.747-12.489-17.829-10.656-8.083 1.833-13.236 9.596-11.488 17.304.422 1.859 1.149 3.284 2.075 4.368-3.355 4.51-4.82 10.266-3.514 16.024 2.44 10.759 12.107 10.986 23.387 8.427 11.281-2.558 19.904-6.933 17.465-17.691-1.307-5.758-5.111-10.318-10.084-12.94zm-25.485.94c-1.29-5.687 2.512-11.413 8.475-12.766 5.963-1.352 11.863 2.174 13.153 7.861.196.863.272 1.679.181 2.453a21.582 21.582 0 0 0-11.085-.397 21.581 21.581 0 0 0-9.829 5.14c-.416-.659-.699-1.428-.895-2.291z"/><path style="fill:#dcd7f6" d="M324.292 162.725c-1.306-5.758-5.11-10.318-10.083-12.94.368-1.378.409-2.977-.012-4.836-1.748-7.708-9.747-12.489-17.829-10.656a15.468 15.468 0 0 0-6.987 3.634 15.59 15.59 0 0 1 5.271-2.281c8.083-1.833 16.081 2.947 17.829 10.656.422 1.859.381 3.458.013 4.836 4.972 2.622 8.777 7.183 10.082 12.94 1.176 5.184-.234 8.876-3.256 11.607 4.185-2.827 6.353-6.869 4.972-12.96z"/><path style="fill:#9cc5e8" d="M289.619 153.017c.144-.132.298-.255.446-.383-.159.112-.31.232-.466.348.008.011.013.023.02.035z"/><path style="fill:none;stroke:#01043d;stroke-width:.4342;stroke-linecap:round;stroke-linejoin:round;stroke-miterlimit:10" d="M315.429 148.479c.368-1.378.409-2.977-.013-4.836-1.748-7.709-9.747-12.489-17.829-10.656-8.083 1.833-13.236 9.596-11.488 17.304.422 1.859 1.149 3.284 2.075 4.368-3.355 4.511-4.82 10.266-3.514 16.024 2.44 10.759 12.107 10.986 23.387 8.427 11.281-2.558 19.904-6.933 17.465-17.692-1.306-5.756-5.111-10.316-10.083-12.939zm-25.485.941c-1.29-5.687 2.512-11.413 8.475-12.766 5.962-1.352 11.863 2.174 13.152 7.861.196.863.272 1.679.181 2.453-3.458-1.052-7.258-1.265-11.085-.397s-7.163 2.699-9.829 5.14c-.415-.659-.699-1.428-.894-2.291z"/><text transform="matrix(1.0226 -.2319 .2212 .9752 296.438 168.86)" style="fill:#f4efff;font-family:'IntroHeadR-Base';font-size:11.8399px;letter-spacing:.954">5Kg</text><text transform="rotate(-8.673 972.116 -1075.718)" style="fill:#ffc832;font-family:'IntroHeadR-Base';font-size:41.5321px;letter-spacing:4">GO!</text><text transform="rotate(-8.673 971.601 -1082.508)" style="fill:none;stroke:#01043d;stroke-width:.4726;stroke-linecap:round;stroke-linejoin:round;stroke-miterlimit:10;font-family:'IntroHeadR-Base';font-size:41.5321px;letter-spacing:4">GO!</text><path style="fill:#fbc2a8" d="M324.775 194.73c.344-.551 2.514-5.228 2.597-5.446.083-.218 4.833-3.676 5.193-4.054 0 0 1.279-.56 1.793-.513 0 0 2.542-1.341 2.643-.82 0 0 .69 1.678-.307 2.545 0 0-1.919 1.712-2.807 1.772l-1.622 1.676s9.067-2.632 10.236-1.794c0 0 1.889 2.087 1.841 3.216 0 0-.456.78-.805 1.257l.774.304s.622 1.245.137 2.232c0 0-1.144.919-2.044 1.554l-.459.482s1.173 1.313-.122 2.815c0 0-.225.104-.595.261l.127.326.285.242s.157 1.679-.447 1.981l-1.85.313s-.854.783-1.679.911c-.826.128-3.547.863-4.252 1.259l-.706.396s-2.948 1.295-5.485.364l-2.169.288s-.593.843-2.036-2.171c-1.444-3.014-.821-7.169-.62-7.258.201-.09 1.362-.777 1.362-.777l1.017-1.361z"/><path style="fill:#fbc2a8" d="M324.775 194.73c.344-.551 2.514-5.228 2.597-5.446.083-.218 4.833-3.676 5.193-4.054 0 0 1.279-.56 1.793-.513 0 0 2.542-1.341 2.643-.82 0 0 .69 1.678-.307 2.545 0 0-1.919 1.712-2.807 1.772l-1.622 1.676s9.067-2.632 10.236-1.794c0 0 1.889 2.087 1.841 3.216 0 0-.456.78-.805 1.257l.774.304s.622 1.245.137 2.232c0 0-1.144.919-2.044 1.554l-.459.482s1.173 1.313-.122 2.815c0 0-.225.104-.595.261l.127.326.285.242s.157 1.679-.447 1.981l-1.85.313s-.854.783-1.679.911c-.826.128-3.547.863-4.252 1.259l-.706.396s-2.948.266-5.485-.666l-2.169 1.318s-.593.843-2.036-2.171c-1.444-3.014-.821-7.169-.62-7.258.201-.09 1.362-.777 1.362-.777l1.017-1.361z"/><path style="fill:none;stroke:#01043d;stroke-width:.4103;stroke-linecap:round;stroke-linejoin:round;stroke-miterlimit:10" d="M324.775 194.73c.344-.551 2.514-5.228 2.597-5.446.083-.218 4.833-3.676 5.193-4.054 0 0 1.279-.56 1.793-.513 0 0 2.344-1.3 2.656-1.115 0 0 .203.427-2.071 1.238"/><path style="fill:none;stroke:#01043d;stroke-width:.4103;stroke-linecap:round;stroke-linejoin:round;stroke-miterlimit:10" d="M337.002 183.896s.69 1.678-.307 2.545c0 0-2.427 2.084-3.394 1.698"/><path style="fill:none;stroke:#01043d;stroke-width:.4103;stroke-linecap:round;stroke-linejoin:round;stroke-miterlimit:10" d="M334.466 187.919s-1.432.7-2.465 2.402"/><path style="fill:none;stroke:#01043d;stroke-width:.4103;stroke-linecap:round;stroke-linejoin:round;stroke-miterlimit:10" d="M332.265 189.889s9.067-2.632 10.236-1.794c0 0 1.889 2.087 1.841 3.216 0 0-.456.78-.805 1.257 0 0-.904 1.174-.895 1.355.009.181-.771.77-1.719.319 0 0-1.062-1.227-.709-2.556 0 0 .388-.639.707-.806"/><path style="fill:none;stroke:#01043d;stroke-width:.4103;stroke-linecap:round;stroke-linejoin:round;stroke-miterlimit:10" d="M341.18 190.956s-.389-.492-.505-.825M342.319 193.81s-.585-.878-.631-1.339c0 0 .038-.507.139-.568"/><path style="fill:none;stroke:#01043d;stroke-width:.4103;stroke-linecap:round;stroke-linejoin:round;stroke-miterlimit:10" d="M343.537 192.567s.54.023.774.304c0 0 .622 1.245.137 2.232 0 0-2.553 2.05-3.032 2.144 0 0-2.388.618-2.805.78-.417.162-1.777.907-2.244-.425 0 0-.245-1.535 1.24-2.111 0 0 1.335-.532 1.762-.924"/><path style="fill:none;stroke:#01043d;stroke-width:.4103;stroke-linecap:round;stroke-linejoin:round;stroke-miterlimit:10" d="M337.986 196.18s-.71.494-.764.606-.095.685.164 1.139M341.945 197.139s1.173 1.313-.122 2.815c0 0-.225.104-.595.261-1.024.433-3.162 1.27-4.758 1.442 0 0-1.17.13-1.321.205-.151.076-1.509.377-1.46-1.113 0 0 .226-1.056 1.285-1.273 0 0 .822-.44 1.103-.854"/><path style="fill:none;stroke:#01043d;stroke-width:.4103;stroke-linecap:round;stroke-linejoin:round;stroke-miterlimit:10" d="M334.881 201.604s-.8-.838-.174-1.286M339.343 203.076s-.854.783-1.679.911c-.826.128-3.547.863-4.252 1.259l-.706.396s-5.242.821-7.929-1.493M324.347 195.703s-1.358 1.056-1.688 1.107M327.081 206.021l-1.574.346M333.473 199.28s-1.093 1.002-.478 1.947M336.672 195.09s-1.343.729-.865 1.799M336.367 194.568s-.482.348-.538.493"/><path style="fill:none;stroke:#01043d;stroke-width:.4103;stroke-linecap:round;stroke-linejoin:round;stroke-miterlimit:10" d="m341.568 200.669.285.242s.157 1.679-.447 1.981c0 0-3 .362-3.78.197 0 0-2.365-.66-2.264-1.099M336.33 201.196s-.054-.265-.179-.401M341.806 196.678l-.077-.495"/><path style="fill:#f4581b" d="M240.775 93.277s0-3.773-2.401-4.802c0 0 2.401 3.088 2.401 4.802z"/><path style="fill:#f4581b" d="M243.286 94.666s-5.315-3.581-9.044-1.175c0 0 6.628-.453 9.044 1.175z"/><path style="fill:#c7e3f9" d="m127.791 290.294-5.331-2.867s-7.627 4.699-2.357 13.147l5.733-3.44 1.955-6.84z"/><path style="fill:#fff" d="M122.993 287.189s-1.701-.751-2.806 6.344c0 0-1.718 3.609.987 5.342 0 0-3.46 5.849-6.27 7.523-2.81 1.675-9.21 10.033-9.21 10.033s-3.898 3.207-6.562-1.516c0 0-2.139-6.309 2.263-14.231 0 0 6.284-9.056 7.567-11.84 1.283-2.784 3.913-7.615 6.333-6.785 0 .001 7.739 2.14 7.698 5.13z"/><path style="fill:#e45a3f" d="M120.243 300.348c.574-.87.931-1.472.931-1.472-2.704-1.733-.987-5.342-.987-5.342 1.105-7.095 2.806-6.344 2.806-6.344.006-.451-.18-.879-.474-1.287-3.85 3.98-7.217 10.393-2.276 14.445zM105.694 316.432s.709-.925 1.75-2.212c.498-3.701-1.329-4.101-3.894-7.292-1.338-1.664-2.433-1.651-1.167-3.695 2.243-3.618 4.599-10.328 7.442-13.419 2.098-2.28 4.351-5.053 5.611-7.715l-.141-.041c-2.42-.829-5.05 4.001-6.333 6.785-1.283 2.784-7.567 11.84-7.567 11.84-4.402 7.922-2.263 14.231-2.263 14.231 2.663 4.725 6.562 1.518 6.562 1.518z"/><path style="fill:none;stroke:#01043d;stroke-width:.4044;stroke-linecap:round;stroke-linejoin:round;stroke-miterlimit:10" d="M99.132 314.916c3.402 5.091 8.437-.69 8.437-.69 1.875-2.205 7.335-7.828 7.335-7.828 3.019-2.187 6.067-5.895 6.067-5.895-3.901-7.279 2.022-13.315 2.022-13.315"/><path style="fill:none;stroke:#01043d;stroke-width:.4044;stroke-linecap:round;stroke-linejoin:round;stroke-miterlimit:10" d="M107.074 314.603s1.574-3.874-5.212-9.252"/><path style="fill:none;stroke:#01043d;stroke-width:.4044;stroke-linecap:round;stroke-linejoin:round;stroke-miterlimit:10" d="M100.62 316.352c-2.336-5.71 1.763-13.118 1.763-13.118l8.56-14.827 4.352-6.348-2.403-.63-3.931 7.415-8.024 11.942s-4.22 6.663-2.505 12.451"/><path style="fill:none;stroke:#01043d;stroke-width:.3702;stroke-linecap:round;stroke-linejoin:round;stroke-miterlimit:10" d="M113.142 309.985s1.555-2.113-.717-3.538M115.226 308.057s1.555-2.113-.717-3.538"/><path style="fill:none;stroke:#01043d;stroke-width:.434;stroke-linecap:round;stroke-linejoin:round;stroke-miterlimit:10" d="m117.278 282.885 4.233 2.901s-4.439 2.898-3.915 11.054"/><path style="fill:#3f95e6" d="M243.63 216.322c3.783 3.567 6.413 8.434 6.967 14.386.485 5.219-.957 12.241-4.772 16.064-4.148 4.156-2.357 1.102-5.694 6.26-31.321 48.416-45.724 48.76-45.724 48.76-13.068.492-65.873-2.058-65.873-2.058-4.052 3.903-5.867 1.453-5.867 1.453l1.708-11.683c1.776-8.301 6.03-1.444 6.03-1.444l46.624-9.528 8.973.746c6.073 1.153 6.256-2.209 6.256-2.209l17.977-45.217c2.121-5.335 3.287-10.342 7.316-14.78 9.483-10.446 16.695-9.597 26.079-.75z"/><linearGradient id="a" gradientUnits="userSpaceOnUse" x1="115.492" y1="288.563" x2="252.812" y2="288.563" gradientTransform="rotate(-16.869 98.882 259.196)"><stop offset="0" style="stop-color:#0098f3;stop-opacity:0"/><stop offset="1" style="stop-color:#0098f3"/></linearGradient><path style="fill:url(#a)" d="M243.63 216.322c-9.384-8.848-16.595-9.696-26.079.752-4.029 4.439-5.195 9.445-7.316 14.78l-.364.915c3.449 10.708 2.095 22.293-3.076 32.475-1.963 3.866-4.266 7.614-6.735 11.172-2.387 3.441-5.094 7.196-8.664 9.501-3.425 2.211-7.733 2.406-11.688 2.347-5.471-.083-10.955-1.06-16.429-.708-5.771.371-13.195.164-19.436-1.825l-14.331 3.108-.978 10.897s52.805 2.549 65.873 2.058c0 0 14.403-.344 45.724-48.76 3.337-5.158 1.546-2.104 5.694-6.26 3.816-3.823 5.258-10.845 4.772-16.064-.554-5.953-3.184-10.821-6.967-14.388z"/><path style="fill:#106299" d="M129.467 299.779c-.181-4.162-.166-8.335.429-12.431-1.181-1.511-4.121-4.389-5.522 2.157l-1.708 11.683s1.815 2.449 5.867-1.453l.934.044z"/><path style="fill:none;stroke:#01043d;stroke-width:.472;stroke-linecap:round;stroke-linejoin:round;stroke-miterlimit:10" d="M240.68 251.773s-21.907 33.409-35.499 43.701M202.002 297.89s-5.184 5.195-14.081 3.945l-57.167-2.37M130.405 288.061l41.832-8.861s4.751-.731 7.1-.005l9.024.489M210.234 231.854l-13.702 34.864M194.5 270.587l-1.833 4.531M128.533 299.734s-4.374 3.766-5.867 1.453l1.708-11.683s.27-6.219 4.227-3.098c0 0 1.888-.216.787 7.339l-.094 3.819"/><path style="fill:none;stroke:#01043d;stroke-width:.472;stroke-linecap:round;stroke-linejoin:round;stroke-miterlimit:10" d="M125.337 287.947s2.452-1.291 3.536.543M125.233 289.964s1.915-1.307 3.798.824M124.642 292.13s2.385 1.436 4.173.89M124.611 295.569s.759 1.934 3.898 1.154M123.618 298.76s.533 2.364 3.473.923"/><path style="fill:none;stroke:#01043d;stroke-width:.3702;stroke-linecap:round;stroke-linejoin:round;stroke-miterlimit:10" d="m124.192 288.568-1.731-1.14M122.656 298.513l-1.482.363"/><path style="fill:#c7e3f9" d="m283.449 366.117.439 6.058s8.057 4.053 12.362-4.88l-5.978-3.095-6.823 1.917z"/><path style="fill:#fff" d="M283.401 371.845s.278 1.848 6.86-.929c0 0 3.968-.425 3.98-3.645 0 0 6.792-.111 9.713 1.412 2.921 1.523 13.408 2.608 13.408 2.608s4.798 1.649 2.239 6.402c0 0-4.856 4.882-13.903 5.275 0 0-11.014-.62-14.052-.256-3.038.364-7.848.904-8.446-1.599 0 0-2.345-7.735.201-9.268z"/><path style="fill:#e45a3f" d="M295.984 367.295c-1.042-.034-1.742-.024-1.742-.024-.012 3.22-3.98 3.645-3.98 3.645-6.582 2.777-6.86.929-6.86.929-.384.231-.646.615-.832 1.08 5.424 1.203 12.643.716 13.414-5.63zM317.362 371.292s-1.161-.121-2.806-.336c-3.391 1.516-2.749 3.286-4.066 7.151-.687 2.015-.767 2.691-3.17 2.681-4.256-.019-11.184 1.487-15.318.678-3.05-.597-5.921-.814-8.844-.495l.042.142c.598 2.503 5.408 1.962 8.446 1.599 3.038-.364 14.052.256 14.052.256 9.047-.393 13.903-5.275 13.903-5.275 2.559-4.752-2.239-6.401-2.239-6.401z"/><path style="fill:none;stroke:#01043d;stroke-width:.4726;stroke-linecap:round;stroke-linejoin:round;stroke-miterlimit:10" d="M319.602 377.694c2.473-5.577-5.107-6.848-5.107-6.848-2.867-.446-10.54-2.162-10.54-2.162-3.465-1.433-8.229-2.093-8.229-2.093-4.052 7.15-12.324 5.255-12.324 5.255l-.093-2.616c-4.202-.343-2.775-5.999-2.775-5.999l12.981-3.765"/><path style="fill:none;stroke:#01043d;stroke-width:.4049;stroke-linecap:round;stroke-linejoin:round;stroke-miterlimit:10" d="M315.078 371.072s-4.114.687-5.015 9.305"/><path style="fill:none;stroke:#01043d;stroke-width:.4049;stroke-linecap:round;stroke-linejoin:round;stroke-miterlimit:10" d="M320.016 375.669c-3.566 4.991-12.695 5.119-12.695 5.119l-17.105.461-7.015-.136.757 2.383 7.689-.784 14.383.594s8.565.366 12.53-4.135"/><path style="fill:none;stroke:#01043d;stroke-width:.3706;stroke-linecap:round;stroke-linejoin:round;stroke-miterlimit:10" d="M307.926 368.309s-2.52 1.232-2.504 3.921M305.181 367.538s-2.52 1.232-2.504 3.921"/><path style="fill:none;stroke:#01043d;stroke-width:.4345;stroke-linecap:round;stroke-linejoin:round;stroke-miterlimit:10" d="m282.833 378.986.179-5.139s4.827 2.273 11.43-2.452"/><path style="fill:#3f95e6" d="M214.018 211.443c3.433.173 38.077 5.832 39.792 8.919 1.715 3.087-1.372 14.406-1.372 14.406C297.715 274.557 296 289.65 296 289.65c-1.372 13.72-2.743 69.289-2.743 69.289 3.43 4.802 1.714 6.173 1.714 6.173l-11.662 4.116c-4.116.686-2.744-6.176-2.744-6.176L269.59 304.4l2.057-9.262c2.058-6.174-1.372-6.856-1.372-6.856l-43.905-26.415s-29.5-11.321-14.408-41.506c-.001-.001-1.377-9.091 2.056-8.918z"/><path style="fill:none;stroke:#fff;stroke-width:1.029;stroke-linecap:round;stroke-miterlimit:10" d="M225.683 213.503s-2.401 4.116-2.744 6.174c-.343 2.058-9.261 19.895 15.092 33.615 24.354 13.72 42.876 27.098 45.62 32.586 2.744 5.488-.343 15.436-1.372 19.209-1.029 3.773-.343 42.876 4.459 55.911"/><path style="fill:#3f95e6" d="M264.13 139.033s-11.619-3.424-14.347 8.001c-2.094 8.769 8.774 42.713 13.09 53.378 0 0 3.269 5.079 9.145.728 0 0 3.997-4.066 1.252-10.762 0 0-4.581-32.753-2.748-38.414 0 0 .612-11.109-6.392-12.931z"/><linearGradient id="b" gradientUnits="userSpaceOnUse" x1="261.875" y1="202.902" x2="261.875" y2="138.552"><stop offset="0" style="stop-color:#0098f3;stop-opacity:0"/><stop offset="1" style="stop-color:#0098f3"/></linearGradient><path style="fill:url(#b)" d="M264.13 139.033s-11.619-3.424-14.347 8.001c-2.094 8.769 8.774 42.713 13.09 53.378 0 0 3.269 5.079 9.145.728 0 0 3.997-4.066 1.252-10.762 0 0-4.581-32.753-2.748-38.414 0 0 .612-11.109-6.392-12.931z"/><path style="fill:#3f95e6" d="M266.014 203.949c5.474 6.257 21.933 5.125 29.335 6.247 4.694.711 9.667.21 14.086 1.266 2.197.525 12.949 6.636 13.262-.205 0 0 .726-15.896-6.006-18.749 0 0-4.535-1.707-8.72 2.851-4.185 4.558-7.995 2.407-12.086 1.425s-28.682-11.831-30.624-1.166c-.578 3.175-.861 6.486.753 8.331z"/><path style="fill:#106299" d="M327.152 207.148s-1.362 1.387-4.196 2.055c0 0-4.136-1.336-5.43-12.228 0 0-.3-2.655 2.166-3.503 0 0 4.088-.554 4.662 2.007 0 0-1.759 4.655 1.033 9.211.001.001 2.21 1.08 1.765 2.458z"/><path style="fill:#3f95e6" d="M259.727 137.526c16.976 3.602 9.091 38.269 4.545 48.879-2.803 6.543-8.952 11.19-8.384 18.179.402 4.952 1.073 9.318-2.078 15.779 0 0-25.726 1.372-36.703-6.86 0 0-9.212-3.527-2.4-17.15 3.43-6.86-4.46-52.824 13.377-60.37 0 0 10.29-5.831 16.464-4.458 6.139 1.363 15.024 5.968 15.179 6.001z"/><linearGradient id="c" gradientUnits="userSpaceOnUse" x1="212.197" y1="177.747" x2="256.084" y2="177.747"><stop offset="0" style="stop-color:#0098f3"/><stop offset="1" style="stop-color:#0098f3;stop-opacity:0"/></linearGradient><path style="fill:url(#c)" d="M247.677 213.693c-4.992 1.14-4.66 2.442-9.701.864-17.668-5.532-10.056-26.183-3.702-37.742 4.417-8.037 9.728-17.366 10.878-26.801.518-4.253-1.339-8.621-4.209-11.919-2.127-2.444-8.037-1.962-11.059-3.049a38.516 38.516 0 0 0-1.799.936c-17.837 7.546-9.947 53.51-13.377 60.37-6.812 13.624 2.4 17.15 2.4 17.15 10.976 8.232 36.703 6.86 36.703 6.86 1.365-2.799 2.011-5.204 2.274-7.434-2.585-.345-5.451.09-8.408.765z"/><path style="fill:#fbc2a8" d="M248.462 118.027s-2.21 11.105-3.591 13.267l14.481 3.217 1.813-6.077-12.703-10.407z"/><linearGradient id="d" gradientUnits="userSpaceOnUse" x1="237.377" y1="83.731" x2="252.631" y2="83.731" gradientTransform="rotate(14.828 83.316 139.544)"><stop offset="0" style="stop-color:#da626f;stop-opacity:0"/><stop offset="1" style="stop-color:#da626f"/></linearGradient><path style="opacity:.61;fill:url(#d)" d="M251.531 130.327c1.421 1.374 3.171 2.921 5.108 4.29l3.156-.072 1.623-6.13-13.173-9.845c-.322 3.851.451 9.016 3.286 11.757z"/><path style="fill:#106299" d="M261.443 133.665s.408 2.328-.936 5.603c0 0-4.247 3.145-15.932-3.283 0 0-2.837-1.582-1.93-4.62 0 0-.343-3.779 2.594-2.535 0 0 6.047 4.378 12.526 4.84-.001 0 2.629-1.421 3.678-.005z"/><path style="fill:#f4581b" d="M240.874 91.185s-1.012-13.385 16.381-15.536c0 0 48.005-11.012 28.171 23.9l-34.312-2.063 1.306 10.56-2.638-.935s-3.574 1.703-.551 5.744l1.621 7.998c-.001.001-24.124-16.566-9.978-29.668z"/><path style="fill:#f4581b" d="M267.229 102.576c2.251 4.958 8.095 7.153 13.053 4.902 4.958-2.251 9.473-14.165 7.222-19.123-2.251-4.958-10.415-1.083-15.374 1.168-4.957 2.251-7.152 8.095-4.901 13.053z"/><path style="fill:#fbc2a8" d="M247.174 110.257c1.442 15.438 11.821 26.366 23.544 25.803 5.631-.271 15.871-17.349 14.429-32.787-1.442-15.438-11.506-25.702-23.188-24.611-11.683 1.091-16.228 16.156-14.785 31.595z"/><path style="opacity:.2;fill:#da626f" d="M261.958 78.661c-11.682 1.091-16.227 16.157-14.785 31.595.095 1.019.24 2.012.412 2.99.277-.038.556-.069.839-.088 2.228-.147 4.477.251 6.693.557 1.485-3.343 3.607-5.679 2.903-9.701-.085-.486.292-.929.804-.803 9.32 2.289 17.888 1.523 25.903-3.008-2.405-13.707-11.88-22.559-22.769-21.542z"/><path style="fill:none;stroke:#231113;stroke-width:.8527;stroke-linecap:round;stroke-linejoin:round;stroke-miterlimit:10" d="M268.032 124.837c2.443-.189 4.935.29 7.133 1.374"/><path style="fill:#f4581b" d="M269.013 74.186c-19.601-.202-27.698 19.867-27.698 19.867l7.193 23.179 7.595-4.699 5.991-11.37s13.068 5.234 23.333.444c-.001.001 11.978-27.128-16.414-27.421z"/><path style="fill:#fbc2a8" d="M256.125 110.257c.293-1.803-.038-1.539-1.123-2.786-1.217-1.398-2.92-2.252-4.603-1.052-4.14 2.951-.837 9.338 2.059 9.459 1.168.049 2.234-.545 3.104-1.272.773-.646.064-1.764.306-2.805.014-.06.247-1.486.257-1.544z"/><path style="fill:none;stroke:#01043d;stroke-width:.5685;stroke-linecap:round;stroke-linejoin:round;stroke-miterlimit:10" d="M250.323 109.148s2.072-1.603 3.618 1.606M252.315 110.529s-.901.75-.258 2.277"/><path style="fill:none;stroke:#01043d;stroke-width:.3796;stroke-linecap:round;stroke-linejoin:round;stroke-miterlimit:10" d="M252.74 105.762s-3.48-.174-3.948 2.345"/><path style="fill:#f4581b" d="M257.905 103.841s3.515 6.163-.751 8.731c0 0-1.086 5.609-3.337 6.483l4.088-15.214z"/><path style="fill:#f9835f" d="M288.064 83.034a5.492 5.492 0 0 1-.147 1.729c-2.858 12.039-22.576-5.937-7.002-6.491 2.404-.086 6.842 1.152 7.149 4.762z"/><path style="fill:#fbc2a8" d="M282.622 115.573s1.029 6.517 1.715 7.546c.686 1.029-1.715 0-3.43-1.372s1.715-6.174 1.715-6.174z"/><path style="fill:#ea8a63" d="m273.715 118.973-5.075-2.834a1.97 1.97 0 0 0-2.673.758l-.093.166a1.972 1.972 0 0 0 .758 2.674l5.073 2.833a1.971 1.971 0 0 0 2.674-.757l.093-.166a1.97 1.97 0 0 0-.757-2.674z"/><path style="fill:#fbc2a8" d="M267.515 111.779c-1.856 2.941-.244 6.132 2.457 7.907 2.661 1.749 4.959 1.33 7.533-.18 1.979-1.161 4.04-2.276 5.804-1.444.795-2.795 1.345-5.733 1.544-8.691a19.834 19.834 0 0 0-3.534-1.585c-5.043-1.665-10.748-.849-13.804 3.993z"/><path style="fill:#106299" d="M293.514 359.465c-1.85.608-3.728 1.134-5.598 1.677-2.434.707-4.931 1.342-7.383 2.088-.176 1.028-.966 6.623 2.775 5.999l11.662-4.116s1.579-1.283-1.375-5.673l-.081.025z"/><path style="fill:none;stroke:#01043d;stroke-width:.4726;stroke-linecap:round;stroke-linejoin:round;stroke-miterlimit:10" d="M207.761 233.74s-3.687 18.693 18.608 28.126l22.553 13.292M251.237 276.959l3.087 1.801M258.698 281.333l11.577 6.949s3.087 1.284 1.543 5.914l-1.029 3.344M269.76 301.913c0 .772-.515 4.888.514 7.718l9.004 47.85M248.922 231.939s26.755 24.697 30.356 29.585l5.402 6.174M288.282 273.1s5.145 7.975 5.917 11.062M295.485 291.366l-2.315 61.484M294.714 361.34s3.859 4.116-5.145 5.917l-4.888 1.286M294.242 367.271l-.815-1.043M283.309 369.229c-4.202-.343-2.775-5.999-2.775-5.999l12.981-3.765"/><path style="fill:none;stroke:#01043d;stroke-width:.4726;stroke-linecap:round;stroke-linejoin:round;stroke-miterlimit:10" d="M290.598 359.539s3.087 1.544 3.087 4.631M289.311 361.34s1.029 2.058.772 4.631M285.452 362.369s.257 3.344 1.543 5.402M282.108 363.141s0 3.602 1.286 4.888"/><path style="fill:#106299" d="M255.181 215.564s1.814 3.653-1.647 5.691c0 0-16.484 2.849-40.934-8.331 0 0-2.548-2.007-.285-5.475 0 .001 34.576 13.137 42.866 8.115z"/><path style="fill:#3f95e6" d="M243.293 147.49s1.241-13.716-10.407-13.566c-8.939.115-42.735 23.052-51.941 29.79 0 0-4.09 4.376 1.519 8.97 0 0 7.906.318 13.679-3.946 0 0 30.381-12.353 36.268-11.964-.001.001 10.83-2.107 10.882-9.284z"/><path style="fill:#3f95e6" d="M180.994 165.996c-3.531 7.45 3.997 21.975 5.899 29.152 1.206 4.551 3.626 8.876 4.409 13.314.39 2.206-.924 14.4 5.422 11.983 0 0 14.747-5.615 14.684-12.866 0 0-.238-4.799-6.036-6.807-5.799-2.007-5.346-6.323-6.068-10.432-.722-4.109-.561-30.763-11.031-28.319-3.114.729-6.238 1.779-7.279 3.975z"/><path style="fill:#106299" d="M202.221 222.875s-1.799-.691-3.526-3.005c0 0-.418-4.29 8.979-9.768 0 0 2.297-1.321 4.042.588 0 0 2.118 3.501.015 5.033 0 0-4.929.238-7.971 4.576 0 .001-.109 2.436-1.539 2.576z"/><path style="fill:#fbc2a8" d="M202.832 221.08s3.153 3.161 3.448 4.586l3.204 6.692s.958 2.067 3.648 2.491c0 0 .464-.079 1.727.981 0 0 1.829 2.409 4.231.728 0 0 1.319 1.967 3.288-.226 0 0 .244-.699.795-.462 0 0 .955.999 3.01-1.412l2.174-.745s1.437-1.658.002-2.283c0 0-2.15-1.107-4.289.647l-4.211-5.589s-.259-3.231-.005-3.543l2.452.441s2.601 2.391 3.488 2.438c0 0 2.26-.963 1.049-2.183l-2.476-3.348s-5.267-2.725-5.642-3.204c0 0-7.25-1.11-7.698-1.327 0 0-1.31-.173-2.208.268-.895.443-4.578 2.234-5.987 5.05z"/><path style="fill:none;stroke:#01043d;stroke-width:.4282;stroke-linecap:round;stroke-linejoin:round;stroke-miterlimit:10" d="M213.085 234.587c-3.433-.122-4.49-2.55-4.49-2.55l-2.939-6.085c-.836-2.683-2.852-4.361-2.852-4.361"/><path style="fill:none;stroke:#01043d;stroke-width:.4282;stroke-linecap:round;stroke-linejoin:round;stroke-miterlimit:10" d="M211.389 233.015s.871.343 1.176.744c.305.402 2.536 2.506 2.536 2.506M215.661 236.888s1.487.464 2.512-.4M213.26 232.402l1.208.153s4.076 4.219 5.037 4.536c0 0 1.307.514 2.509-1.468M217.624 230.617l5.261 5.349s.716.483 1.927-1.114c0 0 .859-1.111 1.606-1.219 0 0 2.02-.071 1.852-1.384 0 0 .39-1.758-3.124-1.47 0 0-1.936.728-2.157.983"/><path style="fill:none;stroke:#01043d;stroke-width:.4282;stroke-linecap:round;stroke-linejoin:round;stroke-miterlimit:10" d="M223.475 232.113s-4.218-5.442-4.343-5.893c-.124-.451-.487-4.236.456-4.69"/><path style="fill:none;stroke:#01043d;stroke-width:.4282;stroke-linecap:round;stroke-linejoin:round;stroke-miterlimit:10" d="m219.936 222.794 1.939.34s2.265 2.581 3.373 2.373c0 0 1.796-.883 1.022-1.932 0 0-2.479-3.007-2.629-3.549 0 0-4.917-2.336-5.642-3.204 0 0-4.173-.695-5.561-.798M215.294 228.151l.454.944M212.392 230.31l.265.607M210.369 232.13l-.535-.532"/><path style="fill:none;stroke:#01043d;stroke-width:.4726;stroke-linecap:round;stroke-linejoin:round;stroke-miterlimit:10" d="M252.246 235.159s2.593-5.878 1.288-13.903M245.577 229.281l-2.401-1.715"/><path style="fill:#106299" d="M232.539 224.072s-1.68 9.061-6.533 12.699l.731 2.016s7.653-1.835 8.085-12.859l-2.283-1.856z"/><path style="fill:none;stroke:#01043d;stroke-width:.4726;stroke-linecap:round;stroke-linejoin:round;stroke-miterlimit:10" d="M226.006 236.77c4.096-2.372 6.533-12.699 6.533-12.699l2.283 1.856s-.049 3.953-1.593 6.783M214.192 213.674c22.124 9.776 38.074 7.718 38.074 7.718 4.631-.514 2.915-5.828 2.915-5.828"/><path style="fill:none;stroke:#01043d;stroke-width:.4726;stroke-linecap:round;stroke-linejoin:round;stroke-miterlimit:10" d="M253.81 216.247s-8.061 1.544-26.583-3.773M224.482 211.616l-3.43-1.029M218.994 209.558l-6.679-2.108s-.867 1.422-.867 2.623"/><path style="fill:none;stroke:#01043d;stroke-width:.4726;stroke-linecap:round;stroke-linejoin:round;stroke-miterlimit:10" d="M206.817 210.758s3.945-3.259 5.66 1.372c0 0 2.23 4.288-2.744 3.259 0 0-4.116 1.544-6.86 5.145"/><path style="fill:none;stroke:#01043d;stroke-width:.4726;stroke-linecap:round;stroke-linejoin:round;stroke-miterlimit:10" d="M204.931 211.788s-6.469 4.673-6.236 8.082c0 0 2.634 4.438 4.521 2.38"/><path style="fill:none;stroke:#01043d;stroke-width:.4726;stroke-linecap:round;stroke-linejoin:round;stroke-miterlimit:10" d="M199.614 218.133s1.372 2.23 2.573 2.401M201.158 215.904s1.201 2.23 3.259 2.744M203.73 213.674s1.372 2.401 2.744 2.916M207.16 211.959s1.544 2.058 1.887 3.259M209.733 210.415s2.625 2.727 1.999 5.308M198.695 219.87c-5.136 2.338-6.706-1.937-6.939-6.202-.28-5.125-1.736-10.171-3.633-14.914M185.722 192.236s-6.517-17.837-6.003-22.467M179.205 167.711s-.294-2.847 1.74-3.996M183.15 161.88s26.755-18.351 33.958-21.781M222.253 137.526s9.776-5.831 15.778-2.401M230.656 156.906s7.546-.171 10.633-4.459M223.282 158.964s-23.408 7.715-27.14 9.774M193.954 167.539s2.23.514 2.915 3.945c.764 5.276 1.092 10.601 1.719 15.893.38 3.201.324 11.545 4.626 12.406M205.373 200.773s5.311 1.741 6.036 6.807"/><path style="fill:none;stroke:#01043d;stroke-width:.4726;stroke-linecap:round;stroke-linejoin:round;stroke-miterlimit:10" d="M241.719 131.352s-4.116.772-7.718 2.316M216.507 161.451s-1.029 18.008-1.029 20.838v7.203M215.736 192.836s.514 1.886-1.029 3.516c-1.544 1.629-3.24 8.475-2.392 11.098M256.084 212.929s.338-5.088-.197-8.345c0 0-1.049-5.573 2.81-9.947 0 0 6.431-7.46 7.975-14.149M267.702 176.629s2.058-11.062 2.058-13.377"/><path style="fill:none;stroke:#01043d;stroke-width:.4478;stroke-linecap:round;stroke-linejoin:round;stroke-miterlimit:10" d="M270.017 160.936s2.168-16.979-5.917-21.352l-3.428-1.544M270.531 166.081s2.39 22.61 2.739 24.296c0 0-1.967-.114-3.253.4M274.133 190.778s11.834 2.058 16.979 4.373c0 0 9.004 3.859 13.12 2.83M306.29 196.695s3.602-3.344 4.373-3.602c.772-.257 4.373-2.315 7.718.772M322.956 209.204s.57 7.043-5.346 4.728c0 0-6.174-2.058-9.261-2.83M302.946 210.587s-25.469-1.544-28.041-2.058-9.776-3.344-10.547-6.689M259.984 192.836l2.315 6.432"/><path style="fill:none;stroke:#ef9a78;stroke-width:1.0306;stroke-linecap:round;stroke-linejoin:round;stroke-miterlimit:10" d="M280.913 112.14s1.882 9.363 4.08 10.621c0 0-1.373 1.819-4.469-.578"/><path style="fill:none;stroke:#fff;stroke-width:1.029;stroke-linecap:round;stroke-miterlimit:10" d="m243.262 135.21-2.658 2.144s-7.546-3.945-16.121 4.288c0 0-36.359 21.267-37.217 21.438-.858.171-6.174.686-3.945 7.718 2.229 7.032 10.805 33.272 11.662 38.417.858 5.145 2.401 7.546 3.945 7.375"/><path style="fill:none;stroke:#01043d;stroke-width:.4478;stroke-linecap:round;stroke-linejoin:round;stroke-miterlimit:10" d="M258.955 132.895s-1.544 1.544-6.946-.772c0 0-8.747-5.402-9.519-2.315 0 0-2.263 3.863 2.084 6.176 0 0 10.795 6.568 15.932 3.283l.936-3.543"/><path style="fill:none;stroke:#01043d;stroke-width:.4726;stroke-linecap:round;stroke-linejoin:round;stroke-miterlimit:10" d="M259.641 133.924s1.543 1.887.172 5.145M257.411 134.267s.343 2.058-.514 4.631M254.496 134.096s-.343 2.401-1.372 4.288M252.438 132.724s-1.715.515-2.058 2.23l-.514 2.573M249.694 131.18s-1.887.857-2.573 4.116M246.606 129.808s-2.23.857-2.23 4.288M244.205 129.122s-.857.857-1.201 3.773M239.575 136.325s4.52 2.436 3.718 11.165"/><path style="fill:none;stroke:#01043d;stroke-width:.5145;stroke-linecap:round;stroke-linejoin:round;stroke-miterlimit:10" d="M240.846 111.2s-7.223-7.692-2.749-15.911"/><path style="fill:none;stroke:#01043d;stroke-width:.3796;stroke-linecap:round;stroke-linejoin:round;stroke-miterlimit:10" d="M238.415 92.212s.812-.489 2.455.015c0 0-1.239-12.323 13.673-15.802"/><path style="fill:none;stroke:#01043d;stroke-width:.5145;stroke-linecap:round;stroke-linejoin:round;stroke-miterlimit:10" d="m257.798 76.069 4.054-.752"/><path style="fill:none;stroke:#01043d;stroke-width:.3796;stroke-linecap:round;stroke-linejoin:round;stroke-miterlimit:10" d="M265.987 74.498c5.788-1.198 15.723-.671 20.693 2.955 3.739 2.727 4.766 9.602 3.004 13.749M248.589 118.444s.942 6.049 6.718 11.447M248.493 119.672s-1.656 6.029-1.886 7.392M273.692 134.931c-1.935 1.135-4.843 1.828-8.906.365M274.047 103.053s-6.414 1.023-11.954-1.889l-2.453 3.947M288.968 93.106s-2.539 7.572-3.542 8.502"/><path style="fill:#f4581b" d="M255.612 102.368s2.094 6.058 6.52 6.377c-.001 0-5.569-3.624-6.52-6.377z"/><path style="fill:#f4581b" d="M257.84 103.547s.035 6.409 4.123 8.134c0 .001-4.108-5.221-4.123-8.134zM288.165 92.749s4.482.257 5.938-3.745c0 .001-3.901 3.862-5.938 3.745z"/><path style="fill:#3f95e6" d="M284.681 102.027s10.119-21.046-1.372-26.265l-4.974-1.178s10.633 3.872 2.401 27.612l3.945-.169z"/><path style="fill:#5d6284" d="M286.848 102.201c-4.378.009-7.46-.211-11.428-.434-3.52-.197-6.949-.71-8.406 4.194-1.982 6.671-3.303 12.957 3.861 12.785 2.292.215 6.007.337 7.974-1.498 0 0 3.65-4.468 4.946-1.498 1.221 2.793 3.696 3.026 4.395.13.805-2.794 2.586-5.676 2.878-8.614.259-2.62-2.103-5.07-4.22-5.065z"/><path style="fill:#4b5077" d="M288.763 103.256c-4.124-.92-9.931.013-13.755-.201-3.392-.19-5.234-1.286-6.638 3.439-1.91 6.427-3.183 12.484 3.72 12.319 2.208.207 5.363.326 7.257-1.441 0 0 3.517-4.306 4.766-1.444 1.176 2.691 3.562 2.954 4.235.163.776-2.692 3.326-6.203 3.219-9.047-.081-2.136-1.402-3.475-2.804-3.788z"/><path style="fill:#2a3156" d="M290.559 105.544c1.81.297.829 3.292.575 4.429-.23 1.03-.684 2.063-.806 3.14-.18 1.581-.964 3.338-1.869 4.205-1.002.96-2.803.313-3.496-1.214-1.054-2.325-3.996 1.16-3.996 1.16-1.314 1.184-3.107 1.335-4.77 1.294-1.564-.038-3.536.045-4.752-1.162-2.353-2.337-.083-6.359.285-8.983 0-.001.432-3.084 1.798-3.096l17.031.227zM266.121 112.785c-.443-.1-.726-.56-.63-1.021l1.16-5.529c.097-.461.538-.756.981-.655.443.101.726.56.63 1.021l-1.16 5.529c-.097.461-.538.755-.981.655zM279.372 101.782c.019-.454.37-.817.78-.806l4.918.124c.41.01.73.39.711.844-.019.454-.37.817-.78.806l-4.918-.124c-.41-.011-.73-.39-.711-.844z"/><path style="fill:#3f95e6" d="M266.673 107.169s-20.838-8.918-25.297-20.924c0 0-1.55 3.813-1.106 5.639 0 0 11.996 17.001 25.545 19.23l.858-3.945z"/><path style="fill:none;stroke:#01043d;stroke-width:.5145;stroke-linecap:round;stroke-linejoin:round;stroke-miterlimit:10" d="m248.508 117.232 1.186-.973M288.625 105.626l-14.235-.343s-2.058-.343-2.573 2.401l-1.543 5.831M270.446 115.745s.343 3.773 7.546 2.573c0 0 2.23.172 3.773-1.886 0 0 1.715-2.23 2.744-1.201M290.559 105.544s1.84.768.982 2.998l-1.544 6.689s-1.372 3.087-3.773 2.744"/><path style="fill:none;stroke:#01043d;stroke-width:.5145;stroke-linecap:round;stroke-linejoin:round;stroke-miterlimit:10" d="M290.683 104.768s-.6-2.058-3.43-1.887l-16.122.172s-1.887.343-2.23 2.23M268.388 105.969l-1.286 6.161s-.858 1.299-1.63.099M266.844 113.515s-.514 4.974 3.344 5.231l5.231-.172M266.758 117.631s-1.801-1.544-1.286-4.716"/><path style="fill:none;stroke:#01043d;stroke-width:.5145;stroke-linecap:round;stroke-linejoin:round;stroke-miterlimit:10" d="M267.187 105.026s.514-3.945 6.26-3.344M285.452 102.624s.78-1.249-.382-1.525l-4.918-.124M280.083 102.626s-.702-.143-.711-.844l-4.725-.101"/><path style="fill:none;stroke:#01043d;stroke-width:.5145;stroke-linecap:round;stroke-linejoin:round;stroke-miterlimit:10" d="M285.07 101.1s4.327-8.251 3.726-16.14M283.309 75.762s4.373 1.565 5.059 6.882M277.649 74.498c4.055.545 5.349 4.976 5.78 8.444.542 4.367.106 8.738-.76 13.033-.096.474-.197.947-.303 1.418M266.673 107.169s-9.947-3.945-18.094-11.491M246.178 93.535s-4.459-5.488-4.802-7.289c0 0-1.029 2.401-1.029 4.545M240.69 92.591s5.059 7.461 16.379 15.264M265.815 111.115s-5.145-.858-7.632-2.573M266.587 108.027l-.6 3.173M283.266 115.209s.836.643 1.158 1.736"/><path style="fill:#fff" d="M267.635 158.157c-.227 2.617-.941 4.692-1.595 4.635-.654-.057-1-2.224-.774-4.841.227-2.617.941-4.692 1.595-4.635.655.056 1.001 2.224.774 4.841z"/><path style="fill:none;stroke:#01043d;stroke-width:.3342;stroke-linecap:round;stroke-linejoin:round;stroke-miterlimit:10" d="M268.665 158.157c-.227 2.617-.941 4.692-1.595 4.635-.654-.057-1-2.224-.774-4.841.227-2.617.941-4.692 1.595-4.635.655.056 1.001 2.224.774 4.841z"/><path style="fill:#3f95e6" d="M259.984 114.373s1.544 2.315.257 3.344c-1.286 1.029-2.236-.653-.257-3.344z"/><path style="fill:none;stroke:#01043d;stroke-width:.3796;stroke-linecap:round;stroke-linejoin:round;stroke-miterlimit:10" d="M258.954 114.373s1.544 2.315.257 3.344c-1.286 1.029-2.236-.653-.257-3.344z"/><path style="fill:#3f95e6" d="M235.629 115.732s-1.023 2.588-2.602 2.117c-1.578-.471-.737-2.211 2.602-2.117z"/><path style="fill:none;stroke:#01043d;stroke-width:.3796;stroke-linecap:round;stroke-linejoin:round;stroke-miterlimit:10" d="M235.042 114.885s-1.023 2.588-2.602 2.117c-1.578-.471-.737-2.21 2.602-2.117z"/><path style="fill:#3f95e6" d="M235.387 124.881s-.16 2.778-1.806 2.826c-1.647.049-1.393-1.867 1.806-2.826z"/><path style="fill:none;stroke:#01043d;stroke-width:.3796;stroke-linecap:round;stroke-linejoin:round;stroke-miterlimit:10" d="M234.565 124.262s-.16 2.778-1.806 2.826c-1.647.048-1.394-1.867 1.806-2.826z"/><path style="fill:#c7e3f9" d="M253.706 111.795a2.312 2.312 0 1 0-4.585.602s.031.138.085.362c.009.032.013.066.024.097.283 1.163 1.081 4.235 1.901 5.45l1.178-.429s-.73-1.986-1.066-3.475a2.31 2.31 0 0 0 2.463-2.607z"/><path style="fill:none;stroke:#01043d;stroke-width:.4333;stroke-linecap:round;stroke-linejoin:round;stroke-miterlimit:10" d="M249.201 112.223s.298-1.205 1.746-.989c1.448.215.859 1.915.859 1.915"/><path style="fill:none;stroke:#01043d;stroke-width:.4333;stroke-linecap:round;stroke-linejoin:round;stroke-miterlimit:10" d="M251.105 112.834s-.407.763.277 2.498M249.231 112.856s.51 3.098 1.695 5.173M252.31 117.876l-.903.342M249.552 110.656s1.132-1.416 2.957-.642c1.825.774.997 2.961.997 2.961"/><path style="fill:none;stroke:#01043d;stroke-width:.4478;stroke-linecap:round;stroke-linejoin:round;stroke-miterlimit:10" d="M323.612 197.724s1.887-2.744-.857-3.773c0 0-6.003-2.915-5.145 4.459 0 0 1.029 6.689 4.116 9.947 0 0 2.62 1.698 5.426-1.209 0 0 .526-1.322-1.764-2.458 0 0-2.805-4.737-2.462-8.167"/><path style="fill:none;stroke:#01043d;stroke-width:.4478;stroke-linecap:round;stroke-linejoin:round;stroke-miterlimit:10" d="M322.583 195.152s-1.543-1.029-3.259-.515M325.67 206.471s-2.23 1.715-3.773 1.201M324.813 204.413s-1.029 1.544-2.916 1.544M318.982 203.898s2.573.172 3.773-.857M323.441 200.297s-1.372 1.201-3.259 1.201M317.61 197.553s1.887 1.201 3.945.686"/><path style="fill:#106299" d="m240.519 87.878-3.344.514-1.029 4.631 2.315.772"/><path style="fill:none;stroke:#072938;stroke-width:.4977;stroke-miterlimit:10" d="m240.519 87.878-3.344.514-1.029 4.631 2.315.772"/><path style="fill:#fff" d="M365.501 121.468c18.008-9.493 24.91-31.787 15.417-49.795-9.493-18.008-31.787-24.91-49.795-15.417-16.188 8.534-23.393 27.41-17.79 44.22l-11.053 12.987 16.861-2.078c10.74 13.944 30.259 18.571 46.36 10.083z"/><path style="fill:none;stroke:#01043d;stroke-width:.5634;stroke-linecap:round;stroke-linejoin:round;stroke-miterlimit:10" d="M367.522 123.405c18.008-9.493 24.91-31.787 15.417-49.795-9.493-18.008-31.787-24.91-49.795-15.417-16.188 8.534-23.393 27.41-17.79 44.22L304.3 115.399l16.861-2.078c10.741 13.944 30.261 18.571 46.361 10.084z"/><path style="fill:#ff5464" d="M360.583 79.84c-4.319-2.656-9.605-.805-12.036 4.107-2.36-4.96-7.619-6.917-11.975-4.347-4.492 2.65-6.315 9.099-4.072 14.404 2.07 4.894 13.917 12.478 15.745 13.627l.018.151.114-.068.113.07.021-.151c1.844-1.112 13.798-8.459 15.937-13.311 2.319-5.259.588-11.743-3.865-14.482z"/><path style="fill:none;stroke:#01043d;stroke-width:.8387;stroke-linecap:round;stroke-linejoin:round;stroke-miterlimit:10" d="M361.785 81.284c-4.319-2.656-9.605-.805-12.036 4.107-2.36-4.96-7.619-6.917-11.976-4.347-4.492 2.65-6.315 9.099-4.072 14.404 2.07 4.894 13.917 12.478 15.745 13.627l.018.151.114-.068.113.07.02-.15c1.844-1.112 13.798-8.459 15.937-13.311 2.321-5.26.591-11.744-3.863-14.483z"/><path style="fill:none;stroke:#f9afb8;stroke-width:.7718;stroke-linecap:round;stroke-linejoin:round;stroke-miterlimit:10" d="M324.129 95.044h8.557l1.802-9.574 1.801 8.511h4.505l2.702 11.17.901-11.17h4.504l.985-6.816 1.52 6.284 2.451 10.638 2.251-19.149.9 8.511h6.756l1.802-9.043 1.351 8.511h9.007"/></svg>