<svg width="154" height="151" viewBox="0 0 154 151" fill="none" xmlns="http://www.w3.org/2000/svg">
<g id="logo mini for website title">
<path id="Ellipse 1" d="M151.5 75.5C151.5 115.771 118.192 148.5 77 148.5C35.8082 148.5 2.5 115.771 2.5 75.5C2.5 35.2294 35.8082 2.5 77 2.5C118.192 2.5 151.5 35.2294 151.5 75.5Z" stroke="#FF7D7D" stroke-width="5"/>
<g id="SvgjsG5469">
<g id="Group">
<path id="Vector" d="M51.8426 71.026C48.1965 66.1957 46.2701 60.4334 46.2701 54.362C46.2701 43.2159 52.9007 33.2041 63.1637 28.8546C64.5173 28.2806 65.1492 26.719 64.5752 25.3654C64.0013 24.0118 62.4397 23.3799 61.0861 23.9538C48.8523 29.1399 40.9465 41.0758 40.9465 54.3631C40.9465 61.6006 43.2446 68.471 47.5942 74.2333C47.6703 74.3345 47.7521 74.4276 47.8385 74.514C48.7625 75.438 50.2491 75.5631 51.322 74.7538C52.4949 73.8685 52.7291 72.1989 51.8426 71.026Z" fill="#FF7D7D"/>
<path id="Vector_2" d="M83.735 37.5378C89.7064 41.0156 93.415 47.4621 93.415 54.362C93.415 58.2604 92.2671 62.0212 90.094 65.2364C89.3689 66.3105 89.5314 67.7232 90.4145 68.6063C90.5327 68.7245 90.6645 68.8336 90.8089 68.9313C92.0273 69.7542 93.6809 69.4337 94.5038 68.2153C97.2735 64.117 98.7363 59.3253 98.7374 54.3609C98.7374 45.5731 94.0151 37.3628 86.4127 32.9359C85.1421 32.196 83.5134 32.6268 82.7735 33.8963C82.0348 35.1692 82.4655 36.799 83.735 37.5378Z" fill="#FF7D7D"/>
<path id="Vector_3" d="M59.0687 66.8787C56.1284 63.3839 54.5077 58.9389 54.5089 54.3631C54.5089 46.546 59.1562 39.5165 66.3494 36.4546C67.7018 35.8784 68.3315 34.3157 67.7553 32.9632C67.1802 31.6107 65.6163 30.9811 64.2638 31.5573C55.1033 35.4568 49.1853 44.4082 49.1853 54.3631C49.1853 60.1913 51.2493 65.8536 54.9953 70.3065C55.0453 70.3668 55.0976 70.4236 55.1521 70.477C56.1182 71.4431 57.681 71.5249 58.7459 70.6293C59.8699 69.6826 60.0143 68.0039 59.0687 66.8787Z" fill="#FF7D7D"/>
<path id="Vector_4" d="M108.448 103.011C108.491 102.821 108.515 102.624 108.515 102.422V101.151C108.515 101.143 108.515 101.136 108.515 101.128C108.515 101.126 108.515 101.125 108.515 101.123V81.2594C108.515 77.4827 105.442 74.4095 101.665 74.4095H100.93C100.277 74.4095 99.6489 74.497 99.0556 74.6572C98.9317 74.2833 98.7771 73.9208 98.5907 73.5741C99.6841 73.8946 100.904 73.4843 101.563 72.4819C105.104 67.0981 106.976 60.8323 106.976 54.362C106.976 41.8305 100.023 30.5333 88.8312 24.879C87.5197 24.2164 85.9183 24.7426 85.2557 26.0541C84.5931 27.3657 85.1193 28.9682 86.4309 29.6297C95.8198 34.3736 101.653 43.8501 101.653 54.362C101.653 59.7901 100.083 65.0444 97.1155 69.5576C96.7495 70.1133 96.6211 70.7555 96.7018 71.3669C95.5152 70.46 94.0718 69.9667 92.5523 69.9667H91.8181C90.2803 69.9667 88.821 70.4713 87.6265 71.3999C86.4684 70.502 85.0159 69.9667 83.4406 69.9667H82.7064C82.1859 69.9667 81.6744 70.0258 81.1789 70.1383V68.3199C83.2679 67.2402 85.1216 65.699 86.5582 63.7782C87.0503 63.1202 87.4935 62.4201 87.8754 61.6961C89.0608 59.4503 89.6882 56.9147 89.6882 54.3609C89.6882 50.1602 88.0527 46.2107 85.0818 43.2398C84.1021 42.2601 82.9974 41.4134 81.7983 40.7235C79.4241 39.3562 76.7134 38.6334 73.9607 38.6334C71.5228 38.6334 69.1838 39.1767 67.0108 40.2484C61.5963 42.9193 58.2333 48.327 58.2333 54.3597C58.2333 57.6091 59.2164 60.7289 61.0769 63.3816C61.6008 64.1283 62.1941 64.8352 62.8397 65.4808C64.0046 66.6457 65.3207 67.605 66.7425 68.3415V76.4132C64.6013 74.7766 62.0691 73.8241 59.7392 73.8241H57.0774V98.4837V99.4123V101.126C57.0774 108.217 59.9619 114.646 64.6184 119.303C69.2759 123.96 75.7053 126.844 82.7951 126.844C89.6643 126.844 96.1233 124.168 100.981 119.311C105.394 114.903 108.005 109.172 108.448 103.011ZM66.605 61.72C66.1765 61.2915 65.7833 60.8232 65.4367 60.3288C64.2081 58.5763 63.558 56.5135 63.558 54.3631C63.558 50.3705 65.7833 46.7926 69.3668 45.0253C70.8011 44.3172 72.348 43.9592 73.963 43.9592C75.7849 43.9592 77.5772 44.4366 79.1445 45.339C79.9378 45.7959 80.6697 46.3573 81.3198 47.0063C83.2849 48.9714 84.3669 51.5843 84.3669 54.3631C84.3669 56.0782 83.9646 57.7091 83.1701 59.2128C82.9178 59.6912 82.6246 60.155 82.2984 60.5902C81.9563 61.0471 81.5812 61.4665 81.18 61.8541V53.8267C81.18 51.9969 80.4674 50.2773 79.174 48.9827C77.8807 47.6894 76.1599 46.9767 74.3301 46.9767H73.5948C69.818 46.9767 66.7448 50.0488 66.7448 53.8267V61.8529C66.6971 61.8086 66.6505 61.7654 66.605 61.72ZM82.7973 121.524C77.1737 121.524 72.0752 119.237 68.3826 115.543C64.69 111.851 62.4021 106.751 62.4021 101.128V98.486V79.9206C63.0011 80.2422 63.6227 80.6752 64.2194 81.2435C65.3707 82.3448 66.7448 84.2565 66.7448 87.1501V96.8096C66.7448 97.5449 67.0426 98.2098 67.5245 98.6917C68.0064 99.1736 68.6713 99.4713 69.4066 99.4713C70.8761 99.4713 72.0684 98.2791 72.0684 96.8096V53.8255C72.0684 52.9834 72.7537 52.298 73.5948 52.2992H74.3301C74.7381 52.2992 75.1211 52.4583 75.4098 52.747C75.6985 53.0357 75.8576 53.4187 75.8565 53.8267V87.1512C75.8565 88.6208 77.0487 89.813 78.5183 89.813C79.9878 89.813 81.18 88.6208 81.18 87.1512V76.8178C81.18 76.4098 81.3392 76.0268 81.6267 75.7381C81.9154 75.4494 82.2984 75.2914 82.7076 75.2914H83.4418C84.2839 75.2914 84.9693 75.9768 84.9693 76.8189V78.9693V87.1524C84.9693 87.8877 85.267 88.5526 85.7489 89.0345C86.2308 89.5164 86.8957 89.8142 87.6311 89.8142C89.1006 89.8142 90.2928 88.6231 90.2928 87.1524V80.5082C90.2928 80.5059 90.2928 80.5047 90.2928 80.5025V76.8178C90.2928 76.4109 90.452 76.0268 90.7395 75.7381C91.0282 75.4494 91.4112 75.2903 91.8204 75.2914H92.5546C92.9626 75.2914 93.3456 75.4505 93.6343 75.7392C93.923 76.0279 94.0809 76.4109 94.0809 76.8189V81.1423C94.0809 81.1446 94.0809 81.1469 94.0809 81.1492V84.1246C94.0809 84.1258 94.0809 84.1258 94.0809 84.1269V87.1524C94.0809 88.6231 95.272 89.8142 96.7427 89.8142C98.2123 89.8142 99.4045 88.6219 99.4045 87.1524V81.148C99.4056 80.3422 100.061 79.7353 100.931 79.7353H101.666C102.074 79.7353 102.457 79.8944 102.746 80.1831C103.035 80.4718 103.193 80.8548 103.193 81.2628V101.14C103.19 106.585 101.07 111.704 97.2189 115.553C93.366 119.403 88.2448 121.524 82.7973 121.524Z" fill="#FF7D7D"/>
</g>
</g>
</g>
</svg>
