<svg xmlns="http://www.w3.org/2000/svg" xmlns:xlink="http://www.w3.org/1999/xlink" width="512" height="512" fill="none" xmlns:v="https://vecta.io/nano"><path d="M473.6 512H38.4A38.44 38.44 0 0 1 0 473.6V38.4C0 17.229 17.229 0 38.4 0h435.2C494.771 0 512 17.229 512 38.4v435.2c0 21.171-17.229 38.4-38.4 38.4zM38.4 17.067A21.36 21.36 0 0 0 17.067 38.4v435.2c0 11.759 9.574 21.333 21.333 21.333h435.2c11.767 0 21.333-9.574 21.333-21.333V38.4c0-11.759-9.574-21.333-21.333-21.333H38.4z" fill="url(#A)"/><path d="M76.8 85.333H42.667c-2.263 0-4.434-.899-6.034-2.499s-2.499-3.771-2.499-6.034V42.667c0-2.263.899-4.434 2.499-6.034s3.771-2.499 6.034-2.499H76.8c2.263 0 4.434.899 6.034 2.499s2.499 3.771 2.499 6.034V76.8c0 2.263-.899 4.434-2.499 6.034s-3.771 2.499-6.034 2.499zM51.2 68.267h17.067V51.2H51.2v17.067zm93.867 17.067h-34.134c-2.263 0-4.433-.899-6.034-2.499S102.4 79.063 102.4 76.8V42.667c0-2.263.899-4.434 2.499-6.034s3.771-2.499 6.034-2.499h34.134c2.263 0 4.433.899 6.034 2.499s2.499 3.771 2.499 6.034V76.8c0 2.263-.899 4.434-2.499 6.034s-3.771 2.499-6.034 2.499zm-25.6-17.067h17.066V51.2h-17.066v17.067zm93.866 17.067H179.2c-2.263 0-4.434-.899-6.034-2.499s-2.499-3.771-2.499-6.034V42.667c0-2.263.899-4.434 2.499-6.034s3.771-2.499 6.034-2.499h34.133a8.53 8.53 0 0 1 8.534 8.533V76.8a8.53 8.53 0 0 1-8.534 8.533zm-25.6-17.067H204.8V51.2h-17.067v17.067z" fill="url(#B)"/><path d="M503.467 119.467H8.533A8.53 8.53 0 0 1 0 110.933V38.4C0 17.229 17.229 0 38.4 0h435.2C494.771 0 512 17.229 512 38.4v72.533a8.53 8.53 0 0 1-2.499 6.034c-1.601 1.601-3.771 2.5-6.034 2.5zM17.067 102.4h477.866v-64c0-11.759-9.574-21.333-21.333-21.333H38.4A21.36 21.36 0 0 0 17.067 38.4v64zM230.4 324.267H42.667a8.53 8.53 0 0 1-8.533-8.534V145.067a8.53 8.53 0 0 1 8.533-8.534H230.4a8.53 8.53 0 0 1 8.533 8.534v170.666a8.53 8.53 0 0 1-8.533 8.534zM51.2 307.2h170.667V153.6H51.2v153.6z" fill="url(#C)"/><path d="M136.533 324.267a8.5 8.5 0 0 1-3.266-.649 8.51 8.51 0 0 1-2.767-1.852l-45.167-45.167L48.7 313.233a8.54 8.54 0 0 1-2.768 1.85c-1.035.428-2.145.649-3.265.649s-2.23-.221-3.265-.649a8.54 8.54 0 0 1-2.768-1.85 8.53 8.53 0 0 1-2.499-6.033 8.53 8.53 0 0 1 2.499-6.033L79.3 258.5a8.52 8.52 0 0 1 2.767-1.851 8.51 8.51 0 0 1 3.266-.651c1.121 0 2.231.221 3.266.651a8.52 8.52 0 0 1 2.767 1.851l51.2 51.2a8.52 8.52 0 0 1 2.345 4.369c.332 1.657.164 3.374-.483 4.935s-1.742 2.894-3.147 3.831-3.058 1.435-4.748 1.432zM102.4 238.933c-18.824 0-34.133-15.308-34.133-34.133s15.309-34.133 34.133-34.133 34.133 15.308 34.133 34.133-15.308 34.133-34.133 34.133zm0-51.2c-9.412 0-17.067 7.655-17.067 17.067s7.654 17.067 17.067 17.067 17.067-7.655 17.067-17.067-7.655-17.067-17.067-17.067z" fill="url(#D)"/><path d="M230.4 307.2a8.51 8.51 0 0 1-3.266-.648c-1.035-.429-1.976-1.059-2.767-1.852l-53.436-53.436-46.984 51.217a8.54 8.54 0 0 1-2.687 1.968 8.55 8.55 0 0 1-3.234.79 8.54 8.54 0 0 1-3.291-.509 8.53 8.53 0 0 1-2.846-1.728c-.826-.758-1.494-1.671-1.968-2.687a8.53 8.53 0 0 1-.789-3.234 8.52 8.52 0 0 1 .508-3.291 8.53 8.53 0 0 1 1.729-2.846l53-57.779a8.53 8.53 0 0 1 6.101-2.765c2.356-.102 4.574.853 6.221 2.5l59.734 59.734a8.53 8.53 0 0 1 2.344 4.366c.332 1.656.164 3.373-.481 4.933s-1.74 2.894-3.144 3.832a8.52 8.52 0 0 1-4.744 1.435zm238.933 170.667H281.6a8.53 8.53 0 0 1-8.533-8.534V298.667a8.53 8.53 0 0 1 8.533-8.534h187.733a8.53 8.53 0 0 1 8.534 8.534v170.666a8.53 8.53 0 0 1-8.534 8.534zm-179.2-17.067H460.8V307.2H290.133v153.6z" fill="url(#E)"/><path d="M375.467 477.867a8.49 8.49 0 0 1-6.033-2.501l-45.167-45.167-36.634 36.634a8.53 8.53 0 0 1-12.066 0 8.53 8.53 0 0 1 0-12.066l42.667-42.667a8.51 8.51 0 0 1 2.767-1.851c1.035-.43 2.145-.651 3.266-.651a8.51 8.51 0 0 1 3.265.651c1.036.429 1.976 1.058 2.768 1.851l51.2 51.2c1.197 1.192 2.013 2.713 2.345 4.369s.163 3.374-.483 4.935-1.742 2.894-3.148 3.831a8.53 8.53 0 0 1-4.747 1.432zm-34.134-85.334c-18.824 0-34.133-15.308-34.133-34.133s15.309-34.133 34.133-34.133 34.134 15.308 34.134 34.133-15.309 34.133-34.134 34.133zm0-51.2c-9.412 0-17.066 7.655-17.066 17.067s7.654 17.067 17.066 17.067S358.4 367.812 358.4 358.4s-7.654-17.067-17.067-17.067z" fill="url(#F)"/><path d="M469.333 460.8c-1.12.001-2.23-.219-3.266-.648s-1.975-1.059-2.767-1.852l-53.435-53.436-46.985 51.217c-.758.826-1.67 1.495-2.686 1.968a8.55 8.55 0 0 1-3.235.79 8.54 8.54 0 0 1-3.291-.509 8.53 8.53 0 0 1-2.846-1.728 8.55 8.55 0 0 1-1.967-2.687 8.53 8.53 0 0 1-.79-3.234c-.048-1.12.124-2.238.508-3.291a8.53 8.53 0 0 1 1.729-2.846l53-57.779a8.54 8.54 0 0 1 2.77-2.006c1.049-.474 2.184-.732 3.335-.757a8.53 8.53 0 0 1 3.364.614 8.54 8.54 0 0 1 2.854 1.884l59.733 59.734c1.197 1.191 2.013 2.711 2.344 4.366s.165 3.373-.481 4.933a8.52 8.52 0 0 1-7.888 5.267zm-51.2-273.067H281.6c-2.263 0-4.434-.899-6.034-2.499s-2.499-3.771-2.499-6.034.899-4.434 2.499-6.034 3.771-2.499 6.034-2.499h136.533a8.53 8.53 0 0 1 8.534 8.533 8.53 8.53 0 0 1-8.534 8.533zm51.2 0h-17.066c-2.263 0-4.434-.899-6.034-2.499a8.53 8.53 0 0 1 0-12.068c1.6-1.6 3.771-2.499 6.034-2.499h17.066a8.53 8.53 0 0 1 8.534 8.533 8.53 8.53 0 0 1-8.534 8.533zM418.133 256H281.6c-2.263 0-4.434-.899-6.034-2.499s-2.499-3.771-2.499-6.034a8.53 8.53 0 0 1 8.533-8.534h136.533a8.53 8.53 0 0 1 8.534 8.534c0 2.263-.899 4.433-2.5 6.034a8.53 8.53 0 0 1-6.034 2.499zm51.2 0h-17.066c-2.263 0-4.434-.899-6.034-2.499s-2.5-3.771-2.5-6.034a8.53 8.53 0 0 1 8.534-8.534h17.066a8.53 8.53 0 0 1 8.534 8.534c0 2.263-.899 4.433-2.5 6.034a8.53 8.53 0 0 1-6.034 2.499zm0-34.133H332.8a8.53 8.53 0 0 1-8.533-8.534c0-2.263.899-4.433 2.499-6.034s3.771-2.499 6.034-2.499h136.533a8.53 8.53 0 0 1 6.034 2.499c1.601 1.601 2.5 3.771 2.5 6.034a8.53 8.53 0 0 1-8.534 8.534zm-170.666 0H281.6a8.53 8.53 0 0 1-8.533-8.534c0-2.263.899-4.433 2.499-6.034s3.771-2.499 6.034-2.499h17.067c2.263 0 4.433.899 6.034 2.499s2.499 3.771 2.499 6.034a8.53 8.53 0 0 1-2.499 6.034c-1.601 1.601-3.771 2.5-6.034 2.5zM179.2 375.467H42.667a8.53 8.53 0 0 1-8.533-8.534c0-2.263.899-4.433 2.499-6.034s3.771-2.499 6.034-2.499H179.2c2.263 0 4.434.899 6.034 2.499s2.499 3.771 2.499 6.034a8.53 8.53 0 0 1-8.533 8.534zm51.2 0h-17.067c-2.263 0-4.433-.899-6.034-2.5a8.53 8.53 0 0 1-2.499-6.034c0-2.263.899-4.433 2.499-6.034s3.771-2.499 6.034-2.499H230.4c2.263 0 4.434.899 6.034 2.499s2.499 3.771 2.499 6.034a8.53 8.53 0 0 1-8.533 8.534zm-51.2 68.266H42.667c-2.263 0-4.434-.899-6.034-2.499s-2.499-3.771-2.499-6.034.899-4.434 2.499-6.034 3.771-2.499 6.034-2.499H179.2c2.263 0 4.434.899 6.034 2.499s2.499 3.771 2.499 6.034-.899 4.434-2.499 6.034-3.771 2.499-6.034 2.499zm51.2 0h-17.067c-2.263 0-4.433-.899-6.034-2.499s-2.499-3.771-2.499-6.034.899-4.434 2.499-6.034 3.771-2.499 6.034-2.499H230.4c2.263 0 4.434.899 6.034 2.499s2.499 3.771 2.499 6.034-.899 4.434-2.499 6.034-3.771 2.499-6.034 2.499zm0-34.133H93.867c-2.263 0-4.434-.899-6.034-2.499s-2.499-3.771-2.499-6.034a8.53 8.53 0 0 1 8.533-8.534H230.4a8.53 8.53 0 0 1 8.533 8.534c0 2.263-.899 4.433-2.499 6.034s-3.771 2.499-6.034 2.499zm-170.667 0H42.667c-2.263 0-4.434-.899-6.034-2.499s-2.499-3.771-2.499-6.034a8.53 8.53 0 0 1 8.533-8.534h17.067a8.53 8.53 0 0 1 8.533 8.534c0 2.263-.899 4.433-2.499 6.034s-3.771 2.499-6.034 2.499z" fill="url(#G)"/><defs><linearGradient id="A" x1="-80" y1="-61.5" x2="614" y2="558" xlink:href="#H"><stop stop-color="#fa4a65"/><stop offset="1" stop-color="#fa14b2"/></linearGradient><linearGradient id="B" x1="4.8" y1="27.983" x2="43.837" y2="155.753" xlink:href="#H"><stop stop-color="#fa4a65"/><stop offset="1" stop-color="#fa14b2"/></linearGradient><linearGradient id="C" x1="-80" y1="-38.95" x2="337.538" y2="549.549" xlink:href="#H"><stop stop-color="#fa4a65"/><stop offset="1" stop-color="#fa14b2"/></linearGradient><linearGradient id="D" x1="16.8" y1="152.217" x2="207.663" y2="275.275" xlink:href="#H"><stop stop-color="#fa4a65"/><stop offset="1" stop-color="#fa14b2"/></linearGradient><linearGradient id="E" x1="51.508" y1="200.667" x2="375.833" y2="632.044" xlink:href="#H"><stop stop-color="#fa4a65"/><stop offset="1" stop-color="#fa14b2"/></linearGradient><linearGradient id="F" x1="255.733" y1="305.817" x2="446.597" y2="428.875" xlink:href="#H"><stop stop-color="#fa4a65"/><stop offset="1" stop-color="#fa14b2"/></linearGradient><linearGradient id="G" x1="-35.2" y1="135.817" x2="342.168" y2="651.014" xlink:href="#H"><stop stop-color="#fa4a65"/><stop offset="1" stop-color="#fa14b2"/></linearGradient><linearGradient id="H" gradientUnits="userSpaceOnUse"/></defs></svg>