<svg width="517" height="517" viewBox="0 0 517 517" fill="none" xmlns="http://www.w3.org/2000/svg">
<g id="bottle-of-water-svgrepo-com (2) 1" clip-path="url(#clip0_5_26)">
<g id="Group">
<path id="Vector" d="M356.205 148.238C356.205 136.457 351.617 125.38 343.287 117.05L310.62 84.3838C305.453 79.2149 302.607 72.3454 302.607 65.0382V59.2428C307.928 56.2871 311.54 50.6135 311.54 44.1069V17.3078C311.54 7.76393 303.776 0 294.232 0H222.768C213.224 0 205.46 7.76393 205.46 17.3078V44.1069C205.46 50.6135 209.072 56.2871 214.393 59.2428V65.0382C214.393 72.3454 211.548 79.216 206.38 84.3827L173.713 117.05C165.383 125.381 160.795 136.457 160.795 148.238V312.098C160.795 318.996 163.474 325.276 167.841 329.964C163.474 334.653 160.795 340.933 160.795 347.83C160.795 354.728 163.474 361.008 167.841 365.697C163.474 370.385 160.795 376.665 160.795 383.563C160.795 390.46 163.474 396.74 167.841 401.429C163.474 406.117 160.795 412.397 160.795 419.295C160.795 426.192 163.474 432.472 167.841 437.161C163.474 441.85 160.795 448.13 160.795 455.027V472.893C160.795 497.213 180.582 517 204.902 517H312.098C336.419 517 356.205 497.213 356.205 472.893V455.027C356.205 448.13 353.526 441.85 349.159 437.161C353.526 432.472 356.205 426.192 356.205 419.295C356.205 412.397 353.526 406.117 349.159 401.429C353.526 396.74 356.205 390.46 356.205 383.563C356.205 376.665 353.526 370.385 349.159 365.697C353.526 361.008 356.205 354.728 356.205 347.83C356.205 340.933 353.526 334.653 349.159 329.964C353.526 325.276 356.205 318.996 356.205 312.098V148.238ZM222.21 17.3078C222.21 17.0007 222.46 16.7495 222.768 16.7495H294.232C294.54 16.7495 294.791 17.0007 294.791 17.3078V44.1069C294.791 44.414 294.54 44.6652 294.232 44.6652H222.768C222.46 44.6652 222.21 44.414 222.21 44.1069V17.3078ZM177.544 148.238C177.544 140.931 180.39 134.062 185.557 128.895L218.224 96.2268C226.554 87.8956 231.143 76.8197 231.143 65.0382V61.4147H285.858V65.0382C285.858 76.8186 290.445 87.8956 298.776 96.2279L331.443 128.895C336.61 134.062 339.456 140.931 339.456 148.238V312.098C339.456 317.332 335.198 321.59 329.964 321.59H187.036C181.802 321.59 177.544 317.332 177.544 312.098V148.238ZM339.456 347.83C339.456 353.064 335.198 357.322 329.964 357.322H187.036C181.802 357.322 177.544 353.064 177.544 347.83C177.544 342.597 181.802 338.339 187.036 338.339H329.964C335.198 338.339 339.456 342.597 339.456 347.83ZM339.456 383.563C339.456 388.796 335.198 393.054 329.964 393.054H187.036C181.802 393.054 177.544 388.796 177.544 383.563C177.544 378.329 181.802 374.071 187.036 374.071H329.964C335.198 374.071 339.456 378.329 339.456 383.563ZM339.456 419.295C339.456 424.528 335.198 428.786 329.964 428.786H187.036C181.802 428.786 177.544 424.528 177.544 419.295C177.544 414.061 181.802 409.803 187.036 409.803H329.964C335.198 409.803 339.456 414.061 339.456 419.295ZM339.456 472.893C339.456 487.979 327.183 500.251 312.098 500.251H204.902C189.817 500.251 177.544 487.979 177.544 472.893V455.027C177.544 449.793 181.802 445.536 187.036 445.536H329.964C335.198 445.536 339.456 449.793 339.456 455.027V472.893Z" fill="url(#paint0_linear_5_26)"/>
<path id="Vector_2" d="M258.5 284.741C282.82 284.741 302.607 264.954 302.607 240.634C302.607 219.365 271.605 173.407 265.391 164.409C263.827 162.146 261.251 160.795 258.5 160.795C255.749 160.795 253.173 162.146 251.609 164.409C245.395 173.407 214.393 219.365 214.393 240.634C214.393 264.954 234.18 284.741 258.5 284.741ZM247.826 201.794C251.609 195.266 255.421 189.152 258.522 184.323C271.541 204.582 285.857 230.649 285.857 240.634C285.857 255.72 273.585 267.991 258.5 267.991C243.415 267.991 231.143 255.72 231.143 240.634C231.143 237.609 232.768 227.768 247.826 201.794Z" fill="url(#paint1_linear_5_26)"/>
</g>
</g>
<defs>
<linearGradient id="paint0_linear_5_26" x1="130.262" y1="-62.1006" x2="557.551" y2="82.0648" gradientUnits="userSpaceOnUse">
<stop stop-color="#FA4A65"/>
<stop offset="1" stop-color="#FA14B2"/>
</linearGradient>
<linearGradient id="paint1_linear_5_26" x1="200.61" y1="145.907" x2="353.677" y2="243.152" gradientUnits="userSpaceOnUse">
<stop stop-color="#FA4A65"/>
<stop offset="1" stop-color="#FA14B2"/>
</linearGradient>
<clipPath id="clip0_5_26">
<rect width="517" height="517" fill="white"/>
</clipPath>
</defs>
</svg>
