<svg width="557" height="520" viewBox="0 0 557 520" fill="none" xmlns="http://www.w3.org/2000/svg">
<g id="Calender">
<path id="Vector" d="M454.883 0C422.618 0.0615021 395.276 23.7688 390.643 55.7H342.741C337.645 20.2214 304.753 -4.40958 269.274 0.685806C240.757 4.78092 218.354 27.1839 214.259 55.7H166.357C161.262 20.2214 128.37 -4.40958 92.8902 0.685806C64.3741 4.78092 41.9711 27.1839 37.876 55.7H0V473.45C0.0301708 499.072 20.7947 519.837 46.4167 519.867H510.583C536.205 519.837 556.97 499.072 557 473.45V55.7H519.124C514.49 23.7688 487.149 0.0615021 454.883 0ZM454.883 18.5667C476.932 18.5945 495.931 34.1035 500.372 55.7H409.395C413.836 34.1035 432.834 18.5945 454.883 18.5667ZM278.5 18.5667C300.549 18.5945 319.547 34.1035 323.988 55.7H233.012C237.453 34.1035 256.451 18.5945 278.5 18.5667ZM102.117 18.5667C124.166 18.5945 143.164 34.1035 147.605 55.7H56.6283C61.0692 34.1035 80.0676 18.5945 102.117 18.5667ZM538.433 473.45C538.433 488.831 525.965 501.3 510.583 501.3H46.4167C31.0353 501.3 18.5667 488.831 18.5667 473.45V204.233H538.433V473.45ZM538.433 185.667H18.5667V74.2667H37.876C42.5095 106.198 69.8513 129.905 102.117 129.967C104.579 129.967 106.94 128.989 108.681 127.248C110.422 125.507 111.4 123.145 111.4 120.683C111.4 118.221 110.422 115.86 108.681 114.119C106.94 112.378 104.579 111.4 102.117 111.4C80.0676 111.372 61.0692 95.8632 56.6283 74.2667H214.259C218.893 106.198 246.235 129.905 278.5 129.967C280.962 129.967 283.323 128.989 285.064 127.248C286.805 125.507 287.783 123.145 287.783 120.683C287.783 118.221 286.805 115.86 285.064 114.119C283.323 112.378 280.962 111.4 278.5 111.4C256.451 111.372 237.453 95.8632 233.012 74.2667H390.643C395.275 106.198 422.618 129.905 454.883 129.967C457.345 129.967 459.707 128.989 461.448 127.248C463.189 125.507 464.167 123.145 464.167 120.683C464.167 118.221 463.189 115.86 461.448 114.119C459.707 112.378 457.345 111.4 454.883 111.4C432.834 111.372 413.836 95.8632 409.395 74.2667H538.433V185.667Z" fill="url(#paint0_linear_4_6)"/>
<path id="Vector_2" d="M315.633 222.8H241.367V297.067H315.633V222.8ZM297.067 278.5H259.933V241.367H297.067V278.5Z" fill="url(#paint1_linear_4_6)"/>
<path id="Vector_3" d="M408.467 222.8H334.2V297.067H408.467V222.8ZM389.9 278.5H352.767V241.367H389.9V278.5Z" fill="url(#paint2_linear_4_6)"/>
<path id="Vector_4" d="M501.3 222.8H427.033V297.067H501.3V222.8ZM482.733 278.5H445.6V241.367H482.733V278.5Z" fill="url(#paint3_linear_4_6)"/>
<path id="Vector_5" d="M222.8 222.8H148.533V297.067H222.8V222.8ZM204.233 278.5H167.1V241.367H204.233V278.5Z" fill="url(#paint4_linear_4_6)"/>
<path id="Vector_6" d="M129.967 222.8H55.7V297.067H129.967V222.8ZM111.4 278.5H74.2666V241.367H111.4V278.5Z" fill="url(#paint5_linear_4_6)"/>
<path id="Vector_7" d="M408.467 315.633H334.2V389.9H408.467V315.633ZM389.9 371.333H352.767V334.2H389.9V371.333Z" fill="url(#paint6_linear_4_6)"/>
<path id="Vector_8" d="M501.3 315.633H427.033V389.9H501.3V315.633ZM482.733 371.333H445.6V334.2H482.733V371.333Z" fill="url(#paint7_linear_4_6)"/>
<path id="Vector_9" d="M222.8 315.633H148.533V389.9H222.8V315.633ZM204.233 371.333H167.1V334.2H204.233V371.333Z" fill="url(#paint8_linear_4_6)"/>
<path id="Vector_10" d="M129.967 315.633H55.7V389.9H129.967V315.633ZM111.4 371.333H74.2666V334.2H111.4V371.333Z" fill="url(#paint9_linear_4_6)"/>
<path id="Vector_11" d="M315.633 408.467H241.367V482.733H315.633V408.467ZM297.067 464.167H259.933V427.033H297.067V464.167Z" fill="url(#paint10_linear_4_6)"/>
<path id="Vector_12" d="M408.467 408.467H334.2V482.733H408.467V408.467ZM389.9 464.167H352.767V427.033H389.9V464.167Z" fill="url(#paint11_linear_4_6)"/>
<path id="Vector_13" d="M501.3 408.467H427.033V482.733H501.3V408.467ZM482.733 464.167H445.6V427.033H482.733V464.167Z" fill="url(#paint12_linear_4_6)"/>
<path id="Vector_14" d="M222.8 408.467H148.533V482.733H222.8V408.467ZM204.233 464.167H167.1V427.033H204.233V464.167Z" fill="url(#paint13_linear_4_6)"/>
<path id="Vector_15" d="M129.967 408.467H55.7V482.733H129.967V408.467ZM111.4 464.167H74.2666V427.033H111.4V464.167Z" fill="url(#paint14_linear_4_6)"/>
<path id="Vector_16" d="M298.626 319.764L269.217 363.907L258.374 347.642C257.006 345.597 254.882 344.177 252.469 343.697C250.056 343.216 247.55 343.713 245.503 345.079C243.456 346.444 242.035 348.567 241.551 350.979C241.068 353.392 241.563 355.898 242.926 357.947L261.493 385.797C262.341 387.068 263.489 388.111 264.837 388.832C266.184 389.553 267.689 389.93 269.217 389.93C270.745 389.93 272.249 389.553 273.597 388.832C274.944 388.111 276.093 387.068 276.94 385.797L314.074 330.097C315.437 328.048 315.932 325.542 315.449 323.129C314.965 320.717 313.544 318.594 311.497 317.229C309.45 315.863 306.945 315.366 304.531 315.847C302.118 316.327 299.994 317.747 298.626 319.792V319.764Z" fill="url(#paint15_linear_4_6)"/>
<path id="Vector_17" d="M306.35 148.533H501.3V167.1H306.35V148.533Z" fill="url(#paint16_linear_4_6)"/>
</g>
<defs>
<linearGradient id="paint0_linear_4_6" x1="-87.0313" y1="-62.4449" x2="621.477" y2="615.18" gradientUnits="userSpaceOnUse">
<stop stop-color="#FA4A65"/>
<stop offset="1" stop-color="#FA14B2"/>
</linearGradient>
<linearGradient id="paint1_linear_4_6" x1="229.763" y1="213.879" x2="330.429" y2="303.739" gradientUnits="userSpaceOnUse">
<stop stop-color="#FA4A65"/>
<stop offset="1" stop-color="#FA14B2"/>
</linearGradient>
<linearGradient id="paint2_linear_4_6" x1="322.596" y1="213.879" x2="423.262" y2="303.739" gradientUnits="userSpaceOnUse">
<stop stop-color="#FA4A65"/>
<stop offset="1" stop-color="#FA14B2"/>
</linearGradient>
<linearGradient id="paint3_linear_4_6" x1="415.429" y1="213.879" x2="516.095" y2="303.739" gradientUnits="userSpaceOnUse">
<stop stop-color="#FA4A65"/>
<stop offset="1" stop-color="#FA14B2"/>
</linearGradient>
<linearGradient id="paint4_linear_4_6" x1="136.929" y1="213.879" x2="237.595" y2="303.739" gradientUnits="userSpaceOnUse">
<stop stop-color="#FA4A65"/>
<stop offset="1" stop-color="#FA14B2"/>
</linearGradient>
<linearGradient id="paint5_linear_4_6" x1="44.0958" y1="213.879" x2="144.762" y2="303.739" gradientUnits="userSpaceOnUse">
<stop stop-color="#FA4A65"/>
<stop offset="1" stop-color="#FA14B2"/>
</linearGradient>
<linearGradient id="paint6_linear_4_6" x1="322.596" y1="306.713" x2="423.262" y2="396.572" gradientUnits="userSpaceOnUse">
<stop stop-color="#FA4A65"/>
<stop offset="1" stop-color="#FA14B2"/>
</linearGradient>
<linearGradient id="paint7_linear_4_6" x1="415.429" y1="306.713" x2="516.095" y2="396.572" gradientUnits="userSpaceOnUse">
<stop stop-color="#FA4A65"/>
<stop offset="1" stop-color="#FA14B2"/>
</linearGradient>
<linearGradient id="paint8_linear_4_6" x1="136.929" y1="306.713" x2="237.595" y2="396.572" gradientUnits="userSpaceOnUse">
<stop stop-color="#FA4A65"/>
<stop offset="1" stop-color="#FA14B2"/>
</linearGradient>
<linearGradient id="paint9_linear_4_6" x1="44.0958" y1="306.713" x2="144.762" y2="396.572" gradientUnits="userSpaceOnUse">
<stop stop-color="#FA4A65"/>
<stop offset="1" stop-color="#FA14B2"/>
</linearGradient>
<linearGradient id="paint10_linear_4_6" x1="229.763" y1="399.546" x2="330.429" y2="489.406" gradientUnits="userSpaceOnUse">
<stop stop-color="#FA4A65"/>
<stop offset="1" stop-color="#FA14B2"/>
</linearGradient>
<linearGradient id="paint11_linear_4_6" x1="322.596" y1="399.546" x2="423.262" y2="489.406" gradientUnits="userSpaceOnUse">
<stop stop-color="#FA4A65"/>
<stop offset="1" stop-color="#FA14B2"/>
</linearGradient>
<linearGradient id="paint12_linear_4_6" x1="415.429" y1="399.546" x2="516.095" y2="489.406" gradientUnits="userSpaceOnUse">
<stop stop-color="#FA4A65"/>
<stop offset="1" stop-color="#FA14B2"/>
</linearGradient>
<linearGradient id="paint13_linear_4_6" x1="136.929" y1="399.546" x2="237.595" y2="489.406" gradientUnits="userSpaceOnUse">
<stop stop-color="#FA4A65"/>
<stop offset="1" stop-color="#FA14B2"/>
</linearGradient>
<linearGradient id="paint14_linear_4_6" x1="44.0958" y1="399.546" x2="144.762" y2="489.406" gradientUnits="userSpaceOnUse">
<stop stop-color="#FA4A65"/>
<stop offset="1" stop-color="#FA14B2"/>
</linearGradient>
<linearGradient id="paint15_linear_4_6" x1="229.768" y1="306.748" x2="330.427" y2="396.597" gradientUnits="userSpaceOnUse">
<stop stop-color="#FA4A65"/>
<stop offset="1" stop-color="#FA14B2"/>
</linearGradient>
<linearGradient id="paint16_linear_4_6" x1="275.889" y1="146.303" x2="281.233" y2="196.391" gradientUnits="userSpaceOnUse">
<stop stop-color="#FA4A65"/>
<stop offset="1" stop-color="#FA14B2"/>
</linearGradient>
</defs>
</svg>
