<svg width="440" height="382" viewBox="0 0 440 382" fill="none" xmlns="http://www.w3.org/2000/svg">
<g filter="url(#filter0_d_16_183)">
<path d="M58.47 79.1974C128.54 -0.532623 248.84 -13.8026 302.47 11.8074C323.308 21.6818 342.584 34.5625 359.68 50.0374C361.92 52.0374 364.097 54.094 366.21 56.2074C372.809 62.707 378.997 69.6103 384.74 76.8774C391.623 85.5707 397.831 94.7775 403.31 104.417C411.161 118.135 417.38 132.724 421.84 147.887C424.791 157.836 426.728 168.058 427.62 178.397C429.15 197.807 427.82 217.397 425.21 236.647C424.97 238.487 424.71 240.327 424.43 242.167C424.36 242.677 424.29 243.167 424.21 243.697C421.34 262.867 417.28 282.207 408.21 298.927C398.31 317.197 363.77 367.887 326.31 369.197C306.88 369.887 289.72 357.197 272.11 348.197C244.11 333.917 212.42 331.117 181.52 330.287C150.62 329.457 119.34 330.347 89.23 322.687C59.12 315.027 29.6 297.437 14.21 268.197C8.98 258.257 5.01 243.937 5 232.477C5 198.667 10.52 169.097 20.16 143.407C23.2211 135.216 26.7914 127.223 30.85 119.477C36.7947 108.119 43.7991 97.348 51.77 87.3074L58.47 79.1974Z" fill="#FF7D7D"/>
<g opacity="0.7">
<path d="M58.47 79.1974C128.54 -0.532623 248.84 -13.8026 302.47 11.8074C323.308 21.6818 342.584 34.5625 359.68 50.0374C361.92 52.0374 364.097 54.094 366.21 56.2074C372.809 62.707 378.997 69.6103 384.74 76.8774C391.623 85.5707 397.831 94.7775 403.31 104.417C411.161 118.135 417.38 132.724 421.84 147.887C424.791 157.836 426.728 168.058 427.62 178.397C429.15 197.807 427.82 217.397 425.21 236.647C424.97 238.487 424.71 240.327 424.43 242.167C424.36 242.677 424.29 243.167 424.21 243.697C421.34 262.867 417.28 282.207 408.21 298.927C398.31 317.197 363.77 367.887 326.31 369.197C306.88 369.887 289.72 357.197 272.11 348.197C244.11 333.917 212.42 331.117 181.52 330.287C150.62 329.457 119.34 330.347 89.23 322.687C59.12 315.027 29.6 297.437 14.21 268.197C8.98 258.257 5.01 243.937 5 232.477C5 198.667 10.52 169.097 20.16 143.407C23.2211 135.216 26.7914 127.223 30.85 119.477C36.7947 108.119 43.7991 97.348 51.77 87.3074L58.47 79.1974Z" fill="white"/>
</g>
<path d="M5 368.037H435.05" stroke="#263238" stroke-linecap="round" stroke-linejoin="round"/>
<path d="M335.96 222.967V223.077C335.96 223.257 336 223.447 336.08 223.647C336.527 225.839 336.861 228.052 337.08 230.277C337.27 232.187 337.42 234.367 337.46 236.797C337.555 242.413 337.17 248.027 336.31 253.577C336.09 255.037 335.83 256.577 335.52 258.117C335.03 260.657 334.43 263.317 333.69 266.067C333.36 267.347 332.98 268.657 332.58 269.977L332.11 271.587C331.93 272.237 331.75 272.887 331.58 273.587C330.431 278.03 329.513 282.529 328.83 287.067C327.98 292.717 327.45 298.327 327.16 303.637C326.77 310.717 326.79 317.257 326.96 322.637C326.955 322.727 326.955 322.817 326.96 322.907C327.14 328.377 327.48 332.667 327.71 335.107C327.84 336.537 327.93 337.347 327.94 337.397" stroke="#263238" stroke-linecap="round" stroke-linejoin="round"/>
<path d="M335.99 223.107C334.493 221.777 332.689 220.839 330.74 220.377Z" fill="white"/>
<path d="M335.99 223.107C334.493 221.777 332.689 220.839 330.74 220.377" stroke="#263238" stroke-linecap="round" stroke-linejoin="round"/>
<path d="M337.11 230.307L339.77 227.897" stroke="#263238" stroke-linecap="round" stroke-linejoin="round"/>
<path d="M333.72 266.077C333.581 265.376 333.373 264.689 333.1 264.027C332.706 263.057 332.17 262.151 331.51 261.337C331.017 260.726 330.457 260.173 329.84 259.687" stroke="#263238" stroke-linecap="round" stroke-linejoin="round"/>
<path d="M331.59 273.577C331.967 272.643 332.532 271.797 333.249 271.09C333.966 270.383 334.821 269.831 335.76 269.467" stroke="#263238" stroke-linecap="round" stroke-linejoin="round"/>
<path d="M326.97 310.777C327.86 309.697 328.53 305.607 328.89 303.407C328.98 302.887 329.05 302.407 329.12 302.117" fill="white"/>
<path d="M326.97 310.777C327.86 309.697 328.53 305.607 328.89 303.407C328.98 302.887 329.05 302.407 329.12 302.117" stroke="#263238" stroke-linecap="round" stroke-linejoin="round"/>
<path d="M320.12 318.197C320.416 318.167 320.714 318.167 321.01 318.197C322.32 318.325 323.57 318.806 324.627 319.59C325.684 320.374 326.508 321.431 327.01 322.647" fill="white"/>
<path d="M320.12 318.197C320.416 318.167 320.714 318.167 321.01 318.197C322.32 318.325 323.57 318.806 324.627 319.59C325.684 320.374 326.508 321.431 327.01 322.647" stroke="#263238" stroke-linecap="round" stroke-linejoin="round"/>
<path d="M335.55 258.197C335.55 258.197 336.02 241.967 327.11 236.077" stroke="#263238" stroke-linecap="round" stroke-linejoin="round"/>
<path d="M336.31 292.987C337.48 296.777 329.31 303.987 329.31 303.987C329.31 303.987 318.52 302.637 317.31 298.857C316.1 295.077 318.87 288.857 324.11 287.257C329.35 285.657 335.18 289.197 336.31 292.987Z" fill="#FF7D7D"/>
<path d="M345.4 247.057C344.4 251.057 336.64 253.927 336.64 253.927C336.64 253.927 331.31 247.697 332.31 243.677C333.31 239.657 337.62 235.237 341.24 236.167C344.86 237.097 346.44 243.037 345.4 247.057Z" fill="#FF7D7D"/>
<path d="M314.41 307.127C319.26 309.007 322.23 317.587 322.23 317.587C322.23 317.587 314.23 321.897 309.39 320.007C304.55 318.117 299.39 312.797 300.79 309.247C302.19 305.697 309.56 305.197 314.41 307.127Z" fill="#FF7D7D"/>
<path d="M325.04 259.927C326.022 260.753 327.147 261.39 328.36 261.807C328.969 262.004 329.62 262.03 330.243 261.882C330.865 261.734 331.435 261.418 331.89 260.967C332.89 259.777 332.65 257.967 332 256.477C330.7 253.627 325.92 248.777 322.25 250.167C316.95 252.197 322.68 258.197 325.04 259.927Z" fill="#FF7D7D"/>
<path d="M335.89 267.197C335.19 268.057 334.45 269.147 334.84 270.197C335.057 270.638 335.415 270.995 335.856 271.212C336.297 271.429 336.798 271.494 337.28 271.397C338.239 271.17 339.135 270.729 339.9 270.107C341.77 268.807 345.61 266.107 343.16 263.537C340.71 260.967 337.31 265.387 335.89 267.197Z" fill="#FF7D7D"/>
<path d="M320.24 230.927C319.836 230.951 319.45 231.101 319.136 231.355C318.822 231.61 318.596 231.957 318.49 232.347C318.33 233.277 319.1 234.087 319.84 234.657C321.7 236.097 327.29 239.957 328.53 236.227C329.71 232.707 322.7 230.657 320.24 230.927Z" fill="#FF7D7D"/>
<path d="M330.53 218.667C329.38 218.777 328.23 218.357 327.07 218.427C325.91 218.497 324.64 219.427 324.89 220.567C325.14 221.707 326.43 221.957 327.49 222.017C329.315 222.134 331.148 222.01 332.94 221.647C333.364 221.607 333.758 221.407 334.04 221.087C334.51 220.397 333.77 219.477 332.97 219.237C332.149 219.128 331.341 218.934 330.56 218.657L330.53 218.667Z" fill="#FF7D7D"/>
<path d="M341.79 226.597C342.94 226.597 344.06 226.137 345.22 226.127C346.38 226.117 347.72 226.967 347.53 228.127C347.34 229.287 346.1 229.617 345.04 229.747C343.228 229.987 341.392 229.987 339.58 229.747C339.151 229.738 338.742 229.562 338.44 229.257C337.93 228.607 338.61 227.637 339.38 227.337C340.195 227.185 340.99 226.94 341.75 226.607L341.79 226.597Z" fill="#FF7D7D"/>
<path d="M340.65 311.817C340.915 311.541 341.269 311.367 341.65 311.327C341.907 311.352 342.147 311.465 342.33 311.648C342.512 311.83 342.625 312.07 342.65 312.327C342.705 312.821 342.644 313.322 342.47 313.787C341.68 316.417 332.88 335.407 330.85 331.997C329.66 329.997 332.6 323.307 333.47 321.417C335.13 317.729 337.581 314.452 340.65 311.817Z" fill="#FF7D7D"/>
<path d="M336.36 224.197C336.36 224.197 335.83 219.587 336.94 219.197" stroke="#263238" stroke-linecap="round" stroke-linejoin="round"/>
<path d="M335.38 219.387C335.947 217.759 336.925 216.306 338.22 215.167C339.61 214.167 341.84 214.087 342.85 215.477C343.98 217.027 342.85 219.377 341.12 220.207C339.39 221.037 337.35 220.787 335.45 220.517C335.45 220.237 335.45 219.957 335.45 219.677L335.38 219.387Z" fill="#FF7D7D"/>
<path d="M340.12 367.807C330.693 369.397 321.067 369.397 311.64 367.807L300.56 335.117H351.2L340.12 367.807Z" fill="white" stroke="#263238" stroke-linecap="round" stroke-linejoin="round"/>
<path d="M146.86 131.627V131.737C146.9 131.917 146.94 132.107 146.98 132.307C147.433 134.498 147.767 136.711 147.98 138.937C148.17 140.847 148.31 143.027 148.36 145.457C148.463 151.059 148.088 156.659 147.24 162.197C147.02 163.657 146.76 165.197 146.45 166.737C145.96 169.277 145.35 171.937 144.62 174.687C144.28 175.967 143.91 177.277 143.51 178.597C143.35 179.137 143.19 179.667 143.04 180.207C142.89 180.747 142.67 181.507 142.5 182.207C141.351 186.65 140.434 191.15 139.75 195.687C138.9 201.337 138.38 206.947 138.09 212.257C137.7 219.337 137.71 225.877 137.89 231.257V231.527C138.08 236.997 138.41 241.287 138.65 243.737C138.77 245.157 138.87 245.967 138.87 246.017" stroke="#263238" stroke-linecap="round" stroke-linejoin="round"/>
<path d="M146.88 131.767C146.163 131.139 145.378 130.593 144.54 130.137C143.616 129.651 142.635 129.281 141.62 129.037" fill="white"/>
<path d="M146.88 131.767C146.163 131.139 145.378 130.593 144.54 130.137C143.616 129.651 142.635 129.281 141.62 129.037" stroke="#263238" stroke-linecap="round" stroke-linejoin="round"/>
<path d="M148 138.967L150.67 136.557" stroke="#263238" stroke-linecap="round" stroke-linejoin="round"/>
<path d="M144.62 174.737C144.477 174.035 144.266 173.349 143.99 172.687C143.596 171.717 143.06 170.811 142.4 169.997C141.907 169.386 141.347 168.833 140.73 168.347" stroke="#263238" stroke-linecap="round" stroke-linejoin="round"/>
<path d="M142.49 182.197C142.863 181.263 143.425 180.416 144.141 179.708C144.857 179.001 145.711 178.449 146.65 178.087" stroke="#263238" stroke-linecap="round" stroke-linejoin="round"/>
<path d="M137.86 219.437C138.75 218.357 139.43 214.267 139.79 212.067C139.87 211.547 139.95 211.067 140.01 210.777" fill="white"/>
<path d="M137.86 219.437C138.75 218.357 139.43 214.267 139.79 212.067C139.87 211.547 139.95 211.067 140.01 210.777" stroke="#263238" stroke-linecap="round" stroke-linejoin="round"/>
<path d="M131.01 226.817C131.309 226.787 131.611 226.787 131.91 226.817C133.219 226.948 134.468 227.431 135.524 228.214C136.581 228.998 137.405 230.053 137.91 231.267" fill="white"/>
<path d="M131.01 226.817C131.309 226.787 131.611 226.787 131.91 226.817C133.219 226.948 134.468 227.431 135.524 228.214C136.581 228.998 137.405 230.053 137.91 231.267" stroke="#263238" stroke-linecap="round" stroke-linejoin="round"/>
<path d="M146.44 166.817C146.44 166.817 146.92 150.587 138 144.697" stroke="#263238" stroke-linecap="round" stroke-linejoin="round"/>
<path d="M147.25 201.647C148.41 205.437 140.25 212.647 140.25 212.647C140.25 212.647 129.45 211.297 128.25 207.517C127.05 203.737 129.82 197.517 135.05 195.917C140.28 194.317 146.08 197.867 147.25 201.647Z" fill="#FF7D7D"/>
<path d="M156.31 155.717C155.31 159.717 147.55 162.587 147.55 162.587C147.55 162.587 142.16 156.357 143.2 152.337C144.24 148.317 148.5 143.897 152.12 144.827C155.74 145.757 157.31 151.697 156.31 155.717Z" fill="#FF7D7D"/>
<path d="M125.31 215.787C130.16 217.677 133.14 226.247 133.14 226.247C133.14 226.247 125.14 230.557 120.29 228.667C115.44 226.777 110.29 221.457 111.7 217.907C113.11 214.357 120.45 213.897 125.31 215.787Z" fill="#FF7D7D"/>
<path d="M135.94 168.587C136.918 169.413 138.04 170.05 139.25 170.467C139.859 170.664 140.51 170.69 141.133 170.542C141.755 170.394 142.325 170.078 142.78 169.627C143.78 168.437 143.54 166.627 142.89 165.137C141.59 162.287 136.82 157.437 133.14 158.827C127.85 160.837 133.57 166.837 135.94 168.587Z" fill="#FF7D7D"/>
<path d="M146.78 175.867C146.09 176.727 145.35 177.867 145.73 178.867C145.948 179.308 146.305 179.665 146.746 179.882C147.187 180.099 147.688 180.164 148.17 180.067C149.13 179.842 150.026 179.401 150.79 178.777C152.66 177.487 156.5 174.777 154.05 172.207C151.6 169.637 148.25 174.047 146.78 175.867Z" fill="#FF7D7D"/>
<path d="M131.13 139.587C130.727 139.612 130.341 139.763 130.028 140.017C129.714 140.272 129.487 140.618 129.38 141.007C129.22 141.937 129.99 142.747 130.74 143.317C132.6 144.757 138.18 148.617 139.43 144.887C140.6 141.367 133.6 139.317 131.13 139.587Z" fill="#FF7D7D"/>
<path d="M141.42 127.327C140.27 127.437 139.12 127.017 137.97 127.087C136.82 127.157 135.53 128.087 135.79 129.227C136.05 130.367 137.32 130.617 138.39 130.677C140.212 130.794 142.041 130.67 143.83 130.307C144.257 130.268 144.654 130.068 144.94 129.747C145.4 129.057 144.66 128.137 143.87 127.897C143.045 127.788 142.234 127.594 141.45 127.317L141.42 127.327Z" fill="#FF7D7D"/>
<path d="M152.68 135.257C153.84 135.257 154.96 134.797 156.11 134.787C157.26 134.777 158.61 135.627 158.43 136.787C158.25 137.947 156.99 138.277 155.93 138.407C154.118 138.647 152.282 138.647 150.47 138.407C150.041 138.398 149.632 138.222 149.33 137.917C148.82 137.267 149.5 136.297 150.28 135.997C151.094 135.842 151.889 135.597 152.65 135.267L152.68 135.257Z" fill="#FF7D7D"/>
<path d="M151.54 220.477C151.806 220.202 152.16 220.029 152.54 219.987C152.795 220.017 153.032 220.132 153.214 220.314C153.395 220.495 153.51 220.732 153.54 220.987C153.592 221.482 153.527 221.982 153.35 222.447C152.57 225.077 143.76 244.067 141.74 240.657C140.54 238.657 143.48 231.967 144.35 230.077C146.013 226.388 148.468 223.111 151.54 220.477Z" fill="#FF7D7D"/>
<path d="M147.25 132.877C147.25 132.877 146.72 128.267 147.84 127.877" stroke="#263238" stroke-linecap="round" stroke-linejoin="round"/>
<path d="M146.31 128.047C146.87 126.416 147.849 124.96 149.15 123.827C150.54 122.827 152.76 122.747 153.77 124.137C154.9 125.687 153.77 128.037 152.04 128.867C150.31 129.697 148.28 129.447 146.38 129.177C146.38 128.897 146.38 128.617 146.38 128.337L146.31 128.047Z" fill="#FF7D7D"/>
<path d="M20.16 242.167V143.357" stroke="#263238" stroke-linecap="round" stroke-linejoin="round"/>
<path d="M328.66 242.167H316.45" stroke="#263238" stroke-linecap="round" stroke-linejoin="round"/>
<path d="M424.41 242.167H399.54" stroke="#263238" stroke-linecap="round" stroke-linejoin="round"/>
<path d="M315.33 92.0574H359.4V50.0774" stroke="#263238" stroke-linecap="round" stroke-linejoin="round"/>
<path d="M58.4701 79.2374H105.29V113.387H156.61" stroke="#263238" stroke-linecap="round" stroke-linejoin="round"/>
<path d="M30.8501 194.887V119.427" stroke="#263238" stroke-linecap="round" stroke-linejoin="round"/>
<path d="M51.77 86.6774V145.817" stroke="#263238" stroke-linecap="round" stroke-linejoin="round"/>
<path d="M72.6801 86.6774V138.957" stroke="#263238" stroke-linecap="round" stroke-linejoin="round"/>
<path d="M93.5901 86.6774V178.127" stroke="#263238" stroke-linecap="round" stroke-linejoin="round"/>
<path d="M193.76 73.7074V13.5774H278.89V73.7074" stroke="#263238" stroke-linecap="round" stroke-linejoin="round"/>
<path d="M200 43.4474V20.7174H215.74" stroke="#263238" stroke-linecap="round" stroke-linejoin="round"/>
<path d="M219.2 43.4474V20.7174H234.94" stroke="#263238" stroke-linecap="round" stroke-linejoin="round"/>
<path d="M238.4 43.4474V20.7174H254.14" stroke="#263238" stroke-linecap="round" stroke-linejoin="round"/>
<path d="M257.6 43.4474V20.7174H273.34" stroke="#263238" stroke-linecap="round" stroke-linejoin="round"/>
<path d="M200 73.7074V50.9774H215.74" stroke="#263238" stroke-linecap="round" stroke-linejoin="round"/>
<path d="M219.2 73.7074V50.9774H234.94" stroke="#263238" stroke-linecap="round" stroke-linejoin="round"/>
<path d="M238.4 73.7074V50.9774H254.14" stroke="#263238" stroke-linecap="round" stroke-linejoin="round"/>
<path d="M257.6 73.7074V50.9774H273.34" stroke="#263238" stroke-linecap="round" stroke-linejoin="round"/>
<path d="M366.22 55.2774V130.627" stroke="#263238" stroke-linecap="round" stroke-linejoin="round"/>
<path d="M397.13 236.647H399.54" stroke="#263238" stroke-linecap="round" stroke-linejoin="round"/>
<path d="M384.75 76.9174V161.277" stroke="#263238" stroke-linecap="round" stroke-linejoin="round"/>
<path d="M403.29 215.107V236.647H418.08" stroke="#263238" stroke-linecap="round" stroke-linejoin="round"/>
<path d="M403.29 104.417V161.707" stroke="#263238" stroke-linecap="round" stroke-linejoin="round"/>
<path d="M421.82 147.887V236.647H425.19" stroke="#263238" stroke-linecap="round" stroke-linejoin="round"/>
<path d="M196 243.977H5V368.037H196V243.977Z" fill="white" stroke="#263238" stroke-linecap="round" stroke-linejoin="round"/>
<path d="M5 243.977L100.5 306.007L196 243.977H5Z" fill="white" stroke="#263238" stroke-linecap="round" stroke-linejoin="round"/>
<path d="M71.79 287.357L5 368.037" stroke="#263238" stroke-linecap="round" stroke-linejoin="round"/>
<path d="M129.73 287.357L196.52 368.037" stroke="#263238" stroke-linecap="round" stroke-linejoin="round"/>
<path d="M298.21 85.6774H253.81C252.531 85.6789 251.276 86.0229 250.176 86.6735C249.075 87.3242 248.168 88.2578 247.55 89.3774C246.459 91.3465 244.861 92.9877 242.921 94.1304C240.982 95.2732 238.771 95.8758 236.52 95.8758C234.269 95.8758 232.059 95.2732 230.119 94.1304C228.18 92.9877 226.581 91.3465 225.49 89.3774C224.877 88.2433 223.969 87.2961 222.862 86.636C221.754 85.9759 220.489 85.6274 219.2 85.6274H174.85C173.633 85.6115 172.424 85.8356 171.293 86.2869C170.163 86.7382 169.132 87.4077 168.26 88.2574C167.388 89.1071 166.692 90.1202 166.212 91.2389C165.731 92.3576 165.476 93.56 165.46 94.7774V345.197C165.494 347.655 166.502 349.999 168.263 351.714C170.023 353.43 172.392 354.377 174.85 354.347H298.21C300.669 354.377 303.039 353.43 304.801 351.715C306.563 350 307.573 347.656 307.61 345.197V94.8274C307.576 92.3679 306.567 90.0225 304.804 88.3068C303.041 86.5911 300.67 85.6453 298.21 85.6774Z" fill="#FF7D7D"/>
<path d="M311.94 92.0574C311.945 90.3705 311.618 88.6991 310.976 87.1391C310.334 85.5791 309.39 84.1611 308.199 82.9664C307.008 81.7717 305.593 80.8238 304.035 80.1771C302.477 79.5303 300.807 79.1974 299.12 79.1974H173.95C172.267 79.1961 170.6 79.5264 169.045 80.1696C167.49 80.8128 166.076 81.7562 164.886 82.9458C163.695 84.1355 162.751 85.5481 162.106 87.1029C161.462 88.6577 161.13 90.3243 161.13 92.0074V355.197C161.13 358.595 162.48 361.853 164.882 364.255C167.284 366.658 170.543 368.007 173.94 368.007H299.12C302.518 368.007 305.778 366.658 308.182 364.256C310.586 361.854 311.937 358.596 311.94 355.197V92.0574ZM307.61 345.197C307.573 347.656 306.563 350 304.801 351.715C303.039 353.43 300.669 354.377 298.21 354.347H174.85C172.392 354.377 170.023 353.43 168.263 351.714C166.502 349.999 165.494 347.655 165.46 345.197V94.8274C165.476 93.61 165.731 92.4076 166.211 91.2889C166.692 90.1702 167.388 89.1571 168.26 88.3074C169.132 87.4577 170.163 86.7882 171.293 86.3369C172.424 85.8856 173.633 85.6615 174.85 85.6774H219.22C220.508 85.677 221.772 86.0255 222.878 86.6857C223.983 87.346 224.89 88.2934 225.5 89.4274C226.591 91.3965 228.19 93.0377 230.129 94.1804C232.069 95.3232 234.279 95.9258 236.53 95.9258C238.781 95.9258 240.992 95.3232 242.931 94.1804C244.871 93.0377 246.469 91.3965 247.56 89.4274C248.176 88.3064 249.083 87.3717 250.184 86.7208C251.285 86.0699 252.541 85.7268 253.82 85.7274H298.22C299.438 85.7115 300.646 85.9356 301.777 86.3869C302.908 86.8382 303.938 87.5077 304.81 88.3574C305.682 89.2071 306.378 90.2202 306.859 91.3389C307.339 92.4576 307.594 93.66 307.61 94.8774V345.197Z" fill="#263238"/>
<path opacity="0.2" d="M269.41 79.2374L186.26 368.027L219.28 367.997L299.35 79.2374H269.41Z" fill="white"/>
<path opacity="0.2" d="M257.01 79.2374L169.1 368.037L173.91 368.007L260.17 79.2374H257.01Z" fill="white"/>
<path d="M258.96 293.927C259.022 296.79 258.51 299.636 257.454 302.297C256.399 304.959 254.822 307.383 252.815 309.425C250.809 311.468 248.414 313.088 245.772 314.191C243.13 315.294 240.293 315.857 237.43 315.847C231.588 315.825 225.986 313.52 221.82 309.425C217.653 305.33 215.253 299.768 215.13 293.927C215.07 291.066 215.583 288.221 216.639 285.56C217.695 282.9 219.273 280.478 221.279 278.436C223.285 276.394 225.679 274.775 228.321 273.672C230.962 272.57 233.798 272.007 236.66 272.017C242.501 272.037 248.103 274.339 252.27 278.433C256.437 282.527 258.838 288.088 258.96 293.927Z" fill="white" stroke="#263238" stroke-linecap="round" stroke-linejoin="round"/>
<path d="M229.86 310.287C227.825 309.535 225.959 308.386 224.37 306.907C222.769 305.369 221.529 303.494 220.74 301.417C219.842 299.09 219.397 296.612 219.43 294.117C219.418 291.99 219.794 289.879 220.54 287.887C221.219 286.048 222.236 284.352 223.54 282.887C226.111 280.076 229.431 278.056 233.11 277.067C234.917 276.58 236.779 276.335 238.65 276.337C240.204 276.33 241.752 276.515 243.26 276.887C244.716 277.245 246.108 277.821 247.39 278.597C248.66 279.36 249.798 280.322 250.76 281.447C251.763 282.661 252.53 284.051 253.02 285.547C253.581 287.254 253.858 289.041 253.84 290.837C253.819 294.309 252.568 297.661 250.31 300.297C249.339 301.398 248.19 302.328 246.91 303.047C245.807 303.68 244.562 304.024 243.29 304.047C242.412 304.059 241.555 303.781 240.85 303.257C240.497 302.996 240.209 302.655 240.009 302.263C239.809 301.871 239.704 301.437 239.7 300.997C239.044 301.995 238.144 302.808 237.085 303.359C236.026 303.91 234.844 304.182 233.65 304.147C232.711 304.189 231.775 304.021 230.91 303.654C230.045 303.287 229.273 302.731 228.65 302.027C227.402 300.576 226.742 298.711 226.8 296.797C226.808 295.223 227.082 293.661 227.61 292.177C228.136 290.682 228.881 289.274 229.82 287.997C230.757 286.743 231.95 285.703 233.32 284.947C234.69 284.174 236.237 283.771 237.81 283.777C238.904 283.766 239.983 284.027 240.95 284.537C241.89 285.038 242.651 285.817 243.13 286.767L243.33 286.097C243.49 285.628 243.829 285.241 244.273 285.022C244.717 284.803 245.231 284.769 245.7 284.927C245.882 284.989 246.054 285.077 246.21 285.187C246.359 285.306 246.478 285.459 246.556 285.633C246.634 285.807 246.67 285.997 246.66 286.187C246.661 286.374 246.63 286.56 246.57 286.737L243.33 297.517C243.045 298.339 242.86 299.192 242.78 300.057C242.75 300.219 242.761 300.385 242.811 300.542C242.86 300.699 242.948 300.84 243.066 300.955C243.183 301.07 243.327 301.154 243.485 301.199C243.643 301.245 243.809 301.251 243.97 301.217C245.117 301.144 246.191 300.632 246.97 299.787C248.051 298.719 248.881 297.425 249.4 295.997C250.021 294.438 250.34 292.775 250.34 291.097C250.353 289.62 250.138 288.149 249.7 286.737C249.333 285.52 248.75 284.379 247.98 283.367C247.251 282.446 246.368 281.658 245.37 281.037C244.375 280.41 243.289 279.941 242.15 279.647C240.982 279.34 239.778 279.186 238.57 279.187C237.038 279.19 235.513 279.405 234.04 279.827C232.523 280.257 231.078 280.907 229.75 281.757C228.412 282.602 227.2 283.632 226.15 284.817C225.069 286.066 224.229 287.503 223.67 289.057C223.042 290.75 222.727 292.542 222.74 294.347C222.707 296.485 223.095 298.609 223.88 300.597C224.558 302.319 225.626 303.859 227 305.097C228.328 306.25 229.862 307.142 231.52 307.727C233.27 308.346 235.114 308.658 236.97 308.647C238.954 308.647 240.926 308.347 242.82 307.757C243.009 307.689 243.209 307.656 243.41 307.657C243.598 307.654 243.784 307.691 243.956 307.765C244.129 307.84 244.283 307.949 244.41 308.087C244.538 308.22 244.638 308.377 244.705 308.549C244.772 308.72 244.804 308.903 244.8 309.087C244.824 309.378 244.742 309.668 244.57 309.903C244.397 310.138 244.145 310.303 243.86 310.367C241.5 311.089 239.048 311.466 236.58 311.487C234.287 311.484 232.013 311.078 229.86 310.287ZM238.12 299.917C239.109 299.208 239.842 298.197 240.21 297.037L242.3 289.687L242.16 289.387C242.03 289.147 241.872 288.922 241.69 288.717C241.44 288.428 241.165 288.161 240.87 287.917C240.496 287.618 240.073 287.385 239.62 287.227C238.437 286.814 237.141 286.861 235.99 287.357C235.36 287.624 234.781 288 234.28 288.467C233.76 288.953 233.297 289.496 232.9 290.087C232.503 290.703 232.168 291.356 231.9 292.037C231.619 292.719 231.402 293.426 231.25 294.147C231.099 294.834 231.022 295.535 231.02 296.237C231.011 296.689 231.038 297.14 231.1 297.587C231.146 297.985 231.234 298.377 231.36 298.757C231.47 299.111 231.628 299.447 231.83 299.757C232.011 300.037 232.242 300.281 232.51 300.477C232.796 300.685 233.118 300.837 233.46 300.927C233.859 301.044 234.274 301.098 234.69 301.087C235.941 301.103 237.162 300.702 238.16 299.947L238.12 299.917Z" fill="#FF7D7D" stroke="#263238" stroke-linecap="round" stroke-linejoin="round"/>
<path d="M258.47 218.797C258.53 221.659 258.017 224.504 256.961 227.164C255.905 229.825 254.328 232.247 252.322 234.289C250.315 236.33 247.921 237.95 245.279 239.052C242.638 240.155 239.802 240.717 236.94 240.707C231.099 240.688 225.497 238.385 221.33 234.292C217.164 230.198 214.763 224.637 214.64 218.797C214.577 215.934 215.089 213.088 216.143 210.426C217.198 207.764 218.775 205.339 220.782 203.297C222.789 201.254 225.184 199.633 227.827 198.531C230.47 197.428 233.307 196.866 236.17 196.877C242.012 196.9 247.614 199.204 251.781 203.3C255.947 207.395 258.348 212.957 258.47 218.797Z" fill="white" stroke="#263238" stroke-linecap="round" stroke-linejoin="round"/>
<path d="M250.31 216.797C243.44 212.297 229.97 212.297 223.42 216.797C222.222 217.022 221.145 217.67 220.385 218.622C219.625 219.575 219.233 220.77 219.28 221.987C219.38 224.897 231.47 224.897 231.37 221.987C231.311 220.771 230.847 219.609 230.05 218.687C234.585 217.707 239.276 217.707 243.81 218.687C243.072 219.626 242.69 220.794 242.73 221.987C242.83 224.897 254.92 224.897 254.81 221.987C254.753 220.742 254.278 219.553 253.462 218.611C252.645 217.669 251.535 217.03 250.31 216.797Z" fill="#FF7D7D" stroke="#263238" stroke-linecap="round" stroke-linejoin="round"/>
<path d="M258.47 145.817C258.59 151.207 255.65 156.027 250.93 159.237V172.327L241.54 162.927C240.022 163.199 238.482 163.333 236.94 163.327C224.84 163.327 214.85 155.487 214.64 145.817C214.43 136.147 224.06 128.317 236.17 128.317C248.28 128.317 258.31 136.197 258.47 145.817Z" fill="white" stroke="#263238" stroke-linecap="round" stroke-linejoin="round"/>
<path d="M227.22 145.817C227.222 146.379 227.057 146.93 226.746 147.398C226.435 147.866 225.993 148.232 225.474 148.448C224.955 148.665 224.384 148.722 223.832 148.614C223.281 148.506 222.774 148.236 222.375 147.839C221.977 147.442 221.706 146.936 221.595 146.385C221.485 145.834 221.541 145.262 221.755 144.743C221.97 144.223 222.334 143.779 222.801 143.467C223.268 143.154 223.818 142.987 224.38 142.987C225.132 142.987 225.852 143.285 226.385 143.816C226.917 144.346 227.217 145.066 227.22 145.817Z" fill="#FF7D7D" stroke="#263238" stroke-linecap="round" stroke-linejoin="round"/>
<path d="M239.37 145.817C239.372 146.379 239.207 146.93 238.896 147.398C238.586 147.866 238.143 148.232 237.624 148.448C237.105 148.665 236.534 148.722 235.982 148.614C235.431 148.506 234.924 148.236 234.526 147.839C234.127 147.442 233.856 146.936 233.745 146.385C233.635 145.834 233.691 145.262 233.905 144.743C234.12 144.223 234.484 143.779 234.951 143.467C235.419 143.154 235.968 142.987 236.53 142.987C237.282 142.987 238.003 143.285 238.535 143.816C239.067 144.346 239.368 145.066 239.37 145.817Z" fill="#FF7D7D" stroke="#263238" stroke-linecap="round" stroke-linejoin="round"/>
<path d="M251.52 145.817C251.522 146.379 251.357 146.93 251.046 147.398C250.735 147.866 250.293 148.232 249.774 148.448C249.255 148.665 248.684 148.722 248.132 148.614C247.581 148.506 247.074 148.236 246.675 147.839C246.277 147.442 246.006 146.936 245.895 146.385C245.785 145.834 245.841 145.262 246.055 144.743C246.27 144.223 246.634 143.779 247.101 143.467C247.568 143.154 248.118 142.987 248.68 142.987C249.432 142.987 250.152 143.285 250.685 143.816C251.217 144.346 251.517 145.066 251.52 145.817Z" fill="#FF7D7D" stroke="#263238" stroke-linecap="round" stroke-linejoin="round"/>
<path d="M114.11 185.727C113.755 186.388 113.244 186.951 112.62 187.367C108.007 191.047 103.287 194.577 98.4601 197.957C96.6901 199.197 94.8501 200.477 93.1401 201.867C82.8601 208.747 89.1401 210.427 82.8601 224.987C81.3801 228.467 81.6501 245.517 81.6501 245.517H81.1401C79.9363 244.329 78.657 243.22 77.3101 242.197C77.124 242.072 76.9303 241.959 76.7301 241.857C76.5423 241.761 76.3394 241.696 76.1301 241.667C75.1301 241.607 71.3201 242.067 67.4701 241.817L66.4701 241.737C65.9101 241.677 65.3601 241.607 64.8101 241.507C64.2601 241.407 63.7301 241.297 63.2201 241.157C59.5665 239.986 55.9838 238.604 52.4901 237.017L50.7501 236.267L49.8901 235.897L49.1101 235.557L48.5501 235.317L48.0101 235.087C47.1001 234.707 46.2501 234.357 45.4701 234.087C45.1126 233.959 44.7488 233.849 44.3801 233.757C44.3801 234.577 44.2501 235.417 44.1401 236.237C43.6601 240.147 42.5901 243.757 40.6801 244.237C40.6408 244.248 40.5995 244.248 40.5601 244.237C40.3919 244.269 40.2212 244.286 40.0501 244.287H39.9001C39.477 244.279 39.0581 244.201 38.6601 244.057C36.9267 243.318 35.5101 241.99 34.6601 240.307C34.2803 239.598 34.0682 238.811 34.0401 238.007C34.0401 235.097 33.2301 217.927 33.2301 212.927C33.2301 207.927 34.2301 199.177 36.7201 195.927C37.6932 194.549 38.9222 193.371 40.3401 192.457C42.1646 190.936 44.2571 189.77 46.5101 189.017C49.1701 188.147 55.1201 185.927 59.2701 184.357L53.0001 186.777C54.5901 189.497 58.0001 193.777 64.1501 194.327C69.9301 194.817 73.5101 189.587 75.3401 185.767C75.5001 185.827 85.5601 183.917 87.8901 184.027C95.4801 184.357 101.67 180.247 104.47 178.617C105.315 178.113 106.262 177.806 107.242 177.719C108.222 177.632 109.209 177.767 110.13 178.115C111.05 178.463 111.88 179.015 112.557 179.729C113.234 180.443 113.741 181.3 114.04 182.237V182.327C114.478 183.414 114.502 184.623 114.11 185.727Z" fill="#FF7D7D" stroke="#263238" stroke-linecap="round" stroke-linejoin="round"/>
<path d="M75.2301 185.827L74.7701 185.667" stroke="#263238" stroke-linecap="round" stroke-linejoin="round"/>
<path d="M83.7602 249.917C83.765 249.957 83.765 249.997 83.7602 250.037C83.7195 250.134 83.6578 250.22 83.5794 250.29C83.5009 250.359 83.4079 250.41 83.3071 250.439C83.2063 250.468 83.1004 250.474 82.9971 250.456C82.8937 250.439 82.7957 250.398 82.7102 250.337C82.2502 250.077 81.5402 248.407 81.5402 248.407L80.7502 247.587L80.2302 247.037C80.3102 247.237 80.9402 248.767 80.6102 249.477C80.5934 249.526 80.5661 249.57 80.5302 249.607C80.3092 249.903 80.0224 250.142 79.6926 250.307C79.3627 250.472 78.9989 250.558 78.6302 250.557C78.2002 250.557 76.9402 250.707 75.8402 250.777H75.7202C75.3871 250.796 75.0532 250.796 74.7202 250.777C73.8323 250.663 72.9758 250.374 72.2002 249.927C70.441 249.669 68.7077 249.257 67.0202 248.697L66.7202 248.537L66.4502 248.377C66.2726 248.27 66.1082 248.143 65.9602 247.997C65.3508 247.489 64.8332 246.881 64.4302 246.197C64.4302 246.197 60.3702 246.027 54.9202 245.607C52.9202 245.457 50.7602 245.267 48.5202 245.047C45.0802 244.697 42.2402 244.717 40.0102 244.407H39.8502C39.4102 244.347 39.0002 244.267 38.6102 244.177C37.6584 243.991 36.7783 243.541 36.0709 242.878C35.3634 242.214 34.8571 241.365 34.6102 240.427C34.4792 239.983 34.3724 239.533 34.2902 239.077L36.0302 236.077C36.9371 235.35 37.9484 234.763 39.0302 234.337C40.7085 233.635 42.5617 233.464 44.3402 233.847C44.7088 233.939 45.0726 234.049 45.4302 234.177C46.2102 234.477 47.0602 234.827 47.9702 235.177L48.5202 235.407L49.0802 235.647L49.8602 235.987C54.3102 237.827 59.6202 240.197 63.1702 241.197C64.2364 241.477 65.3232 241.67 66.4202 241.777L67.4202 241.857C71.2702 242.107 75.0702 241.647 76.0802 241.707C77.0902 241.767 79.5602 244.117 81.1402 245.567C81.5702 245.967 81.9502 246.297 82.2102 246.497L82.3302 246.597L82.4202 246.677C82.9929 247.265 83.394 247.998 83.5802 248.797C83.6589 249.065 83.7124 249.34 83.7402 249.617C83.7583 249.716 83.765 249.817 83.7602 249.917Z" fill="white" stroke="#263238" stroke-linecap="round" stroke-linejoin="round"/>
<path d="M83.7601 249.917C83.7649 249.957 83.7649 249.998 83.7601 250.037C83.7185 250.133 83.6559 250.218 83.5771 250.287C83.4982 250.355 83.4051 250.405 83.3044 250.433C83.2037 250.461 83.098 250.466 82.9952 250.448C82.8924 250.429 82.795 250.388 82.7101 250.327C82.2156 249.754 81.8202 249.101 81.5401 248.397L80.7501 247.587L80.2301 247.047C80.3001 247.207 80.9501 248.767 80.6201 249.487C80.6033 249.536 80.576 249.58 80.5401 249.617C80.4292 249.765 80.3017 249.899 80.1601 250.017C79.7289 250.364 79.1932 250.554 78.6401 250.557C78.2001 250.557 76.9501 250.697 75.8601 250.777H75.7201C75.387 250.796 75.0532 250.796 74.7201 250.777C73.8376 250.66 72.9857 250.374 72.2101 249.937C70.4509 249.674 68.7178 249.259 67.0301 248.697L66.7401 248.557L66.4701 248.397C66.2972 248.284 66.1333 248.157 65.9801 248.017C65.3617 247.505 64.8372 246.889 64.4301 246.197C64.4301 246.197 60.4901 246.027 55.1501 245.617C53.1501 245.467 50.8401 245.267 48.5201 245.037C45.3601 244.727 42.7501 244.637 40.6401 244.307L39.9901 244.187L39.2401 244.017C39.0672 242.792 39.1941 241.543 39.6101 240.377C39.9977 239.394 40.5989 238.509 41.3701 237.786C42.1414 237.063 43.0636 236.521 44.0701 236.197C45.3192 235.738 46.599 235.367 47.9001 235.087L48.4401 235.317L49.0001 235.557L49.7801 235.897C54.3101 237.847 59.5601 240.207 63.1201 241.177C64.1855 241.458 65.2727 241.649 66.3701 241.747L67.3701 241.827C71.2201 242.087 75.0201 241.627 76.0301 241.687C77.0401 241.747 79.5001 244.087 81.0301 245.537C81.3772 245.869 81.741 246.183 82.1201 246.477L82.2401 246.567L82.3301 246.647C82.9137 247.227 83.3167 247.963 83.4901 248.767C83.5688 249.035 83.6223 249.31 83.6501 249.587C83.7012 249.692 83.7382 249.803 83.7601 249.917Z" fill="white" stroke="#263238" stroke-linecap="round" stroke-linejoin="round"/>
<path d="M71.7902 247.257C71.7902 247.257 74.0602 248.437 74.9602 248.847C75.8602 249.257 75.7802 250.907 75.7802 250.907" fill="white"/>
<path d="M71.7902 247.257C71.7902 247.257 74.0602 248.437 74.9602 248.847C75.8602 249.257 75.7802 250.907 75.7802 250.907" stroke="#263238" stroke-linecap="round" stroke-linejoin="round"/>
<path d="M74.2201 245.657C75.6482 246.677 77.0233 247.768 78.3401 248.927C78.5325 249.153 78.6578 249.428 78.702 249.722C78.7462 250.015 78.7074 250.315 78.5901 250.587" fill="white"/>
<path d="M74.2201 245.657C75.6482 246.677 77.0233 247.768 78.3401 248.927C78.5325 249.153 78.6578 249.428 78.702 249.722C78.7462 250.015 78.7074 250.315 78.5901 250.587" stroke="#263238" stroke-linecap="round" stroke-linejoin="round"/>
<path d="M80.2001 247.027C79.0169 245.76 77.765 244.558 76.4501 243.427Z" fill="white"/>
<path d="M80.2001 247.027C79.0169 245.76 77.765 244.558 76.4501 243.427" stroke="#263238" stroke-linecap="round" stroke-linejoin="round"/>
<path d="M75.2201 185.847C73.4101 189.657 69.8201 194.847 64.0401 194.397C57.9201 193.877 54.4801 189.567 52.8901 186.837C55.0901 185.997 57.3201 185.137 59.1501 184.417C59.1501 182.557 59.0901 180.327 58.8901 178.117C58.8901 177.637 58.7901 177.117 58.7401 176.667C58.6901 176.217 58.6301 175.897 58.5701 175.527H70.2001C70.2001 175.527 70.1301 175.987 70.0401 176.757C69.9701 177.447 69.8801 178.367 69.8101 179.407C69.7201 180.787 69.6601 182.407 69.7001 183.937C70.2601 184.127 70.8301 184.337 71.4001 184.557L72.5001 184.937C72.9401 185.097 73.3701 185.237 73.8301 185.387L74.8301 185.687C74.9634 185.732 75.0936 185.786 75.2201 185.847Z" fill="white" stroke="#263238" stroke-linecap="round" stroke-linejoin="round"/>
<path d="M58.7401 176.627C58.7401 176.627 60.9101 182.267 64.0601 183.227C67.2101 184.187 70.0601 176.757 70.0601 176.757C70.0601 176.757 65.6201 181.497 63.9701 180.757C62.3201 180.017 58.7601 176.667 58.7601 176.667" fill="#263238"/>
<path d="M56.8701 145.477C53.9313 148.123 51.6011 151.374 50.0401 155.007C48.6101 158.007 47.4001 161.457 48.5001 164.597C49.1583 166.156 50.0896 167.586 51.2501 168.817C53.4101 171.407 56.4401 178.637 58.6001 181.227C58.7401 176.617 54.8801 169.167 55.2901 165.297C55.7867 162.308 56.7697 159.419 58.2001 156.747C59.6548 153.243 61.5573 149.943 63.8601 146.927C65.1701 145.347 69.3801 142.537 65.1301 142.197C62.3101 141.967 59.0001 143.727 56.8701 145.477Z" fill="#263238" stroke="#263238" stroke-linecap="round" stroke-linejoin="round"/>
<path d="M54.1501 161.197C54.1501 161.197 52.6601 158.307 51.0901 161.047C49.9601 163.047 51.5901 166.197 52.2901 167.367C52.5224 167.7 52.837 167.968 53.2033 168.143C53.5696 168.318 53.975 168.395 54.3801 168.367L54.1501 161.197Z" fill="white" stroke="#263238" stroke-linecap="round" stroke-linejoin="round"/>
<path d="M73.7301 171.637C72.7745 173.526 71.5295 175.254 70.0401 176.757L69.1401 177.687C67.2801 179.527 65.2701 180.987 63.9501 180.687C62.8001 180.457 61.3001 179.277 59.8301 177.767C59.4601 177.397 59.1001 176.997 58.7401 176.597C57.1395 174.846 55.7654 172.901 54.6501 170.807C54.3402 170.022 54.1416 169.198 54.0601 168.357C53.8077 165.852 53.7209 163.334 53.8001 160.817C53.8001 159.927 53.8001 159.217 53.8001 158.817C53.8001 157.077 60.3201 151.027 60.3201 151.027C60.4958 150.963 60.6846 150.942 60.8701 150.967C61.9914 151.172 63.0722 151.557 64.0701 152.107C68.0201 154.027 73.5301 157.837 73.9301 159.287C74.5401 161.397 74.3101 169.757 73.7301 171.637Z" fill="white" stroke="#263238" stroke-linecap="round" stroke-linejoin="round"/>
<path d="M60.7802 163.617C60.7802 164.317 60.5201 164.887 60.2301 164.887C59.9401 164.887 59.6501 164.337 59.6501 163.617C59.6501 162.897 59.9101 162.327 60.2301 162.327C60.5501 162.327 60.7802 162.917 60.7802 163.617Z" fill="#263238"/>
<path d="M68.2301 162.337C68.5501 162.337 68.8102 162.907 68.8102 163.617C68.8102 164.327 68.5501 164.887 68.2301 164.887C67.9101 164.887 67.6501 164.317 67.6501 163.617C67.6501 162.917 67.9101 162.337 68.2301 162.337Z" fill="#263238"/>
<path d="M57.0601 160.467C57.0601 160.467 58.0601 158.467 61.6001 159.077" stroke="#263238" stroke-linecap="round" stroke-linejoin="round"/>
<path d="M71.5201 160.467C71.5201 160.467 70.5201 158.467 66.9801 159.077" stroke="#263238" stroke-linecap="round" stroke-linejoin="round"/>
<path d="M64.9701 168.507C65.3297 168.485 65.6726 168.347 65.9481 168.115C66.2236 167.883 66.4171 167.568 66.5001 167.217C66.5001 167.217 64.5601 164.217 65.1501 161.277" stroke="#263238" stroke-linecap="round" stroke-linejoin="round"/>
<path d="M52.8901 154.197C52.0844 155.29 51.4753 156.515 51.0901 157.817" stroke="white" stroke-linecap="round" stroke-linejoin="round"/>
<path d="M61.2501 146.197C61.2501 146.197 60.1401 148.037 55.2501 151.787C54.935 152.015 54.6344 152.262 54.3501 152.527" stroke="white" stroke-linecap="round" stroke-linejoin="round"/>
<path d="M45.5701 204.827C44.9034 214.334 44.2367 223.847 43.5701 233.367V232.637" fill="#263238"/>
<path d="M45.5701 204.827C44.9034 214.334 44.2367 223.847 43.5701 233.367V232.637" stroke="#263238" stroke-linecap="round" stroke-linejoin="round"/>
<path d="M108.74 173.437C109.644 173.084 110.621 172.958 111.585 173.069C112.549 173.181 113.471 173.527 114.27 174.077C115.865 175.207 117.026 176.848 117.56 178.727C118.198 180.599 118.134 182.639 117.38 184.467C116.99 185.369 116.363 186.147 115.565 186.719C114.767 187.292 113.829 187.637 112.85 187.717C111.391 187.699 109.982 187.188 108.85 186.267C105.11 183.467 103.24 175.807 108.74 173.437Z" fill="white" stroke="#263238" stroke-linecap="round" stroke-linejoin="round"/>
<path d="M117.02 141.507C117.02 141.627 117.02 142.417 117.09 142.557C117.44 144.097 118.18 147.947 116.31 148.727C117.02 151.257 118.76 167.787 118.53 176.217C118.47 178.737 118.03 181.727 115.77 182.807C111.96 184.617 108.34 180.207 108.77 176.757C109.44 172.047 109.21 167.247 109.77 162.487C110.38 157.547 111.5 152.487 110.27 147.657C109.97 147.327 108.05 143.517 107.42 142.467C107.137 142.019 106.916 141.534 106.76 141.027C106.514 139.302 106.394 137.56 106.4 135.817C106.97 134.737 107.71 135.737 108.1 136.447C108.418 137.313 108.528 138.241 108.42 139.157C108.383 139.381 108.415 139.611 108.51 139.817C108.594 139.935 108.708 140.029 108.839 140.088C108.971 140.148 109.116 140.172 109.26 140.157C110.49 139.977 110.44 138.947 110.42 138.157C110.42 135.507 110.42 132.857 110.42 130.227C110.42 129.787 110.56 128.597 110.98 128.557C111.4 128.517 112.03 128.857 112.09 130.267C112.16 131.857 112.16 136.757 112.16 136.757C112.2 136.798 112.249 136.827 112.303 136.843C112.358 136.859 112.415 136.86 112.47 136.847C112.57 136.847 112.61 136.667 112.65 136.567C113.24 134.107 113.84 131.647 114.43 129.187C114.5 128.897 114.93 128.297 115.24 128.297C115.98 128.297 116 129.157 116.04 129.407C116.3 130.727 114.45 136.167 114.14 137.407C114.14 137.627 114.14 137.957 114.37 137.897L117.27 132.047C117.405 131.706 117.616 131.4 117.889 131.153C118.161 130.907 118.487 130.727 118.84 130.627C118.889 130.612 118.941 130.612 118.99 130.627C119.042 130.658 119.084 130.703 119.11 130.757C119.39 131.257 119.11 131.947 118.95 132.497C118.79 133.047 116.62 137.087 115.85 138.717C115.74 138.947 115.56 139.467 115.78 139.717C116 139.967 116.4 139.487 116.56 139.157C117.05 138.157 117.51 137.217 117.96 136.237C118.1 135.947 118.31 135.537 118.64 135.607C120.59 136.027 117.82 140.117 117.02 141.507Z" fill="white" stroke="#263238" stroke-linecap="round" stroke-linejoin="round"/>
<path d="M111.64 140.647C112.647 141.445 113.521 142.397 114.23 143.467C114.58 144.006 114.814 144.611 114.917 145.244C115.02 145.878 114.991 146.526 114.83 147.147C114.782 147.31 114.718 147.467 114.64 147.617" fill="white"/>
<path d="M111.64 140.647C112.647 141.445 113.521 142.397 114.23 143.467C114.58 144.006 114.814 144.611 114.917 145.244C115.02 145.878 114.991 146.526 114.83 147.147C114.782 147.31 114.718 147.467 114.64 147.617" stroke="#263238" stroke-linecap="round" stroke-linejoin="round"/>
<path d="M83.4701 203.117C84.5283 205.251 85.2405 207.54 85.5801 209.897C85.8701 212.257 85.9601 214.107 84.3501 220.737" stroke="#263238" stroke-linecap="round" stroke-linejoin="round"/>
<path d="M60.9001 149.527C60.7632 149.936 60.7288 150.372 60.8001 150.797C60.9898 151.332 61.3388 151.797 61.8001 152.127C64.9963 154.928 68.5715 157.265 72.4201 159.067C72.9028 159.193 73.3212 159.494 73.5931 159.912C73.8651 160.331 73.971 160.835 73.8901 161.327V169.057C73.9393 169.855 73.8616 170.655 73.6601 171.427C73.1001 173.227 71.8601 174.677 70.9601 176.337C70.0452 177.911 69.5815 179.707 69.6201 181.527C69.3701 179.617 76.0501 175.917 77.8601 168.397C78.1101 167.337 83.3101 161.027 80.1901 153.617C77.1901 146.507 72.4701 143.447 70.8801 143.077C69.8008 142.762 68.6619 142.708 67.5577 142.92C66.4534 143.132 65.4156 143.604 64.5301 144.297C62.7827 145.599 61.508 147.435 60.9001 149.527Z" fill="#263238" stroke="#263238" stroke-linecap="round" stroke-linejoin="round"/>
<path d="M67.4501 171.197C66.8801 171.317 66.3001 171.427 65.7201 171.497C63.7201 171.747 61.5801 171.437 60.2701 169.977C60.3701 171.287 61.2701 176.237 63.9601 176.377C66.6501 176.517 67.4501 171.197 67.4501 171.197Z" stroke="#263238" stroke-linecap="round" stroke-linejoin="round"/>
<path d="M64.8501 146.507C66.0035 149.126 67.8413 151.385 70.1701 153.047C71.8601 154.257 73.7901 155.127 75.3401 156.507C77.3401 158.337 78.6501 161.237 77.8801 163.867" stroke="white" stroke-linecap="round" stroke-linejoin="round"/>
<path d="M85.7501 186.907C83.8236 188.454 82.555 190.673 82.2001 193.117C81.8553 195.23 82.1153 197.397 82.9501 199.367" stroke="#263238" stroke-linecap="round" stroke-linejoin="round"/>
<path d="M48.5001 203.407C48.3401 206.027 46.7101 208.297 45.1301 210.407Z" fill="#263238"/>
<path d="M48.5001 203.407C48.3401 206.027 46.7101 208.297 45.1301 210.407" stroke="#263238" stroke-linecap="round" stroke-linejoin="round"/>
<path d="M44.6001 223.437C45.3944 224.767 46.4575 225.917 47.7214 226.812C48.9853 227.707 50.4221 228.329 51.9401 228.637" stroke="#263238" stroke-linecap="round" stroke-linejoin="round"/>
<path d="M82.8602 224.997C82.8602 224.997 80.1702 228.997 71.0302 229.837" stroke="#263238" stroke-linecap="round" stroke-linejoin="round"/>
<path d="M350.61 189.947C350.61 189.947 315.76 200.747 309.2 192.217L310.09 148.707H315.38L321.6 179.357L350.16 174.127C350.16 174.127 353.82 185.467 350.61 189.947Z" fill="white"/>
<mask id="mask0_16_183" style="mask-type:luminance" maskUnits="userSpaceOnUse" x="309" y="148" width="43" height="48">
<path d="M350.61 189.947C350.61 189.947 315.76 200.747 309.2 192.217L310.09 148.707H315.38L321.6 179.357L350.16 174.127C350.16 174.127 353.82 185.467 350.61 189.947Z" fill="white"/>
</mask>
<g mask="url(#mask0_16_183)">
<path d="M335.93 191.467C333.932 192.262 332.025 193.268 330.24 194.467C332.6 195.217 335.12 194.267 337.48 193.517C340.597 192.56 343.774 191.812 346.99 191.277C347.14 190.387 345.99 188.357 345.54 187.567C344.72 186.187 344.54 186.067 343.16 186.747C340.65 188.007 338.51 190.197 335.93 191.467Z" fill="#FF7D7D"/>
</g>
<path d="M350.61 189.947C350.61 189.947 315.76 200.747 309.2 192.217L310.09 148.707H315.38L321.6 179.357L350.16 174.127C350.16 174.127 353.82 185.467 350.61 189.947Z" stroke="#263238" stroke-linecap="round" stroke-linejoin="round"/>
<path d="M347.19 191.087L353.31 228.767C353.15 253.187 364.8 249.517 372.89 249.447C382.24 249.367 396.43 240.097 389.47 225.667L392.15 173.437L375.86 172.197C370.49 171.777 348.49 172.467 346.74 175.277C342.2 182.567 347.19 191.087 347.19 191.087Z" fill="white"/>
<mask id="mask1_16_183" style="mask-type:luminance" maskUnits="userSpaceOnUse" x="344" y="172" width="49" height="78">
<path d="M347.19 191.087L353.31 228.767C353.15 253.187 364.8 249.517 372.89 249.447C382.24 249.367 396.43 240.097 389.47 225.667L392.15 173.437L375.86 172.197C370.49 171.777 348.49 172.467 346.74 175.277C342.2 182.567 347.19 191.087 347.19 191.087Z" fill="white"/>
</mask>
<g mask="url(#mask1_16_183)">
<path d="M348.15 194.197C351.785 207.947 360.502 219.805 372.54 227.377C371.237 227.171 369.964 226.805 368.75 226.287C367.529 225.761 366.161 225.687 364.89 226.077C364.583 226.188 364.301 226.358 364.06 226.578C363.819 226.798 363.624 227.063 363.485 227.358C363.347 227.654 363.268 227.973 363.254 228.299C363.239 228.625 363.289 228.951 363.4 229.257C363.692 229.726 364.089 230.12 364.56 230.407C366.546 231.803 368.717 232.914 371.01 233.707C368.999 233.501 366.967 233.657 365.01 234.167C364.65 235.907 366.59 237.167 368.12 238.017C370.561 239.457 372.652 241.421 374.24 243.767C368.871 243.779 363.506 244.086 358.17 244.687C357.467 244.845 356.731 244.775 356.07 244.487C355.378 243.972 354.912 243.209 354.77 242.357C353.581 238.197 352.89 233.91 352.71 229.587C352.61 227.157 352.71 224.707 352.39 222.297C352.133 220.397 351.779 218.512 351.33 216.647C349.777 209.434 348.587 202.164 347.76 194.837C347.39 194.867 348.15 194.197 348.15 194.197Z" fill="#FF7D7D"/>
<path d="M389.46 191.197C388.111 190.764 386.853 190.086 385.75 189.197C386.06 190.697 388.3 193.287 389.61 194.087C389.88 194.257 390.27 194.397 390.51 194.167C390.75 193.937 390.91 193.347 391.15 193.167L389.46 191.197Z" fill="#FF7D7D"/>
</g>
<path d="M347.19 191.087L353.31 228.767C353.15 253.187 364.8 249.517 372.89 249.447C382.24 249.367 396.43 240.097 389.47 225.667L392.15 173.437L375.86 172.197C370.49 171.777 348.49 172.467 346.74 175.277C342.2 182.567 347.19 191.087 347.19 191.087Z" stroke="#263238" stroke-linecap="round" stroke-linejoin="round"/>
<path d="M359.1 171.427C357.347 174.637 356.504 178.264 356.66 181.917C356.658 182.236 356.719 182.552 356.84 182.847C357.29 183.737 358.52 183.737 359.51 183.847C363.36 184.337 365.75 188.397 369.38 189.757C369.507 189.836 369.649 189.888 369.797 189.91C369.945 189.933 370.096 189.925 370.24 189.887C370.385 189.85 370.521 189.784 370.639 189.693C370.758 189.602 370.857 189.488 370.93 189.357C372.51 187.357 373.07 184.547 375.23 183.257C376.17 182.697 377.36 182.467 378.01 181.587C378.75 180.587 378.42 179.147 378.06 177.927C377.47 175.927 376.81 173.847 375.28 172.457C373.65 171.185 371.648 170.482 369.58 170.457C366.554 170.21 363.508 170.494 360.58 171.297C360.62 171.677 359.1 171.427 359.1 171.427Z" fill="#FF7D7D" stroke="#263238" stroke-linecap="round" stroke-linejoin="round"/>
<path d="M407.5 196.997C405.056 193.439 403.255 189.479 402.18 185.297C401.789 183.203 401.179 181.155 400.36 179.187C399.588 177.668 398.474 176.348 397.104 175.333C395.735 174.318 394.149 173.634 392.47 173.337C391.754 173.18 391.009 173.214 390.31 173.437C388.86 173.987 388.22 175.657 387.93 177.177C387.303 180.442 387.488 183.811 388.47 186.987C389.14 189.147 397.19 204.807 402.47 210.877C402.01 207.817 405.53 197.587 407.5 196.997Z" fill="white"/>
<mask id="mask2_16_183" style="mask-type:luminance" maskUnits="userSpaceOnUse" x="387" y="173" width="21" height="38">
<path d="M407.5 196.997C405.056 193.439 403.255 189.479 402.18 185.297C401.789 183.203 401.179 181.155 400.36 179.187C399.588 177.668 398.474 176.348 397.104 175.333C395.735 174.318 394.149 173.634 392.47 173.337C391.754 173.18 391.009 173.214 390.31 173.437C388.86 173.987 388.22 175.657 387.93 177.177C387.303 180.442 387.488 183.811 388.47 186.987C389.14 189.147 397.19 204.807 402.47 210.877C402.01 207.817 405.53 197.587 407.5 196.997Z" fill="white"/>
</mask>
<g mask="url(#mask2_16_183)">
<path d="M391.71 193.927L396.65 203.237C397.36 204.567 398.16 205.987 399.54 206.567C398.672 203.491 398.178 200.322 398.07 197.127C398.124 195.522 397.939 193.918 397.52 192.367C397.32 192.537 397.11 191.817 397.11 191.817C396.89 192.227 396.31 192.237 395.86 192.147C392.63 191.467 390.41 188.587 388.49 185.907C388.24 186.805 388.201 187.748 388.374 188.664C388.548 189.58 388.929 190.443 389.49 191.187C389.49 191.187 391.55 193.617 391.71 193.927Z" fill="#FF7D7D"/>
</g>
<path d="M407.5 196.997C405.056 193.439 403.255 189.479 402.18 185.297C401.789 183.203 401.179 181.155 400.36 179.187C399.588 177.668 398.474 176.348 397.104 175.333C395.735 174.318 394.149 173.634 392.47 173.337C391.754 173.18 391.009 173.214 390.31 173.437C388.86 173.987 388.22 175.657 387.93 177.177C387.303 180.442 387.488 183.811 388.47 186.987C389.14 189.147 397.19 204.807 402.47 210.877C402.01 207.817 405.53 197.587 407.5 196.997Z" stroke="#263238" stroke-linecap="round" stroke-linejoin="round"/>
<path d="M400.56 208.197C395.18 197.887 397.78 174.127 397.62 170.307L404.72 169.927C405.43 169.927 408.72 190.187 410.96 198.597C412.96 206.257 411.04 214.007 407.5 214.007C404.56 214.007 401.69 210.367 400.56 208.197Z" fill="white" stroke="#263238" stroke-linecap="round" stroke-linejoin="round"/>
<path d="M336.45 181.427C341.45 174.127 351.26 173.547 351.26 173.547" stroke="#263238" stroke-linecap="round" stroke-linejoin="round"/>
<path d="M317.16 185.517C318.672 184.128 319.858 182.42 320.63 180.517Z" fill="white"/>
<path d="M317.16 185.517C318.672 184.128 319.858 182.42 320.63 180.517" stroke="#263238" stroke-linecap="round" stroke-linejoin="round"/>
<path d="M354.31 220.017C357.16 224.687 375.62 229.677 382.98 228.607" stroke="#263238" stroke-linecap="round" stroke-linejoin="round"/>
<path d="M359.53 233.197C364.848 234.112 370.298 233.904 375.53 232.587" stroke="#263238" stroke-linecap="round" stroke-linejoin="round"/>
<path d="M384.02 187.887L387.54 192.657C388.02 193.307 388.69 194.037 389.48 193.857" stroke="#263238" stroke-linecap="round" stroke-linejoin="round"/>
<path d="M410.18 368.827C409.87 370.097 409.77 371.607 410.68 372.557C411.59 373.507 412.91 373.487 414.14 373.467L418.37 373.387C420.001 373.469 421.632 373.213 423.16 372.637C423.925 372.34 424.579 371.815 425.035 371.134C425.491 370.453 425.727 369.647 425.71 368.827C425.606 368.193 425.404 367.579 425.11 367.007C424.73 366.187 424.35 365.357 423.98 364.537C419.31 354.247 412.18 360.507 410.18 368.827Z" fill="white" stroke="#263238" stroke-linecap="round" stroke-linejoin="round"/>
<path d="M404.22 356.697C404.368 361.42 403.972 366.145 403.04 370.777C402.82 371.827 403.04 373.417 404.04 373.317C404.432 373.257 404.789 373.054 405.04 372.747C408.716 369.122 411.345 364.572 412.65 359.577C412.847 359.059 412.938 358.506 412.919 357.951C412.9 357.397 412.771 356.852 412.54 356.347C412.266 355.943 411.928 355.585 411.54 355.287C408.15 352.577 403.91 349.887 404.22 356.697Z" fill="white" stroke="#263238" stroke-linecap="round" stroke-linejoin="round"/>
<path d="M392.61 235.827C392.61 235.827 397.88 244.987 399.01 247.117C400.14 249.247 424.01 280.617 428.59 303.457C429.45 307.797 411.84 356.337 411.84 356.337L407.84 354.077C407.84 354.077 410.62 309.807 409.94 306.127C409.26 302.447 391.69 275.287 391.69 275.287C391.69 275.287 381.88 268.077 377.84 259.697L392.61 235.827Z" fill="#263238"/>
<path d="M393.18 258.777C393.18 258.777 390.18 265.457 390.18 266.417C390.18 267.377 406.68 319.517 411.53 331.577C414.597 339.344 417.3 347.291 419.64 355.417C419.64 355.417 421.52 357.887 420.1 360.417C418.68 362.947 413.03 364.607 411.87 362.347C410.71 360.087 399.28 348.347 394.46 336.667C389.64 324.987 382.86 305.467 379 298.197C373.944 288.908 369.456 279.32 365.56 269.487C360.71 257.077 355.75 243.697 355.75 243.697C357.765 243.879 359.789 243.936 361.81 243.867C366.571 243.705 371.284 242.87 375.81 241.387C386.35 237.847 390.91 231.067 390.91 231.067C390.91 231.067 393.52 238.137 394.2 239.507L393.18 258.777Z" fill="#263238"/>
<path d="M426.83 307.927C425.797 309.697 424.408 311.233 422.75 312.437" stroke="white" stroke-linecap="round" stroke-linejoin="round"/>
<path d="M428.12 305.017C427.97 305.505 427.789 305.982 427.58 306.447" stroke="white" stroke-linecap="round" stroke-linejoin="round"/>
<path d="M383.65 243.197C386.31 247.777 388.8 254.367 388.4 259.647C388.186 260.606 387.85 261.534 387.4 262.407" stroke="white" stroke-linecap="round" stroke-linejoin="round"/>
<path d="M367.55 248.287C367.84 250.837 368.23 255.077 367.67 257.577C367.197 260.134 365.73 262.4 363.59 263.877" stroke="white" stroke-linecap="round" stroke-linejoin="round"/>
<path d="M390.23 238.637C390.811 239.361 391.283 240.167 391.63 241.027C392.307 242.264 393.238 243.343 394.362 244.195C395.486 245.046 396.777 245.65 398.15 245.967" stroke="white" stroke-linecap="round" stroke-linejoin="round"/>
<path d="M381.74 248.857C385.27 256.577 387.97 264.317 393.45 277.437" stroke="white" stroke-linecap="round" stroke-linejoin="round"/>
<path d="M379.86 244.907C380.16 245.507 380.45 246.107 380.74 246.707" stroke="white" stroke-linecap="round" stroke-linejoin="round"/>
<path d="M409.24 303.967C410.858 307.085 412.916 309.955 415.35 312.487" stroke="white" stroke-linecap="round" stroke-linejoin="round"/>
<path d="M410.91 306.847C411.97 311.74 413.904 316.402 416.62 320.607" stroke="white" stroke-linecap="round" stroke-linejoin="round"/>
<path d="M386.05 307.097C378.26 290.477 369.95 273.987 359.74 248.857" stroke="white" stroke-linecap="round" stroke-linejoin="round"/>
<path d="M387.81 311.927C387.62 311.347 387.42 310.767 387.21 310.177" stroke="white" stroke-linecap="round" stroke-linejoin="round"/>
<path d="M414.74 363.027C412.74 360.417 398.16 340.027 394.54 330.787C392.13 324.627 390.31 320.277 388.54 314.137" stroke="white" stroke-linecap="round" stroke-linejoin="round"/>
<path d="M409.24 323.787L416.17 344.157" stroke="white" stroke-linecap="round" stroke-linejoin="round"/>
<path d="M404.57 169.937L402.47 170.107C399.809 170.58 397.076 170.454 394.47 169.737C392.8 169.327 388.93 168.127 388.47 168.047C387.32 167.802 386.159 167.615 384.99 167.487C381.46 167.277 383.25 165.957 384.72 166.017C386.66 166.107 387.31 166.067 388.8 166.177C388.62 166.077 388.07 165.967 388.06 165.537C388.06 164.487 389.44 164.537 389.44 164.537C389.44 164.537 387.93 163.897 388.14 163.107C388.35 162.317 389.36 162.107 390 162.167C390 162.167 389.15 161.757 389.19 161.317C389.37 159.617 392.86 159.497 392.86 159.497C392.016 159.12 391.226 158.633 390.51 158.047C390.249 157.766 390.066 157.421 389.98 157.047C389.961 156.869 389.991 156.689 390.065 156.526C390.14 156.363 390.257 156.223 390.404 156.121C390.551 156.019 390.723 155.958 390.902 155.945C391.081 155.932 391.26 155.968 391.42 156.047C392.323 156.649 393.194 157.296 394.03 157.987C395.11 158.757 396.36 159.247 397.5 159.937C398.611 160.888 399.508 162.064 400.13 163.387C400.31 163.667 404.57 169.937 404.57 169.937Z" fill="white" stroke="#263238" stroke-linecap="round" stroke-linejoin="round"/>
<path d="M310.09 148.707V143.197C310.077 140.432 310.482 137.681 311.29 135.037C311.75 133.577 312.29 132.307 312.78 132.117C313.69 131.787 314.09 135.477 314.09 135.477C313.406 132.519 312.968 129.508 312.78 126.477C312.78 123.267 317.1 136.597 317.1 136.597L315.38 148.707H310.09Z" fill="white" stroke="#263238" stroke-linecap="round" stroke-linejoin="round"/>
<path d="M315.31 139.747C315.833 139.344 316.223 138.794 316.43 138.167Z" fill="white"/>
<path d="M315.31 139.747C315.833 139.344 316.223 138.794 316.43 138.167" stroke="#263238" stroke-linecap="round" stroke-linejoin="round"/>
<path d="M357.19 160.197C359.058 163.342 360.091 166.911 360.19 170.567C360.37 176.647 367.41 185.157 369.42 185.567C371.43 185.977 373.29 175.967 373.2 172.937C373.11 169.907 371.99 161.537 371.99 161.537C371.99 161.537 362.36 154.257 357.19 160.197Z" fill="white" stroke="#263238" stroke-linecap="round" stroke-linejoin="round"/>
<path d="M360.02 168.247C360.02 168.247 369.25 180.837 372.87 168.037C376.49 155.237 362.72 171.537 360.02 168.247Z" fill="#263238"/>
<path d="M375.6 159.197C375.11 166.667 371.7 170.867 367.77 171.607C364.18 172.267 358.93 168.607 356.31 163.177C356.11 163.047 352.92 160.837 352.16 160.297C351.763 160.02 351.439 159.65 351.217 159.22C350.994 158.79 350.878 158.312 350.88 157.827C350.906 157.362 351.07 156.916 351.351 156.545C351.633 156.174 352.019 155.897 352.46 155.747H352.55C353 155.649 353.469 155.684 353.9 155.847C353.24 153.297 352.7 150.707 352.29 148.097C352.48 142.097 354.47 137.197 360.87 136.717C367.27 136.237 372.62 139.817 372.87 142.397C373.05 144.397 373.7 149.687 374.28 155.157C374.44 156.577 375.71 157.517 375.6 159.197Z" fill="white" stroke="#263238" stroke-linecap="round" stroke-linejoin="round"/>
<path d="M372.87 150.557C372.87 150.557 368.75 148.667 369.45 154.807C369.59 156.017 371.84 157.807 371.84 157.807C371.84 157.807 371.26 159.617 370.19 159.617" fill="white"/>
<path d="M372.87 150.557C372.87 150.557 368.75 148.667 369.45 154.807C369.59 156.017 371.84 157.807 371.84 157.807C371.84 157.807 371.26 159.617 370.19 159.617" stroke="#263238" stroke-linecap="round" stroke-linejoin="round"/>
<path d="M364.91 152.657C364.91 152.657 362.81 151.377 361.37 152.167C360.619 152.494 359.98 153.033 359.53 153.717" fill="white"/>
<path d="M364.91 152.657C364.91 152.657 362.81 151.377 361.37 152.167C360.619 152.494 359.98 153.033 359.53 153.717" stroke="#263238" stroke-linecap="round" stroke-linejoin="round"/>
<path d="M363.71 156.197C363.87 156.937 363.71 157.597 363.28 157.687C362.85 157.777 362.43 157.237 362.28 156.497C362.13 155.757 362.28 155.097 362.72 155.007C363.16 154.917 363.56 155.447 363.71 156.197Z" fill="#263238"/>
<path d="M371.83 154.037C371.99 154.777 371.83 155.437 371.4 155.527C370.97 155.617 370.55 155.077 370.4 154.347C370.25 153.617 370.4 152.937 370.83 152.857C371.26 152.777 371.68 153.307 371.83 154.037Z" fill="#263238"/>
<path d="M351.81 140.347C351.079 141.064 350.572 141.978 350.35 142.977C349.751 145.092 349.578 147.304 349.841 149.486C350.103 151.668 350.797 153.776 351.88 155.687C352.547 155.606 353.222 155.633 353.88 155.767C354.58 155.947 355.48 157.147 355.81 157.767C356.1 158.428 356.266 159.137 356.3 159.857C356.14 157.957 355.99 156.067 355.83 154.167C355.723 153.408 355.757 152.635 355.93 151.887C356.42 150.327 355.88 146.647 356.02 143.357C360.17 148.427 366.2 147.527 368.2 147.357C371.2 147.107 373.76 144.037 373.6 141.847C373.44 139.657 372.85 134.017 362.96 133.437C360.781 133.206 358.585 133.664 356.68 134.747C356.076 135.145 355.564 135.666 355.176 136.276C354.788 136.887 354.534 137.572 354.43 138.287C354.29 139.207 354.64 139.287 353.94 139.737C353.24 140.187 352.5 139.757 351.81 140.347Z" fill="#263238" stroke="#263238" stroke-linecap="round" stroke-linejoin="round"/>
<path d="M364.91 163.137C364.91 163.137 366.38 164.757 369.45 163.687Z" fill="white"/>
<path d="M364.91 163.137C364.91 163.137 366.38 164.757 369.45 163.687" stroke="#263238" stroke-linecap="round" stroke-linejoin="round"/>
</g>
<defs>
<filter id="filter0_d_16_183" x="0.5" y="0" width="439.05" height="381.974" filterUnits="userSpaceOnUse" color-interpolation-filters="sRGB">
<feFlood flood-opacity="0" result="BackgroundImageFix"/>
<feColorMatrix in="SourceAlpha" type="matrix" values="0 0 0 0 0 0 0 0 0 0 0 0 0 0 0 0 0 0 127 0" result="hardAlpha"/>
<feOffset dy="4"/>
<feGaussianBlur stdDeviation="2"/>
<feComposite in2="hardAlpha" operator="out"/>
<feColorMatrix type="matrix" values="0 0 0 0 0 0 0 0 0 0 0 0 0 0 0 0 0 0 0.25 0"/>
<feBlend mode="normal" in2="BackgroundImageFix" result="effect1_dropShadow_16_183"/>
<feBlend mode="normal" in="SourceGraphic" in2="effect1_dropShadow_16_183" result="shape"/>
</filter>
</defs>
</svg>
