<svg width="396" height="180" viewBox="0 0 396 180" fill="none" xmlns="http://www.w3.org/2000/svg">
<g id="logo" clip-path="url(#clip0_1_15)">
<path id="Ellipse 1" d="M156.5 89.5C156.5 129.771 123.192 162.5 82 162.5C40.8082 162.5 7.5 129.771 7.5 89.5C7.5 49.2294 40.8082 16.5 82 16.5C123.192 16.5 156.5 49.2294 156.5 89.5Z" stroke="#FF7D7D" stroke-width="5"/>
<g id="SvgjsG5469">
<g id="Group">
<path id="Vector" d="M56.8426 85.026C53.1966 80.1957 51.2702 74.4334 51.2702 68.362C51.2702 57.2159 57.9008 47.2041 68.1637 42.8546C69.5174 42.2806 70.1493 40.719 69.5753 39.3654C69.0014 38.0118 67.4398 37.3798 66.0861 37.9538C53.8524 43.1398 45.9466 55.0758 45.9466 68.3631C45.9466 75.6006 48.2447 82.471 52.5942 88.2333C52.6704 88.3344 52.7522 88.4276 52.8386 88.514C53.7626 89.438 55.2492 89.563 56.3221 88.7538C57.495 87.8685 57.7291 86.1989 56.8426 85.026Z" fill="#FF7D7D"/>
<path id="Vector_2" d="M88.7351 51.5377C94.7065 55.0156 98.4151 61.462 98.4151 68.362C98.4151 72.2603 97.2672 76.0211 95.0941 79.2364C94.369 80.3104 94.5315 81.7232 95.4146 82.6063C95.5328 82.7245 95.6646 82.8336 95.809 82.9313C97.0274 83.7542 98.681 83.4337 99.5039 82.2153C102.274 78.1169 103.736 73.3253 103.737 68.3608C103.737 59.5731 99.0152 51.3627 91.4128 46.9359C90.1422 46.196 88.5135 46.6268 87.7736 47.8963C87.0349 49.1692 87.4656 50.799 88.7351 51.5377Z" fill="#FF7D7D"/>
<path id="Vector_3" d="M64.0688 80.8787C61.1285 77.3839 59.5078 72.9388 59.509 68.3631C59.509 60.546 64.1563 53.5165 71.3495 50.4546C72.702 49.8784 73.3316 48.3157 72.7554 46.9632C72.1803 45.6107 70.6164 44.981 69.2639 45.5573C60.1034 49.4567 54.1854 58.4082 54.1854 68.3631C54.1854 74.1913 56.2494 79.8536 59.9954 84.3065C60.0454 84.3668 60.0977 84.4236 60.1523 84.477C61.1183 85.4431 62.6811 85.5249 63.746 84.6293C64.87 83.6826 65.0144 82.0039 64.0688 80.8787Z" fill="#FF7D7D"/>
<path id="Vector_4" d="M113.448 117.011C113.491 116.821 113.515 116.624 113.515 116.422V115.151C113.515 115.143 113.515 115.136 113.515 115.128C113.515 115.126 113.515 115.125 113.515 115.123V95.2594C113.515 91.4827 110.442 88.4094 106.665 88.4094H105.93C105.278 88.4094 104.649 88.497 104.056 88.6572C103.932 88.2833 103.777 87.9207 103.591 87.5741C104.684 87.8946 105.904 87.4843 106.563 86.4819C110.104 81.0981 111.976 74.8323 111.976 68.362C111.976 55.8305 105.023 44.5332 93.8314 38.8789C92.5198 38.2163 90.9184 38.7426 90.2558 40.0541C89.5932 41.3657 90.1194 42.9682 91.431 43.6297C100.82 48.3736 106.653 57.8501 106.653 68.362C106.653 73.7901 105.083 79.0443 102.116 83.5575C101.75 84.1133 101.621 84.7555 101.702 85.3669C100.515 84.46 99.072 83.9667 97.5524 83.9667H96.8182C95.2805 83.9667 93.8212 84.4713 92.6267 85.3999C91.4685 84.502 90.016 83.9667 88.4408 83.9667H87.7066C87.186 83.9667 86.6746 84.0258 86.1791 84.1383V82.3199C88.268 81.2401 90.1217 79.699 91.5583 77.7782C92.0504 77.1202 92.4937 76.4201 92.8756 75.6961C94.061 73.4503 94.6883 70.9147 94.6883 68.3608C94.6883 64.1602 93.0529 60.2107 90.0819 57.2398C89.1022 56.2601 87.9975 55.4134 86.7985 54.7235C84.4242 53.3562 81.7136 52.6334 78.9609 52.6334C76.523 52.6334 74.184 53.1766 72.0109 54.2484C66.5964 56.9193 63.2334 62.3269 63.2334 68.3597C63.2334 71.6091 64.2165 74.7289 66.077 77.3816C66.601 78.1283 67.1943 78.8352 67.8398 79.4808C69.0048 80.6457 70.3209 81.605 71.7427 82.3415V90.4132C69.6015 88.7766 67.0692 87.8241 64.7393 87.8241H62.0775V112.484V113.412V115.126C62.0775 122.217 64.9621 128.646 69.6185 133.303C74.2761 137.96 80.7055 140.844 87.7952 140.844C94.6645 140.844 101.123 138.168 105.981 133.311C110.394 128.903 113.005 123.172 113.448 117.011ZM71.6052 75.72C71.1767 75.2915 70.7835 74.8232 70.4368 74.3288C69.2082 72.5763 68.5581 70.5135 68.5581 68.3631C68.5581 64.3704 70.7835 60.7926 74.367 59.0253C75.8013 58.3172 77.3481 57.9592 78.9632 57.9592C80.785 57.9592 82.5774 58.4366 84.1446 59.339C84.938 59.7959 85.6699 60.3573 86.32 61.0063C88.2851 62.9714 89.3671 65.5843 89.3671 68.3631C89.3671 70.0782 88.9647 71.7091 88.1703 73.2127C87.918 73.6912 87.6247 74.1549 87.2986 74.5902C86.9565 75.0471 86.5814 75.4665 86.1802 75.8541V67.8267C86.1802 65.9968 85.4676 64.2772 84.1742 62.9827C82.8808 61.6893 81.1601 60.9767 79.3303 60.9767H78.5949C74.8182 60.9767 71.745 64.0488 71.745 67.8267V75.8529C71.6972 75.8086 71.6506 75.7654 71.6052 75.72ZM87.7975 135.524C82.1739 135.524 77.0754 133.237 73.3827 129.543C69.6901 125.851 67.4022 120.751 67.4022 115.128V112.486V93.9205C68.0012 94.2422 68.6229 94.6752 69.2196 95.2435C70.3709 96.3448 71.745 98.2564 71.745 101.15V110.81C71.745 111.545 72.0427 112.21 72.5246 112.692C73.0065 113.174 73.6714 113.471 74.4068 113.471C75.8763 113.471 77.0685 112.279 77.0685 110.81V67.8255C77.0685 66.9834 77.7539 66.298 78.5949 66.2992H79.3303C79.7383 66.2992 80.1213 66.4583 80.41 66.747C80.6987 67.0356 80.8578 67.4187 80.8566 67.8267V101.151C80.8566 102.621 82.0489 103.813 83.5184 103.813C84.988 103.813 86.1802 102.621 86.1802 101.151V90.8178C86.1802 90.4098 86.3393 90.0268 86.6269 89.7381C86.9155 89.4494 87.2986 89.2914 87.7077 89.2914H88.4419C89.2841 89.2914 89.9694 89.9767 89.9694 90.8189V92.9693V101.152C89.9694 101.888 90.2672 102.553 90.7491 103.034C91.231 103.516 91.8959 103.814 92.6312 103.814C94.1008 103.814 95.293 102.623 95.293 101.152V94.5081C95.293 94.5059 95.293 94.5047 95.293 94.5025V90.8178C95.293 90.4109 95.4521 90.0268 95.7396 89.7381C96.0283 89.4494 96.4113 89.2903 96.8205 89.2914H97.5547C97.9627 89.2914 98.3457 89.4505 98.6344 89.7392C98.9231 90.0279 99.0811 90.4109 99.0811 90.8189V95.1423C99.0811 95.1446 99.0811 95.1469 99.0811 95.1491V98.1246C99.0811 98.1257 99.0811 98.1257 99.0811 98.1269V101.152C99.0811 102.623 100.272 103.814 101.743 103.814C103.212 103.814 104.405 102.622 104.405 101.152V95.148C104.406 94.3422 105.062 93.7353 105.931 93.7353H106.666C107.074 93.7353 107.457 93.8944 107.746 94.1831C108.035 94.4718 108.193 94.8548 108.193 95.2628V115.14C108.19 120.585 106.07 125.704 102.219 129.553C98.3662 133.403 93.2449 135.524 87.7975 135.524Z" fill="#FF7D7D"/>
</g>
</g>
<g id="SvgjsG5470">
<path id="Vector_5" d="M177.84 70.6398H190.446C187.825 86.7397 188.574 89.8598 193.067 89.8598C199.182 89.8598 200.056 84.7428 202.427 71.139C205.922 51.1702 180.336 56.5368 184.954 29.9533C187.7 14.3526 190.321 0 209.042 0C222.895 0 225.266 7.86273 222.77 26.7083H210.29C212.162 13.1046 211.288 9.98442 207.294 9.98442C201.179 9.98442 199.931 16.7239 197.56 29.9533C194.19 49.2981 220.274 42.4338 215.157 71.139C212.162 88.6118 209.666 102.34 190.82 102.34C176.343 102.34 174.471 93.7288 177.84 70.6398ZM221.46 101.092L239.057 1.24805H251.538L233.94 101.092H221.46ZM247.981 101.092L265.578 1.24805H278.059L270.571 43.6819H283.051L290.54 1.24805H303.02L285.423 101.092H272.942L281.304 53.6663H268.823L260.461 101.092H247.981ZM306.951 101.092L322.552 12.4805H310.072L312.068 1.24805H349.51L347.513 12.4805H335.033L319.432 101.092H306.951ZM340.961 101.092L358.558 1.24805H371.039L364.05 40.8113L383.519 1.24805H396L372.661 48.6741L378.402 101.092H365.922L361.179 57.4104L353.441 101.092H340.961Z" fill="white"/>
</g>
<g id="SvgjsG5471">
<path id="Vector_6" d="M176.402 178.527L188.198 111.601H200.914C209.531 111.601 211.455 116.955 209.698 126.576L209.447 128.332C208.443 134.105 206.268 138.622 204.177 141.885L204.093 142.22C206.77 144.813 207.774 149.916 206.686 158.784L206.184 161.461C203.424 173.257 199.408 178.527 190.791 178.527H176.402ZM191.544 140.044H195.895C198.237 140.044 200.412 137.284 202.002 128.332L202.253 126.576C203.424 120.134 202.253 118.293 199.743 118.293H195.393L191.544 140.044ZM186.274 170.161H192.297C194.807 170.161 196.898 168.07 198.404 161.461L198.906 158.784C200.328 148.829 198.906 146.737 196.396 146.737H190.373L186.274 170.161ZM210.075 178.527L221.87 111.601H230.236L218.44 178.527H210.075ZM227.852 178.527L239.648 111.601H248.013L237.723 170.161H248.599L247.093 178.527H227.852ZM253.158 178.527L259.349 143.391C263.448 120.05 265.121 110.848 277.67 110.848C290.219 110.848 288.546 120.05 284.446 143.391L278.256 178.527H269.89L273.32 159.286H264.954L261.524 178.527H253.158ZM266.125 152.593H274.491L276.081 143.391C279.929 121.64 280.598 117.54 276.415 117.54C272.232 117.54 271.563 121.64 267.715 143.391L266.125 152.593ZM287.667 178.527L299.463 111.601H306.992L308.414 153.43H309.251L325.397 111.601H332.926L321.131 178.527H312.765L318.621 145.064L306.825 178.527H301.806L301.889 145.064L296.033 178.527H287.667ZM332.466 158.115H340.916C339.159 168.906 339.661 170.998 342.672 170.998C346.772 170.998 347.357 167.568 348.947 158.449C351.289 145.064 334.139 148.661 337.235 130.842C339.075 120.385 340.832 110.764 353.381 110.764C362.667 110.764 364.256 116.035 362.583 128.667H354.217C355.472 119.548 354.887 117.457 352.209 117.457C348.11 117.457 347.274 121.974 345.684 130.842C343.425 143.809 360.91 139.208 357.48 158.449C355.472 170.161 353.799 179.364 341.167 179.364C331.462 179.364 330.207 173.591 332.466 158.115ZM361.705 178.527L367.895 143.391C371.995 120.05 373.668 110.848 386.216 110.848C398.765 110.848 397.092 120.05 392.993 143.391L386.802 178.527H378.436L381.866 159.286H373.5L370.07 178.527H361.705ZM374.672 152.593H383.037L384.627 143.391C388.475 121.64 389.144 117.54 384.962 117.54C380.779 117.54 380.109 121.64 376.261 143.391L374.672 152.593Z" fill="#FF7D7D"/>
</g>
</g>
<defs>
<clipPath id="clip0_1_15">
<rect width="396" height="179.145" fill="white"/>
</clipPath>
</defs>
</svg>
