<svg width="396" height="180" viewBox="0 0 396 180" fill="none" xmlns="http://www.w3.org/2000/svg">
<g id="logo-ar" clip-path="url(#clip0_6_2)">
<g id="Group 1">
<path id="Ellipse 1" d="M156.5 89.5C156.5 129.771 123.192 162.5 82 162.5C40.8082 162.5 7.5 129.771 7.5 89.5C7.5 49.2294 40.8082 16.5 82 16.5C123.192 16.5 156.5 49.2294 156.5 89.5Z" stroke="#FF7D7D" stroke-width="5"/>
<g id="SvgjsG5469">
<g id="Group">
<path id="Vector" d="M56.8426 85.026C53.1965 80.1957 51.2701 74.4334 51.2701 68.362C51.2701 57.2159 57.9007 47.2041 68.1637 42.8546C69.5173 42.2806 70.1492 40.719 69.5752 39.3654C69.0013 38.0118 67.4397 37.3798 66.0861 37.9538C53.8523 43.1398 45.9465 55.0758 45.9465 68.3631C45.9465 75.6006 48.2446 82.471 52.5942 88.2333C52.6703 88.3344 52.7521 88.4276 52.8385 88.514C53.7625 89.438 55.2491 89.563 56.322 88.7538C57.4949 87.8685 57.7291 86.1989 56.8426 85.026Z" fill="#FF7D7D"/>
<path id="Vector_2" d="M88.735 51.5377C94.7064 55.0156 98.415 61.462 98.415 68.362C98.415 72.2603 97.2671 76.0211 95.094 79.2364C94.3689 80.3104 94.5314 81.7232 95.4145 82.6063C95.5327 82.7245 95.6645 82.8336 95.8089 82.9313C97.0273 83.7542 98.6809 83.4337 99.5038 82.2153C102.274 78.1169 103.736 73.3253 103.737 68.3608C103.737 59.5731 99.0151 51.3627 91.4127 46.9359C90.1421 46.196 88.5134 46.6268 87.7735 47.8963C87.0348 49.1692 87.4655 50.799 88.735 51.5377Z" fill="#FF7D7D"/>
<path id="Vector_3" d="M64.0687 80.8787C61.1284 77.3839 59.5077 72.9388 59.5089 68.3631C59.5089 60.546 64.1562 53.5165 71.3494 50.4546C72.7018 49.8784 73.3315 48.3157 72.7553 46.9632C72.1802 45.6107 70.6163 44.981 69.2638 45.5573C60.1033 49.4567 54.1853 58.4082 54.1853 68.3631C54.1853 74.1913 56.2493 79.8536 59.9953 84.3065C60.0453 84.3668 60.0976 84.4236 60.1521 84.477C61.1182 85.4431 62.681 85.5249 63.7459 84.6293C64.8699 83.6826 65.0143 82.0039 64.0687 80.8787Z" fill="#FF7D7D"/>
<path id="Vector_4" d="M113.448 117.011C113.491 116.821 113.515 116.624 113.515 116.422V115.151C113.515 115.143 113.515 115.136 113.515 115.128C113.515 115.126 113.515 115.125 113.515 115.123V95.2594C113.515 91.4827 110.442 88.4095 106.665 88.4095H105.93C105.277 88.4095 104.649 88.497 104.056 88.6572C103.932 88.2833 103.777 87.9207 103.591 87.5741C104.684 87.8946 105.904 87.4843 106.563 86.4819C110.104 81.0981 111.976 74.8323 111.976 68.362C111.976 55.8305 105.023 44.5332 93.8312 38.8789C92.5197 38.2163 90.9183 38.7426 90.2557 40.0541C89.5931 41.3657 90.1193 42.9682 91.4309 43.6297C100.82 48.3736 106.653 57.8501 106.653 68.362C106.653 73.7901 105.083 79.0443 102.115 83.5575C101.75 84.1133 101.621 84.7555 101.702 85.3669C100.515 84.46 99.0718 83.9667 97.5523 83.9667H96.8181C95.2803 83.9667 93.821 84.4713 92.6265 85.3999C91.4684 84.502 90.0159 83.9667 88.4406 83.9667H87.7064C87.1859 83.9667 86.6744 84.0258 86.1789 84.1383V82.3199C88.2679 81.2401 90.1216 79.699 91.5582 77.7782C92.0503 77.1202 92.4935 76.4201 92.8754 75.6961C94.0608 73.4503 94.6882 70.9147 94.6882 68.3608C94.6882 64.1602 93.0527 60.2107 90.0818 57.2398C89.1021 56.2601 87.9974 55.4134 86.7983 54.7235C84.4241 53.3562 81.7134 52.6334 78.9607 52.6334C76.5228 52.6334 74.1838 53.1766 72.0108 54.2484C66.5963 56.9193 63.2333 62.3269 63.2333 68.3597C63.2333 71.6091 64.2164 74.7289 66.0769 77.3816C66.6008 78.1283 67.1941 78.8352 67.8397 79.4808C69.0046 80.6457 70.3207 81.605 71.7425 82.3414V90.4132C69.6013 88.7766 67.0691 87.8241 64.7392 87.8241H62.0774V112.484V113.412V115.126C62.0774 122.217 64.9619 128.646 69.6184 133.303C74.2759 137.96 80.7053 140.844 87.7951 140.844C94.6643 140.844 101.123 138.168 105.981 133.311C110.394 128.903 113.005 123.172 113.448 117.011ZM71.605 75.72C71.1765 75.2915 70.7833 74.8232 70.4367 74.3288C69.2081 72.5763 68.558 70.5135 68.558 68.3631C68.558 64.3704 70.7833 60.7926 74.3668 59.0253C75.8011 58.3172 77.348 57.9592 78.963 57.9592C80.7849 57.9592 82.5772 58.4366 84.1445 59.339C84.9378 59.7959 85.6697 60.3573 86.3198 61.0063C88.2849 62.9714 89.3669 65.5843 89.3669 68.3631C89.3669 70.0782 88.9646 71.7091 88.1701 73.2127C87.9178 73.6912 87.6246 74.1549 87.2984 74.5902C86.9563 75.0471 86.5812 75.4665 86.18 75.8541V67.8267C86.18 65.9968 85.4674 64.2773 84.174 62.9827C82.8807 61.6893 81.1599 60.9767 79.3301 60.9767H78.5948C74.818 60.9767 71.7448 64.0488 71.7448 67.8267V75.8529C71.6971 75.8086 71.6505 75.7654 71.605 75.72ZM87.7973 135.524C82.1737 135.524 77.0752 133.237 73.3826 129.543C69.69 125.851 67.4021 120.751 67.4021 115.128V112.486V93.9205C68.0011 94.2422 68.6227 94.6752 69.2194 95.2435C70.3707 96.3448 71.7448 98.2565 71.7448 101.15V110.81C71.7448 111.545 72.0426 112.21 72.5245 112.692C73.0064 113.174 73.6713 113.471 74.4066 113.471C75.8761 113.471 77.0684 112.279 77.0684 110.81V67.8255C77.0684 66.9834 77.7537 66.298 78.5948 66.2992H79.3301C79.7381 66.2992 80.1211 66.4583 80.4098 66.747C80.6985 67.0356 80.8576 67.4187 80.8565 67.8267V101.151C80.8565 102.621 82.0487 103.813 83.5183 103.813C84.9878 103.813 86.18 102.621 86.18 101.151V90.8178C86.18 90.4098 86.3392 90.0268 86.6267 89.7381C86.9154 89.4494 87.2984 89.2914 87.7076 89.2914H88.4418C89.2839 89.2914 89.9693 89.9767 89.9693 90.8189V92.9693V101.152C89.9693 101.888 90.267 102.553 90.7489 103.034C91.2308 103.516 91.8957 103.814 92.6311 103.814C94.1006 103.814 95.2928 102.623 95.2928 101.152V94.5081C95.2928 94.5059 95.2928 94.5047 95.2928 94.5025V90.8178C95.2928 90.4109 95.452 90.0268 95.7395 89.7381C96.0282 89.4494 96.4112 89.2903 96.8204 89.2914H97.5546C97.9626 89.2914 98.3456 89.4505 98.6343 89.7392C98.923 90.0279 99.0809 90.4109 99.0809 90.8189V95.1423C99.0809 95.1446 99.0809 95.1469 99.0809 95.1491V98.1246C99.0809 98.1257 99.0809 98.1257 99.0809 98.1269V101.152C99.0809 102.623 100.272 103.814 101.743 103.814C103.212 103.814 104.404 102.622 104.404 101.152V95.148C104.406 94.3422 105.061 93.7353 105.931 93.7353H106.666C107.074 93.7353 107.457 93.8944 107.746 94.1831C108.035 94.4718 108.193 94.8548 108.193 95.2628V115.14C108.19 120.585 106.07 125.704 102.219 129.553C98.3661 133.403 93.2448 135.524 87.7973 135.524Z" fill="#FF7D7D"/>
</g>
</g>
</g>
<g id="SvgjsG5470">
<path id="&#216;&#168;&#217;&#144;&#217;&#132;&#217;&#142;&#217;&#133;&#216;&#179;&#216;&#169;" d="M236.92 158.35C233.607 158.35 230.737 157.93 228.31 157.09C225.93 156.203 224.087 154.803 222.78 152.89C221.473 150.93 220.727 148.317 220.54 145.05L219.28 116.84H229.15L230.34 141.62C230.433 143.533 230.737 145.003 231.25 146.03C231.81 147.01 232.603 147.687 233.63 148.06C234.657 148.387 235.987 148.55 237.62 148.55C239.393 148.55 240.653 149.017 241.4 149.95C242.147 150.837 242.52 151.957 242.52 153.31C242.52 154.757 242.03 155.97 241.05 156.95C240.117 157.883 238.74 158.35 236.92 158.35ZM224.11 151.84C220.983 152.54 217.973 152.867 215.08 152.82C212.187 152.727 209.597 152.213 207.31 151.28C205.023 150.3 203.203 148.9 201.85 147.08C200.543 145.26 199.89 142.95 199.89 140.15C199.89 137.677 200.427 135.437 201.5 133.43C202.62 131.377 204.16 129.58 206.12 128.04C208.127 126.5 210.46 125.193 213.12 124.12C215.78 123.047 218.673 122.23 221.8 121.67L222.78 131.61C220.773 131.703 218.953 131.983 217.32 132.45C215.733 132.87 214.357 133.43 213.19 134.13C212.07 134.83 211.207 135.623 210.6 136.51C209.993 137.35 209.69 138.26 209.69 139.24C209.69 140.033 209.97 140.687 210.53 141.2C211.09 141.713 211.837 142.133 212.77 142.46C213.703 142.74 214.777 142.903 215.99 142.95C217.203 142.997 218.44 142.927 219.7 142.74C221.007 142.553 222.29 142.25 223.55 141.83L224.11 151.84ZM224.32 109.63C222.967 109.63 221.8 109.163 220.82 108.23C219.887 107.25 219.42 106.107 219.42 104.8C219.42 103.447 219.887 102.28 220.82 101.3C221.8 100.32 222.967 99.83 224.32 99.83C225.627 99.83 226.747 100.32 227.68 101.3C228.613 102.28 229.08 103.447 229.08 104.8C229.08 106.107 228.613 107.25 227.68 108.23C226.747 109.163 225.627 109.63 224.32 109.63ZM212.21 109.56C210.857 109.56 209.69 109.093 208.71 108.16C207.777 107.18 207.31 106.037 207.31 104.73C207.31 103.377 207.777 102.21 208.71 101.23C209.69 100.25 210.857 99.76 212.21 99.76C213.517 99.76 214.637 100.25 215.57 101.23C216.503 102.21 216.97 103.377 216.97 104.73C216.97 106.037 216.503 107.18 215.57 108.16C214.637 109.093 213.517 109.56 212.21 109.56ZM236.896 158.35L237.596 148.55C239.136 148.55 240.396 148.433 241.376 148.2C242.356 147.92 243.15 147.337 243.756 146.45C244.41 145.517 244.97 144.14 245.436 142.32C245.95 140.453 246.51 137.933 247.116 134.76L256.216 136.44C256.03 137.467 255.773 138.75 255.446 140.29C255.166 141.83 255.026 143.16 255.026 144.28C255.026 145.167 255.19 145.937 255.516 146.59C255.89 147.197 256.496 147.687 257.336 148.06C258.223 148.387 259.436 148.55 260.976 148.55C262.19 148.55 263.216 148.433 264.056 148.2C264.943 147.92 265.69 147.337 266.296 146.45C266.95 145.517 267.51 144.093 267.976 142.18C268.49 140.22 268.98 137.583 269.446 134.27L278.686 135.74C278.5 136.813 278.313 137.957 278.126 139.17C277.94 140.383 277.776 141.503 277.636 142.53C277.496 143.557 277.426 144.397 277.426 145.05C277.426 145.657 277.59 146.24 277.916 146.8C278.29 147.313 278.943 147.733 279.876 148.06C280.856 148.387 282.21 148.55 283.936 148.55C286.036 148.55 287.576 148.107 288.556 147.22C289.583 146.287 290.096 144.887 290.096 143.02C290.096 141.947 290.073 140.803 290.026 139.59C289.98 138.33 289.886 136.93 289.746 135.39C289.653 133.803 289.466 132.007 289.186 130L298.216 129.3C298.543 133.313 298.916 136.58 299.336 139.1C299.756 141.62 300.316 143.58 301.016 144.98C301.763 146.333 302.743 147.267 303.956 147.78C305.216 148.293 306.85 148.55 308.856 148.55C310.63 148.55 311.89 149.017 312.636 149.95C313.43 150.837 313.826 151.957 313.826 153.31C313.826 154.757 313.336 155.97 312.356 156.95C311.423 157.883 310.023 158.35 308.156 158.35C306.896 158.35 305.59 158.233 304.236 158C302.883 157.813 301.576 157.417 300.316 156.81C299.056 156.157 297.936 155.223 296.956 154.01C295.976 152.797 295.206 151.187 294.646 149.18L295.906 149.6C295.253 151.933 294.366 153.73 293.246 154.99C292.126 156.25 290.75 157.137 289.116 157.65C287.483 158.117 285.523 158.35 283.236 158.35C281.136 158.35 279.27 158.07 277.636 157.51C276.003 156.95 274.696 156.04 273.716 154.78C272.783 153.473 272.293 151.723 272.246 149.53H274.626C273.693 152.143 272.62 154.08 271.406 155.34C270.193 156.6 268.723 157.417 266.996 157.79C265.27 158.163 263.1 158.35 260.486 158.35C258.9 158.35 257.336 158.187 255.796 157.86C254.256 157.487 252.88 156.67 251.666 155.41C250.453 154.103 249.566 152.05 249.006 149.25L252.786 149.11C251.806 151.863 250.523 153.893 248.936 155.2C247.396 156.507 245.623 157.37 243.616 157.79C241.61 158.163 239.37 158.35 236.896 158.35ZM308.195 158.35L308.895 148.55C310.062 148.55 310.949 148.317 311.555 147.85C312.162 147.383 312.769 146.567 313.375 145.4C313.982 144.233 314.822 142.647 315.895 140.64C317.062 138.4 318.275 136.533 319.535 135.04C320.795 133.5 322.055 132.287 323.315 131.4C324.622 130.467 325.905 129.813 327.165 129.44C328.472 129.02 329.755 128.81 331.015 128.81C332.742 128.81 334.352 129.183 335.845 129.93C337.385 130.63 338.855 131.867 340.255 133.64C341.655 135.367 342.985 137.747 344.245 140.78C345.132 142.88 346.019 144.49 346.905 145.61C347.792 146.73 348.702 147.5 349.635 147.92C350.615 148.34 351.595 148.55 352.575 148.55C354.349 148.55 355.609 149.017 356.355 149.95C357.102 150.837 357.475 151.957 357.475 153.31C357.475 154.757 356.985 155.97 356.005 156.95C355.025 157.883 353.649 158.35 351.875 158.35C349.589 158.35 347.512 157.977 345.645 157.23C343.779 156.483 342.309 155.363 341.235 153.87L343.265 152.33C342.845 153.31 342.215 154.337 341.375 155.41C340.582 156.483 339.532 157.393 338.225 158.14C336.965 158.887 335.449 159.26 333.675 159.26C332.509 159.26 331.132 159.027 329.545 158.56C328.005 158.14 326.395 157.417 324.715 156.39C323.082 155.317 321.565 153.87 320.165 152.05C319.279 153.683 318.299 154.967 317.225 155.9C316.152 156.787 314.892 157.417 313.445 157.79C311.999 158.163 310.249 158.35 308.195 158.35ZM324.225 143.79C324.692 144.49 325.252 145.19 325.905 145.89C326.559 146.59 327.282 147.22 328.075 147.78C328.869 148.293 329.709 148.713 330.595 149.04C331.529 149.367 332.439 149.53 333.325 149.53C334.259 149.53 335.029 149.18 335.635 148.48C336.242 147.733 336.265 146.637 335.705 145.19C335.472 144.583 335.145 143.907 334.725 143.16C334.352 142.367 333.909 141.62 333.395 140.92C332.929 140.22 332.392 139.637 331.785 139.17C331.225 138.703 330.642 138.47 330.035 138.47C329.429 138.47 328.799 138.657 328.145 139.03C327.492 139.403 326.839 139.987 326.185 140.78C325.532 141.527 324.879 142.53 324.225 143.79ZM355.361 97.7V92.8L371.881 87.9V92.94L355.361 97.7ZM351.877 158.35L352.577 148.55C354.77 148.55 356.31 148.34 357.197 147.92C358.13 147.453 358.69 146.613 358.877 145.4C359.064 144.14 359.11 142.32 359.017 139.94L357.897 106.76H367.837L369.027 139.87C369.12 142.203 369.4 144 369.867 145.26C370.334 146.52 371.104 147.383 372.177 147.85C373.297 148.317 374.79 148.55 376.657 148.55C378.43 148.55 379.69 149.017 380.437 149.95C381.184 150.837 381.557 151.957 381.557 153.31C381.557 154.757 381.067 155.97 380.087 156.95C379.107 157.883 377.73 158.35 375.957 158.35C373.904 158.35 371.99 158.117 370.217 157.65C368.444 157.183 366.974 156.297 365.807 154.99C364.64 153.683 363.87 151.793 363.497 149.32L366.577 149.39C365.784 151.817 364.757 153.683 363.497 154.99C362.237 156.25 360.65 157.137 358.737 157.65C356.87 158.117 354.584 158.35 351.877 158.35ZM377.372 187.81V182.91L393.892 178.01V183.05L377.372 187.81ZM375.939 158.35L376.639 148.55C378.693 148.55 380.303 148.41 381.469 148.13C382.683 147.85 383.546 147.337 384.059 146.59C384.573 145.797 384.829 144.677 384.829 143.23C384.829 141.923 384.643 140.36 384.269 138.54C383.943 136.72 383.499 134.83 382.939 132.87C382.379 130.91 381.819 129.113 381.259 127.48L390.919 124.82C391.479 126.407 392.039 128.25 392.599 130.35C393.159 132.45 393.626 134.62 393.999 136.86C394.419 139.053 394.629 141.177 394.629 143.23C394.629 145.797 394.303 147.967 393.649 149.74C392.996 151.467 392.086 152.913 390.919 154.08C389.799 155.2 388.446 156.087 386.859 156.74C385.319 157.347 383.616 157.767 381.749 158C379.883 158.233 377.946 158.35 375.939 158.35ZM384.549 174.45C383.196 174.45 382.029 173.983 381.049 173.05C380.116 172.117 379.649 170.973 379.649 169.62C379.649 168.267 380.116 167.077 381.049 166.05C382.029 165.07 383.196 164.58 384.549 164.58C385.903 164.58 387.046 165.07 387.979 166.05C388.959 167.077 389.449 168.267 389.449 169.62C389.449 170.973 388.959 172.117 387.979 173.05C387.046 173.983 385.903 174.45 384.549 174.45Z" fill="#FF7D7D"/>
</g>
<g id="SvgjsG5471">
<path id="&#216;&#181;&#216;&#173;&#216;&#170;&#217;&#131;" d="M214.68 70.47L216.5 60.67C220.933 60.7167 224.503 60.6 227.21 60.32C229.963 59.9933 232.04 59.41 233.44 58.57C234.887 57.6833 235.82 56.4467 236.24 54.86C236.707 53.2267 236.87 51.15 236.73 48.63L235.19 17.76H244.99L246.53 49.12C246.67 51.92 246.997 54.0667 247.51 55.56C248.023 57.0533 248.793 58.1033 249.82 58.71C250.847 59.27 252.2 59.55 253.88 59.55C255.607 59.55 256.843 60.0167 257.59 60.95C258.383 61.8367 258.78 62.9567 258.78 64.31C258.78 65.7567 258.29 66.97 257.31 67.95C256.33 68.8833 254.953 69.35 253.18 69.35C251.127 69.35 249.283 69.0933 247.65 68.58C246.017 68.0667 244.663 67.18 243.59 65.92C242.517 64.6133 241.793 62.8633 241.42 60.67H244.57C243.497 62.9567 242.027 64.7767 240.16 66.13C238.34 67.4833 236.147 68.4633 233.58 69.07C231.06 69.7233 228.213 70.12 225.04 70.26C221.867 70.4467 218.413 70.5167 214.68 70.47ZM211.32 53.88L209.5 46.95C211.133 46.53 212.463 46.1567 213.49 45.83C214.563 45.5033 215.357 45.1767 215.87 44.85C216.383 44.5233 216.64 44.1967 216.64 43.87C216.64 43.45 216.43 43.0067 216.01 42.54C215.59 42.0733 215.123 41.5367 214.61 40.93C214.097 40.3233 213.63 39.6467 213.21 38.9C212.79 38.1533 212.58 37.29 212.58 36.31C212.58 35.1433 212.907 34.0467 213.56 33.02C214.213 31.9467 215.263 30.92 216.71 29.94C218.203 28.9133 220.163 27.91 222.59 26.93L225.6 33.16C223.64 33.9533 222.31 34.6533 221.61 35.26C220.957 35.82 220.63 36.3567 220.63 36.87C220.63 37.29 220.84 37.78 221.26 38.34C221.68 38.9 222.147 39.53 222.66 40.23C223.22 40.8833 223.71 41.63 224.13 42.47C224.55 43.2633 224.76 44.1267 224.76 45.06C224.76 45.8067 224.597 46.5767 224.27 47.37C223.99 48.1633 223.383 48.9333 222.45 49.68C221.563 50.4267 220.233 51.15 218.46 51.85C216.687 52.55 214.307 53.2267 211.32 53.88ZM214.68 70.47C209.64 70.47 205.37 70.0733 201.87 69.28C198.417 68.5333 195.593 67.46 193.4 66.06C191.253 64.6133 189.69 62.9333 188.71 61.02C187.73 59.1067 187.24 57.0067 187.24 54.72C187.24 53.2267 187.357 51.7333 187.59 50.24C187.87 48.7 188.197 47.2067 188.57 45.76C188.99 44.3133 189.363 43.0067 189.69 41.84L198.44 43.87C198.253 44.71 198.043 45.62 197.81 46.6C197.577 47.58 197.39 48.5367 197.25 49.47C197.11 50.3567 197.04 51.1733 197.04 51.92C197.04 53.6467 197.647 55.1867 198.86 56.54C200.12 57.8467 202.173 58.8733 205.02 59.62C207.867 60.32 211.693 60.67 216.5 60.67L217.9 68.23L214.68 70.47ZM253.154 69.35L253.854 59.55C255.534 59.55 256.981 59.3867 258.194 59.06C259.408 58.7333 260.434 58.08 261.274 57.1C262.114 56.0733 262.814 54.58 263.374 52.62C263.981 50.66 264.518 48.0467 264.984 44.78L274.154 46.32C274.061 47.02 273.921 47.8367 273.734 48.77C273.594 49.7033 273.454 50.66 273.314 51.64C273.221 52.5733 273.174 53.46 273.174 54.3C273.174 55.14 273.338 55.8867 273.664 56.54C273.991 57.1933 274.504 57.7533 275.204 58.22C275.951 58.64 276.908 58.9667 278.074 59.2C279.288 59.4333 280.758 59.55 282.484 59.55C284.258 59.55 285.518 60.0167 286.264 60.95C287.011 61.8367 287.384 62.9567 287.384 64.31C287.384 65.7567 286.894 66.97 285.914 67.95C284.981 68.8833 283.604 69.35 281.784 69.35C279.684 69.35 277.771 69.1867 276.044 68.86C274.364 68.5333 272.894 67.9967 271.634 67.25C270.421 66.4567 269.418 65.43 268.624 64.17C267.878 62.8633 267.411 61.2767 267.224 59.41H270.584C269.744 61.65 268.671 63.4467 267.364 64.8C266.104 66.1067 264.681 67.0867 263.094 67.74C261.508 68.3933 259.851 68.8133 258.124 69C256.444 69.2333 254.788 69.35 253.154 69.35ZM275.624 38.48C274.271 38.48 273.104 38.0133 272.124 37.08C271.191 36.1 270.724 34.9567 270.724 33.65C270.724 32.2967 271.191 31.13 272.124 30.15C273.104 29.17 274.271 28.68 275.624 28.68C276.931 28.68 278.051 29.17 278.984 30.15C279.918 31.13 280.384 32.2967 280.384 33.65C280.384 34.9567 279.918 36.1 278.984 37.08C278.051 38.0133 276.931 38.48 275.624 38.48ZM263.514 38.41C262.161 38.41 260.994 37.9433 260.014 37.01C259.081 36.03 258.614 34.8867 258.614 33.58C258.614 32.2267 259.081 31.06 260.014 30.08C260.994 29.1 262.161 28.61 263.514 28.61C264.821 28.61 265.941 29.1 266.874 30.08C267.808 31.06 268.274 32.2267 268.274 33.58C268.274 34.8867 267.808 36.03 266.874 37.01C265.941 37.9433 264.821 38.41 263.514 38.41ZM327.577 69.35C325.43 69.35 323.424 69.1867 321.557 68.86C319.737 68.5333 318.057 67.9733 316.517 67.18C314.977 66.34 313.6 65.1967 312.387 63.75C311.22 62.3033 310.24 60.4833 309.447 58.29L314.977 53.88C315.817 55.3733 316.844 56.54 318.057 57.38C319.27 58.1733 320.717 58.7333 322.397 59.06C324.077 59.3867 326.037 59.55 328.277 59.55C330.05 59.55 331.31 60.0167 332.057 60.95C332.804 61.8367 333.177 62.9567 333.177 64.31C333.177 65.7567 332.687 66.97 331.707 67.95C330.774 68.8833 329.397 69.35 327.577 69.35ZM281.797 69.35L282.497 59.55C285.017 59.55 287.514 59.41 289.987 59.13C292.46 58.85 294.864 58.43 297.197 57.87C299.53 57.31 301.747 56.5867 303.847 55.7C305.994 54.8133 308 53.74 309.867 52.48C308.467 51.64 306.95 50.9167 305.317 50.31C303.684 49.7033 301.934 49.26 300.067 48.98C298.247 48.6533 296.31 48.49 294.257 48.49C293.51 48.49 292.717 48.5133 291.877 48.56C291.084 48.6067 290.267 48.7 289.427 48.84C288.587 48.9333 287.747 49.0733 286.907 49.26L285.507 39.67C286.86 39.2967 288.284 39.04 289.777 38.9C291.317 38.7133 292.67 38.62 293.837 38.62C296.357 38.62 298.667 38.9 300.767 39.46C302.914 40.02 304.874 40.72 306.647 41.56C308.467 42.4 310.147 43.24 311.687 44.08C313.274 44.92 314.767 45.62 316.167 46.18C317.614 46.74 319.014 47.02 320.367 47.02H322.957L324.077 56.33C322.07 56.4233 320.18 56.82 318.407 57.52C316.68 58.1733 314.954 59.0133 313.227 60.04C311.547 61.02 309.727 62.0467 307.767 63.12C305.854 64.1933 303.684 65.1967 301.257 66.13C298.83 67.0633 296.03 67.8333 292.857 68.44C289.684 69.0467 285.997 69.35 281.797 69.35ZM363.858 70.26C359.518 70.26 355.901 70.0733 353.008 69.7C350.161 69.3267 347.851 68.79 346.078 68.09C344.304 67.39 342.904 66.55 341.878 65.57C340.851 64.59 340.011 63.5167 339.358 62.35L341.318 61.79C340.151 64.03 338.821 65.6867 337.328 66.76C335.834 67.8333 334.271 68.5333 332.638 68.86C331.004 69.1867 329.324 69.35 327.598 69.35L328.298 59.55C329.744 59.55 330.888 59.3167 331.728 58.85C332.568 58.3833 333.244 57.6133 333.758 56.54C334.318 55.4667 334.831 54.0433 335.298 52.27C335.764 50.4967 336.324 48.3267 336.978 45.76L345.868 47.93C345.541 49.19 345.261 50.2867 345.028 51.22C344.841 52.1533 344.678 52.97 344.538 53.67C344.444 54.3233 344.398 54.86 344.398 55.28C344.398 56.1667 344.608 56.96 345.028 57.66C345.448 58.3133 346.264 58.85 347.478 59.27C348.691 59.6433 350.464 59.9467 352.798 60.18C355.178 60.3667 358.281 60.46 362.108 60.46C366.168 60.46 369.551 60.32 372.258 60.04C374.964 59.7133 377.111 59.27 378.698 58.71C380.331 58.1033 381.498 57.38 382.198 56.54C382.898 55.6533 383.248 54.65 383.248 53.53C383.248 52.6433 383.038 51.8267 382.618 51.08C382.244 50.2867 381.614 49.6333 380.728 49.12C379.841 48.6067 378.698 48.35 377.298 48.35C375.618 48.35 373.914 48.77 372.188 49.61C370.508 50.4033 368.851 51.4767 367.218 52.83C365.584 54.1367 364.021 55.6067 362.528 57.24C361.081 58.8733 359.774 60.5067 358.608 62.14L348.108 60.95C349.928 58.01 351.981 55.1867 354.268 52.48C356.554 49.7733 359.004 47.3933 361.618 45.34C364.231 43.24 366.938 41.5833 369.738 40.37C372.538 39.1567 375.384 38.55 378.278 38.55C381.404 38.55 384.064 39.1567 386.258 40.37C388.451 41.5833 390.131 43.2633 391.298 45.41C392.464 47.5567 393.048 50.03 393.048 52.83C393.048 56.2367 392.068 59.2467 390.108 61.86C388.194 64.4733 385.091 66.5267 380.798 68.02C376.551 69.5133 370.904 70.26 363.858 70.26Z" fill="white"/>
</g>
</g>
<defs>
<clipPath id="clip0_6_2">
<rect width="396" height="179.145" fill="white"/>
</clipPath>
</defs>
</svg>
