<svg xmlns="http://www.w3.org/2000/svg" width="22.984" height="26.779"><g fill="none" stroke="#200e32" stroke-linecap="round" stroke-linejoin="round" stroke-width="1.5"><path data-name="Path 16" d="M.75 15.65v-.277a4.549 4.549 0 0 1 .76-2.3 6.155 6.155 0 0 0 1.509-2.923c0-.842 0-1.7.074-2.539C3.473 3.55 7.482.75 11.443.75h.1c3.96 0 7.97 2.8 8.362 6.858.074.842 0 1.7.061 2.539a6.261 6.261 0 0 0 1.508 2.936 4.432 4.432 0 0 1 .76 2.286v.265a4.507 4.507 0 0 1-1.067 3.02 5.693 5.693 0 0 1-3.6 1.733 56.962 56.962 0 0 1-12.151 0 5.755 5.755 0 0 1-3.6-1.733A4.554 4.554 0 0 1 .75 15.65Z"/><path data-name="Path 17" d="M8.402 24.574a3.9 3.9 0 0 0 5.419.638 3.651 3.651 0 0 0 .662-.638"/></g></svg>