<svg width="512" height="514" viewBox="0 0 512 514" fill="none" xmlns="http://www.w3.org/2000/svg">
<path d="M396.059 160.191C396.918 93.4062 330.526 35.5369 256.005 36.9371C181.434 35.5458 115.112 93.4328 115.951 160.191C115.951 162.541 116.99 164.795 118.84 166.457C120.691 168.119 123.2 169.053 125.817 169.053H386.193C388.81 169.053 391.319 168.119 393.169 166.457C395.02 164.795 396.059 162.541 396.059 160.191ZM265.871 151.329V111.254C265.871 108.904 264.832 106.65 262.982 104.988C261.131 103.326 258.622 102.392 256.005 102.392C253.388 102.392 250.879 103.326 249.028 104.988C247.178 106.65 246.138 108.904 246.138 111.254V151.329H136.108C136.601 146.162 137.696 141.102 139.038 136.104L149.102 138.975C151.581 139.641 154.253 139.405 156.541 138.318C158.828 137.231 160.549 135.381 161.332 133.165C162.115 130.95 161.897 128.547 160.726 126.474C159.555 124.401 157.524 122.824 155.071 122.084L145.205 119.257C152.512 104.19 163.646 90.8687 177.715 80.3612L182.579 86.2545C183.337 87.2202 184.302 88.0399 185.418 88.6654C186.534 89.291 187.779 89.7098 189.077 89.8972C190.376 90.0845 191.704 90.0367 192.982 89.7565C194.26 89.4763 195.462 88.9693 196.519 88.2655C197.576 87.5616 198.465 86.6751 199.135 85.658C199.804 84.6409 200.241 83.5139 200.418 82.3431C200.596 81.1723 200.511 79.9814 200.168 78.8405C199.826 77.6997 199.233 76.6318 198.424 75.6998L193.728 70.0281C209.666 61.4406 227.608 56.2982 246.138 55.0069V67.6796C246.138 70.03 247.178 72.2841 249.028 73.9461C250.879 75.608 253.388 76.5417 256.005 76.5417C258.622 76.5417 261.131 75.608 262.982 73.9461C264.832 72.2841 265.871 70.03 265.871 67.6796V55.0069C284.539 56.3362 302.348 61.4407 318.262 70.0103L310.31 79.6346C302.644 88.9752 318.4 99.4767 326.146 90.2159L334.305 80.3524C348.379 90.8594 359.514 104.184 366.815 119.257L353.367 123.094C342.682 126.01 345.425 140.552 356.357 140.402C359.119 140.632 370.298 136.582 372.972 136.095C374.314 141.093 375.409 146.153 375.902 151.32L265.871 151.329ZM480.112 0H31.8983C23.4424 0.00703534 15.335 3.02666 9.35492 8.39634C3.37482 13.766 0.0104486 21.0472 0 28.6422V485.358C0.0104486 492.953 3.37482 500.234 9.35492 505.604C15.335 510.973 23.4424 513.993 31.8983 514H480.112C488.566 513.991 496.671 510.97 502.649 505.601C508.627 500.231 511.99 492.951 512 485.358V28.6422C511.99 21.0487 508.627 13.7689 502.649 8.39947C496.671 3.03004 488.566 0.0093805 480.112 0ZM492.267 485.358C492.267 491.384 486.821 496.276 480.112 496.276H265.871V264.223C265.664 252.596 246.356 252.56 246.138 264.223V496.276H31.8983C25.1891 496.276 19.7329 491.375 19.7329 485.358V28.6422C19.7329 22.616 25.1891 17.7241 31.8983 17.7241H480.112C486.821 17.7241 492.267 22.6249 492.267 28.6422V485.358ZM108.807 244.815C69.7854 247.367 54.3148 275.362 63.5104 303.49C72.1731 341.526 70.9694 370.603 72.331 420.31C72.331 433.311 76.3269 443.192 84.2003 449.679C120.834 475.432 183.516 438.017 166.97 397.34C161.011 381.308 161.909 367.164 169.634 355.298C198.345 312.796 173.729 237.167 108.807 244.815ZM152.614 346.347C142.028 362.583 140.518 382.159 148.253 402.949C151.006 410.358 149.783 418.174 144.83 424.954C133.631 441.606 89.2816 450.681 92.0639 420.31C90.6431 368.733 91.9258 339.045 82.6414 299.148C80.8753 292.874 78.8428 281.158 85.0686 273.12C89.6072 267.253 98.3094 263.664 110.919 262.432C162.777 258.684 171.44 316.11 152.614 346.347ZM403.203 244.815C338.301 237.193 313.655 312.787 342.366 355.298C350.101 367.164 350.999 381.299 345.04 397.34C328.592 438.158 391.067 475.379 427.819 449.679C435.693 443.192 439.679 433.311 439.679 420.31C441.06 370.346 439.827 341.58 448.509 303.49C457.685 275.451 442.224 247.305 403.203 244.815ZM429.368 299.139C420.094 339.063 421.377 368.511 419.946 420.31C419.778 435.509 414.056 441.136 397.312 439.966C375.823 438.814 356.85 421.79 363.757 402.949C371.492 382.15 369.972 362.583 359.396 346.347C341.458 317.546 348.197 263.638 395.27 262.149C424.761 262.237 436.226 276.957 429.368 299.139Z" fill="url(#paint0_linear_4_3)"/>
<defs>
<linearGradient id="paint0_linear_4_3" x1="-80" y1="-61.7402" x2="616.399" y2="557.482" gradientUnits="userSpaceOnUse">
<stop stop-color="#FA4A65"/>
<stop offset="1" stop-color="#FA14B2"/>
</linearGradient>
</defs>
</svg>
