<svg xmlns="http://www.w3.org/2000/svg" width="20.768" height="23.076"><g fill="#200e32"><path data-name="Path 25297" d="M7.653 10.897h-2.15a15.4 15.4 0 0 0 .192 1.958Z"/><path data-name="Path 25298" d="M5.107 5.796a32.811 32.811 0 0 1-3.621-.8A10.331 10.331 0 0 0 0 9.857h4.462a16.327 16.327 0 0 1 .645-4.061Z"/><path data-name="Path 25299" d="M9.859 8.693V6.217a32.985 32.985 0 0 1-3.71-.27 15.287 15.287 0 0 0-.644 3.911h3.189Z"/><path data-name="Path 25300" d="M7.954.271A10.332 10.332 0 0 0 2.105 4.09a31.816 31.816 0 0 0 3.329.706A16.131 16.131 0 0 1 7.955.271Z"/><path data-name="Path 25301" d="M9.861 5.178V0a8.81 8.81 0 0 0-.324.022 15.144 15.144 0 0 0-3.044 4.922 31.959 31.959 0 0 0 3.369.234Z"/><path data-name="Path 25302" d="M14.079 4.472a15.2 15.2 0 0 0-2.857-4.45A11.557 11.557 0 0 0 10.897 0v5.178a31.917 31.917 0 0 0 2.628-.152Z"/><path data-name="Path 25303" d="M16.54 2.008a10.312 10.312 0 0 0-3.741-1.74 16.193 16.193 0 0 1 2.07 3.411Z"/><path data-name="Path 25304" d="M10.897 6.217v1.437l1.495-1.495q-.747.046-1.495.058Z"/><path data-name="Path 25305" d="M4.463 10.897H0a10.411 10.411 0 0 0 2.01 5.643l2.795-2.794a16.409 16.409 0 0 1-.342-2.849Z"/><path data-name="Path 25306" d="M18.744 4.216 4.215 18.745a10.316 10.316 0 0 0 5.124 1.972 10.554 10.554 0 0 0 2.077 0c.143-.014.29-.032.447-.055a.52.52 0 0 1 .593.514v1.9l3.8-4.112a.525.525 0 0 1 .084-.073 10.393 10.393 0 0 0 2.731-14.214q-.163-.233-.327-.461Zm-8.366 12.4a1.039 1.039 0 1 1 1.039-1.039 1.039 1.039 0 0 1-1.04 1.035Zm3.117 0a1.039 1.039 0 1 1 1.039-1.039 1.039 1.039 0 0 1-1.04 1.035Zm3.117 0a1.039 1.039 0 1 1 1.039-1.039 1.039 1.039 0 0 1-1.043 1.035Z"/></g></svg>